<?xml version="1.0" encoding="UTF-8" standalone="no"?>
<!DOCTYPE svg  PUBLIC '-//W3C//DTD SVG 1.1//EN'  'http://www.w3.org/Graphics/SVG/1.1/DTD/svg11.dtd'>
<svg version="1.1" xmlns="http://www.w3.org/2000/svg">
<defs>
<font id="indrettext-LightItalic" horiz-adv-x="581">
<font-face units-per-em="1000" descent="-230" x-height="527" font-style="italic" unicode-range="U+0020-00FE" cap-height="711" font-weight="300" bbox="-130 -202 941 970" underline-thickness="0" font-family="indrettext Light" slope="-96" underline-position="0" panose-1="0 0 0 0 0 0 0 0 0 0" ascent="770"/>
<missing-glyph/>
<glyph unicode=" " glyph-name="space" horiz-adv-x="295"/>
<glyph unicode="!" d="M81 220l104 491h57l-104 -491h-57zM38 97h95l-21 -97h-95z" glyph-name="exclam" horiz-adv-x="259"/>
<glyph unicode='&quot;' d="M300 711h56l-52 -243h-56zM131 711h55l-52 -243h-55z" glyph-name="quotedbl" horiz-adv-x="345"/>
<glyph unicode="#" d="M637 505h128l-10 -44h-142l-111 -211h145l-9 -44h-158l-113 -217l-41 16l106 201h-202l-113 -217l-40 16l105 201h-128l9 44h142l111 211h-146l10 44h159l111 213l40 -16l-103 -197h202l110 213l40 -16zM254 250h200l110 211h-200z" glyph-name="numbersign" horiz-adv-x="768"/>
<glyph unicode="$" d="M316 46l90 31l38 37l21 32l16 73l-10 45l-44 37l-204 64l-62 51l-19 49l3 79l42 83l74 63l99 28h24l22 107h55l-22 -107h17l95 -30l49 -33q-4 -4 -7.5 -8.5t-7.5 -9t-5 -6.5q-8 -9 -18 -21l-42 31l-81 24h-80l-78 -23l-48 -42l-32 -63l-3 -50l12 -32l49 -39l203 -62 l61 -50l17 -74l-20 -94l-33 -52l-57 -54l-118 -38h-27l-22 -103h-55l22 103h-31l-79 28l-44 32l-25 29l46 39l21 -24l30 -23l77 -27h91z" glyph-name="dollar" horiz-adv-x="640"/>
<glyph unicode="%" d="M110 17l658 708l35 -32l-659 -709zM629 36l-43 20l-30 38l-11 42l-1 44l13 73l15 43l27 43l44 37l49 20h54l42 -20l30 -37l10 -41l2 -45l-13 -73l-16 -42l-27 -44l-43 -38l-48 -20h-54zM709 97l27 22l17 31l13 32l13 69l-2 31l-4 28l-23 26l-24 13h-29l-32 -14l-29 -24 l-16 -30l-13 -30l-13 -69l4 -32l5 -32l19 -21l29 -13h26zM188 316l-43 20l-30 38l-11 42l-1 44l13 73l15 43l27 43l44 37l49 20h54l42 -20l30 -37l10 -41l2 -45l-13 -73l-16 -42l-27 -44l-43 -38l-48 -20h-54zM268 377l27 22l17 31l13 32l13 69l-2 31l-4 28l-23 26l-24 13 h-29l-32 -14l-29 -24l-16 -30l-13 -30l-13 -69l4 -32l5 -32l19 -21l29 -13h26z" glyph-name="percent" horiz-adv-x="894"/>
<glyph unicode="&amp;" d="M409 108l20 21l-138 221l-127 -68l-43 -53l-13 -62l3 -56l45 -53l44 -12h77l53 11l35 16zM258 499l53 -83l99 52l45 37l28 42l9 43l-9 35l-33 32l-32 8h-45l-43 -9l-45 -33l-23 -41l-9 -39zM565 23l-45 -32l-61 94l-66 -56l-53 -24l-68 -13h-91l-63 21l-61 73l-7 72 l20 91l63 74l131 67l-57 90l-10 58l11 56l37 65l70 47l65 13h52l52 -14l51 -49l13 -61l-12 -57l-39 -64l-65 -50l-93 -48l130 -206l27 42l36 88l5 23h56l-5 -23l-46 -113l-46 -60z" glyph-name="ampersand" horiz-adv-x="658"/>
<glyph unicode="&apos;" d="M125 711h55l-52 -243h-55z" glyph-name="quotesingle" horiz-adv-x="183"/>
<glyph unicode="(" d="M125 223v-166l22 -119l39 -80l-50 -30l-42 85l-26 125v183l37 156l76 187l78 125l76 83l38 -36l-74 -80l-72 -119l-68 -162z" glyph-name="parenleft" horiz-adv-x="348"/>
<glyph unicode=")" d="M237 377v166l-22 119l-39 80l50 30l42 -85l26 -126v-182l-37 -156l-76 -187l-78 -125l-76 -83l-38 36l74 80l72 119l68 162z" glyph-name="parenright" horiz-adv-x="348"/>
<glyph unicode="*" d="M349 359l-60 115l-109 -114l-35 30l107 114l-122 45l20 46l127 -46l31 145h52l-31 -145l140 45l9 -47l-146 -46l61 -115z" glyph-name="asterisk" horiz-adv-x="514"/>
<glyph unicode="+" d="M238 114l42 199h-189l11 50h189l42 200h52l-42 -200h189l-11 -50h-189l-42 -199h-52z" glyph-name="plus" horiz-adv-x="580"/>
<glyph unicode="," d="M90 11l19 86h94l-20 -91l-107 -140l-22 17l80 111z" glyph-name="comma" horiz-adv-x="279"/>
<glyph unicode="-" d="M81 334h340l-11 -50h-340z" glyph-name="hyphen" horiz-adv-x="480"/>
<glyph unicode="." d="M104 97h93l-21 -97h-93z" glyph-name="period" horiz-adv-x="279"/>
<glyph unicode="/" d="M70 -12l-46 20l377 714l45 -20z" glyph-name="slash" horiz-adv-x="441"/>
<glyph unicode="0" d="M211 -8l-80 44l-53 75l-18 80v89l33 153l37 94l54 83l84 70l99 39h90l76 -43l59 -73l16 -81v-91l-32 -153l-35 -94l-51 -81l-81 -70l-100 -41h-98zM376 76l72 63l41 64l33 81l31 143v79l-12 68l-45 59l-59 32h-72l-74 -32l-70 -60l-42 -67l-30 -79l-33 -143v-81l13 -62 l45 -64l59 -31h74z" glyph-name="zero" horiz-adv-x="643"/>
<glyph unicode="1" d="M80 589l266 122h30l-151 -711h-57l135 637l-207 -96z" glyph-name="one" horiz-adv-x="395"/>
<glyph unicode="2" d="M119 639l41 32l109 48h107l92 -51l42 -102l-18 -92l-60 -88l-373 -332h351l-11 -54h-420l12 58l395 359l52 73l15 64l-29 75l-70 36h-84l-84 -40l-35 -28z" glyph-name="two" horiz-adv-x="505"/>
<glyph unicode="3" d="M220 388l10 49l207 220h-276l11 54h344l-12 -54l-208 -219l106 -43l56 -69l12 -73l-13 -73l-44 -78l-76 -65l-117 -45h-105l-90 42l-31 35l44 39l29 -31l67 -31h85l91 38l58 50l33 52l13 60l-11 49l-38 55l-90 38h-55z" glyph-name="three" horiz-adv-x="541"/>
<glyph unicode="4" d="M501 246l-11 -54h-111l-41 -192h-58l41 192h-336l11 49l431 470h62l-99 -465h111zM412 621l-347 -375h267z" glyph-name="four" horiz-adv-x="551"/>
<glyph unicode="5" d="M46 34l-31 35l44 39l30 -31l66 -31h86l90 38l58 51l33 52l15 69l-10 51l-40 52l-67 27h-99l-77 -25l-42 33l113 317h321l-11 -54h-273l-89 -240l61 24h118l81 -36l57 -68l13 -74l-16 -82l-42 -79l-76 -65l-117 -45h-106z" glyph-name="five" horiz-adv-x="566"/>
<glyph unicode="6" d="M136 287l-20 -92l4 -54l29 -60l65 -35h92l80 36l41 45l32 63l15 67l-5 54l-22 47l-67 40h-72l-79 -29l-62 -44zM219 419l91 33h93l86 -51l34 -66l7 -73l-16 -79l-36 -79l-63 -68l-108 -44h-117l-88 52l-37 73l-5 71l66 310l40 87l88 90l111 44h95l86 -47l28 -30l-44 -40 l-23 25l-68 38h-74l-83 -36l-69 -71l-34 -70l-26 -120z" glyph-name="six" horiz-adv-x="580"/>
<glyph unicode="7" d="M20 0l438 657h-347l11 54h408l-11 -50l-435 -661h-64z" glyph-name="seven" horiz-adv-x="467"/>
<glyph unicode="8" d="M422 431l42 35l28 50l10 48l-7 50l-32 33l-59 18h-70l-67 -18l-46 -33l-27 -50l-10 -48l6 -50l27 -35l48 -19h100zM251 360l-58 -20l-58 -49l-27 -52l-16 -74l2 -49l40 -48l66 -22h76l74 22l60 48l24 49l15 73l-4 53l-38 49l-50 20h-106zM489 155l-32 -69l-85 -68 l-97 -26h-98l-81 30l-55 68l-6 66l19 97l40 72l92 67l-49 51l-11 63l15 73l39 69l69 48l94 23h76l77 -26l49 -49l14 -69l-14 -71l-40 -71l-67 -47l58 -66l10 -71z" glyph-name="eight" horiz-adv-x="583"/>
<glyph unicode="9" d="M476 426l20 90l-4 54l-29 60l-65 35h-92l-80 -36l-41 -45l-32 -63l-15 -64l5 -54l22 -47l67 -40h72l79 28l62 44zM393 294l-91 -32h-93l-86 52l-34 66l-7 72l16 76l36 79l63 68l108 44h117l87 -52l38 -73l5 -71l-66 -310l-39 -89l-88 -89l-111 -43h-98l-85 47l-29 30 l44 40l24 -25l67 -38h76l83 36l69 71l34 70l26 121z" glyph-name="nine" horiz-adv-x="580"/>
<glyph unicode=":" d="M89 97h93l-21 -97h-93zM175 505h93l-20 -97h-93z" glyph-name="colon" horiz-adv-x="309"/>
<glyph unicode=";" d="M171 505h93l-21 -97h-93zM64 11l19 86h94l-20 -91l-107 -140l-22 17l80 111z" glyph-name="semicolon" horiz-adv-x="309"/>
<glyph unicode="&lt;" d="M106 267l281 -190l-28 -36l-298 202l12 55l382 202l17 -40z" glyph-name="less" horiz-adv-x="500"/>
<glyph unicode="=" d="M121 449h428l-11 -50h-428zM85 278h428l-11 -50h-428z" glyph-name="equal" horiz-adv-x="580"/>
<glyph unicode="&gt;" d="M410 274l-281 190l28 36l298 -202l-12 -55l-382 -202l-17 40z" glyph-name="greater" horiz-adv-x="500"/>
<glyph unicode="?" d="M427 464l27 39l19 52l-2 53l-22 35l-57 22h-61l-57 -15l-44 -31l-17 -23l-16 -43l-52 11l19 47l30 44l64 44l76 20h80l73 -33l41 -53v-79l-25 -70l-38 -52l-100 -69l-64 -75l-15 -68h-55l18 86l76 89zM190 97h93l-21 -97h-93z" glyph-name="question" horiz-adv-x="562"/>
<glyph unicode="@" d="M545 204l-13 18l-30 22l-36 12h-40l-57 -15l-47 -41l-11 -24l-6 -29l19 -41l18 -15l37 -10h39l53 22l50 39l16 21zM640 65l60 42l57 87l24 112l-4 104l-41 85l-73 57l-90 22h-112l-104 -33l-105 -63l-82 -89l-57 -101l-19 -91l13 -101l45 -89l78 -63l90 -33h90l86 30 l14 -37l-95 -33h-111l-101 41l-84 67l-52 103l-14 106l22 110l59 110l98 104l111 65l118 37h118l112 -30l75 -59l49 -96l7 -118l-26 -127l-71 -107l-78 -51h-63l-30 27l-22 56l-39 -36l-74 -31h-55l-43 14l-29 22l-28 58l7 44l20 43l64 53l77 18h44l44 -17l35 -27l18 86 l-4 31l-29 26l-42 12h-60l-36 -11l-26 -14l-13 -10l-23 28l14 12l38 20l46 13h72l53 -15l42 -36l10 -50l-48 -225l24 -52h49z" glyph-name="at" horiz-adv-x="840"/>
<glyph unicode="A" d="M437 711l109 -711h-58l-31 223h-289l-127 -223h-61l408 711h49zM450 277l-48 367l-204 -367h252z" glyph-name="A" horiz-adv-x="624"/>
<glyph unicode="B" d="M422 79l46 44l33 68v72l-22 52l-56 37h-255l-64 -298h257zM186 711h294l84 -27l49 -68v-92l-36 -78l-37 -40l-58 -28l44 -33l31 -60v-93l-42 -96l-59 -58l-94 -38h-327zM233 657l-54 -251h258l71 41l24 25l25 54v64l-31 48l-63 19h-230z" glyph-name="B" horiz-adv-x="639"/>
<glyph unicode="C" d="M436 76l45 29l32 32l36 -35l-38 -37l-56 -37l-108 -36h-110l-92 49l-52 66l-28 87v86l29 151l38 90l64 90l78 63l115 45h110l89 -38l41 -37l25 -35l-48 -36l-19 33l-33 29l-74 30h-93l-88 -36l-62 -52l-56 -78l-30 -70l-31 -146v-70l23 -75l41 -54l71 -38h93z" glyph-name="C" horiz-adv-x="640"/>
<glyph unicode="D" d="M292 54l100 38l60 51l56 77l35 73l27 125l-4 73l-23 75l-41 54l-79 37h-191l-129 -603h189zM186 711h256l98 -47l55 -68q4 -15 14 -43q7 -20 12 -44l4 -89l-27 -129l-42 -91l-60 -87l-84 -70l-120 -43h-257z" glyph-name="D" horiz-adv-x="663"/>
<glyph unicode="E" d="M232 657l-54 -251h262l-11 -54h-262l-64 -298h377l-11 -54h-434l151 711h434l-11 -54h-377z" glyph-name="E"/>
<glyph unicode="F" d="M232 657l-54 -251h252l-11 -54h-252l-75 -352h-57l151 711h409l-11 -54h-352z" glyph-name="F" horiz-adv-x="537"/>
<glyph unicode="G" d="M591 606l-33 29l-78 30h-93l-88 -36l-62 -52l-56 -78l-30 -70l-31 -146v-70l23 -75l41 -54l71 -38h96l69 27l64 48l50 59l16 41l15 69h-182l12 55h237l-27 -126l-23 -57l-57 -74l-80 -60l-98 -36h-110l-92 49l-52 66l-28 87v86l29 151l38 90l64 90l78 63l116 45h109 l92 -39l41 -37l24 -32l-46 -35z" glyph-name="G" horiz-adv-x="677"/>
<glyph unicode="H" d="M547 406l63 305h58l-151 -711h-58l77 352h-368l-75 -352h-58l151 711h58l-65 -305h368z" glyph-name="H" horiz-adv-x="679"/>
<glyph unicode="I" d="M107 0h-57l151 711h57z" glyph-name="I" horiz-adv-x="273"/>
<glyph unicode="J" d="M45 21l-55 71v68l55 15v-60l41 -52l42 -17h44l48 18l61 51l31 69l112 527h58l-113 -530l-42 -95l-82 -70l-74 -24h-65z" glyph-name="J" horiz-adv-x="503"/>
<glyph unicode="K" d="M579 0h-69l-173 384l-187 -160l-48 -224h-57l151 711h57l-87 -409l467 409h83l-336 -290z" glyph-name="K" horiz-adv-x="665"/>
<glyph unicode="L" d="M124 54h336l-11 -54h-394l151 711h58z" glyph-name="L" horiz-adv-x="522"/>
<glyph unicode="M" d="M768 711h67l-151 -711h-57l128 601l-344 -519h-67l-124 519l-128 -601h-57l151 711h59l141 -579z" glyph-name="M" horiz-adv-x="840"/>
<glyph unicode="N" d="M186 711h51l299 -635l135 635h58l-151 -711h-70l-286 611l-130 -611h-57z" glyph-name="N" horiz-adv-x="738"/>
<glyph unicode="O" d="M237 -8l-92 49l-52 66l-28 87v86l30 151l38 89l64 92l78 62l116 45h109l93 -49l52 -63l28 -89v-87l-30 -151l-37 -86l-62 -89l-81 -66l-114 -47h-112zM258 46h92l87 38l65 54l55 75l31 70l30 146v70l-24 78l-40 52l-72 36h-94l-89 -36l-62 -52l-55 -78l-32 -71l-29 -146 v-68l22 -76l41 -54z" glyph-name="O" horiz-adv-x="704"/>
<glyph unicode="P" d="M159 309l-66 -309h-58l151 711h290l87 -28l57 -72l11 -91l-46 -99l-63 -69l-98 -43h-265zM170 363h246l76 34l46 51l34 68l-5 71l-40 51l-62 19h-232z" glyph-name="P" horiz-adv-x="612"/>
<glyph unicode="Q" d="M237 -8l-92 49l-52 66l-28 87v86l30 151l38 89l64 92l78 62l116 45h109l93 -49l52 -64l28 -88v-87l-30 -151l-37 -86l-62 -89l-67 -55l38 -58l-48 -32l-41 64l-77 -32h-112zM258 46h92l49 21l-54 85l45 32l58 -90l54 44l55 75l31 70l30 146v70l-24 78l-40 52l-72 36h-94 l-89 -36l-62 -52l-55 -78l-32 -71l-29 -146v-68l22 -76l41 -54z" glyph-name="Q" horiz-adv-x="704"/>
<glyph unicode="R" d="M476 711l87 -28l57 -72l11 -91l-46 -99l-63 -69l-82 -37l74 -315h-61l-69 309h-225l-66 -309h-58l151 711h290zM170 363h246l76 34l46 51l34 68l-5 71l-40 51l-62 19h-232z" glyph-name="R" horiz-adv-x="635"/>
<glyph unicode="S" d="M36 52l-26 29l48 40l20 -23l30 -24l90 -28h95l91 32l38 36l23 33l15 71l-15 56l-49 32l-202 61l-59 47l-20 52v76l43 86l75 64l99 27h103l110 -32l47 -30l-40 -47l-41 29l-95 26h-84l-77 -23l-49 -41l-34 -65v-49l12 -31l47 -40l207 -62l64 -50l17 -74l-20 -94l-32 -55 l-59 -52l-115 -37h-124l-91 29z" glyph-name="S" horiz-adv-x="602"/>
<glyph unicode="T" d="M215 0h-58l140 657h-197l11 54h456l-11 -54h-201z" glyph-name="T" horiz-adv-x="515"/>
<glyph unicode="U" d="M250 -8l-116 48l-48 89l-11 67l109 515h57l-106 -503l4 -56l39 -71l92 -35h70l107 35l69 71l27 56l106 503h58l-109 -515l-34 -72l-88 -89l-133 -43h-93z" glyph-name="U" horiz-adv-x="709"/>
<glyph unicode="V" d="M219 0l-119 711h57l105 -639l375 639h63l-421 -711h-60z" glyph-name="V" horiz-adv-x="636"/>
<glyph unicode="W" d="M591 80l291 631h59l-333 -711h-58l-56 572l-299 -572h-58l-32 711h53l24 -632l311 602h41z" glyph-name="W" horiz-adv-x="870"/>
<glyph unicode="X" d="M360 399l294 312h73l-342 -360l185 -351h-65l-160 312l-292 -312h-73l340 358l-186 353h64z" glyph-name="X" horiz-adv-x="656"/>
<glyph unicode="Y" d="M577 711h69l-303 -348l-77 -363h-57l78 368l-152 343h60l129 -294z" glyph-name="Y" horiz-adv-x="566"/>
<glyph unicode="Z" d="M612 711l-10 -48l-537 -609h419l-11 -54h-488l11 53l535 604h-385l11 54h455z" glyph-name="Z" horiz-adv-x="558"/>
<glyph unicode="[" d="M217 -150l-11 -52h-196l209 983h196l-11 -52h-140l-187 -879h140z" glyph-name="bracketleft" horiz-adv-x="346"/>
<glyph unicode="\" d="M177 707l52 10l72 -715l-52 -12z" glyph-name="backslash" horiz-adv-x="441"/>
<glyph unicode="]" d="M101 -150l187 879h-140l11 52h196l-209 -983h-196l11 52h140z" glyph-name="bracketright" horiz-adv-x="346"/>
<glyph unicode="^" d="M368 718l-263 -390l-45 25l277 401h70l110 -403l-52 -23z" glyph-name="asciicircum" horiz-adv-x="540"/>
<glyph unicode="_" d="M482 -59l-9 -44h-470l9 44h470z" glyph-name="underscore" horiz-adv-x="580"/>
<glyph unicode="`" d="M217 632l-138 114l34 36l136 -115z" glyph-name="grave" horiz-adv-x="302"/>
<glyph unicode="a" d="M372 129l19 31l11 52l-21 29l-35 25l-47 15h-52l-83 -21l-57 -47l-20 -42l-7 -37l25 -53l27 -17l52 -17h36l86 32zM212 468l-38 -20l-21 -17l-33 38l30 24l48 26l64 16h94l73 -22l57 -48l14 -62l-69 -323l25 -52l-51 -30l-34 73l-47 -36l-101 -43h-60l-63 20l-42 29 l-35 78l8 61l28 61l86 70l108 25h63l60 -22l41 -34l23 112l-6 42l-43 34l-51 12h-81z" glyph-name="a" horiz-adv-x="565"/>
<glyph unicode="b" d="M243 498l72 37h87l92 -49l50 -94l6 -66l-26 -122l-32 -70l-91 -98l-110 -44h-89l-52 23l-46 36l-11 -51h-58l160 754h58l-64 -301zM139 90l39 -28l46 -16h72l78 38l69 71l27 58l22 103l-3 56l-39 73l-65 35h-74l-78 -46l-59 -53l-56 -263z" glyph-name="b" horiz-adv-x="594"/>
<glyph unicode="c" d="M423 463l-54 17h-69l-79 -37l-68 -71l-27 -58l-22 -102l4 -57l39 -72l64 -36h68l55 18l53 43l35 -38l-68 -54l-79 -24h-86l-86 50l-50 94l-8 65l26 123l35 73l92 95l106 43h85l68 -26l46 -54l-47 -36z" glyph-name="c" horiz-adv-x="513"/>
<glyph unicode="d" d="M339 31l-72 -39h-85l-92 49l-50 95l-7 65l26 124l34 71l91 95l107 44h90l54 -22l44 -32l58 273h58l-161 -754h-57l16 76zM444 437l-39 28l-45 16h-72l-79 -38l-69 -71l-27 -58l-22 -103l3 -56l40 -73l64 -35h76l80 49l53 50l56 263z" glyph-name="d" horiz-adv-x="594"/>
<glyph unicode="e" d="M96 209l4 -54l39 -72l64 -36h70l78 19l50 26l24 -45l-60 -31l-102 -24h-82l-86 48l-50 94l-7 67l25 123l35 73l91 95l107 43h88l88 -49l48 -92l11 -62l-21 -96h-409zM466 292l7 31l-6 46l-39 73l-64 38h-72l-79 -37l-68 -71l-26 -54l-6 -26h353z" glyph-name="e" horiz-adv-x="574"/>
<glyph unicode="f" d="M171 459h-101l12 55h101l31 146l69 78l85 24h40l71 -20l-23 -53l-58 18h-35l-52 -16l-43 -50l-27 -127h142l-12 -55h-142l-98 -459h-58z" glyph-name="f" horiz-adv-x="403"/>
<glyph unicode="g" d="M458 436l-38 29l-45 16h-72l-78 -38l-69 -71l-28 -58l-17 -79l4 -53l37 -71l71 -30h76l80 51l52 55l46 216zM155 -168l-69 20l-38 31l-14 16l43 38l13 -14l28 -22l48 -14h82l58 20l57 34l24 39l27 125l-56 -44l-67 -36h-89l-91 43l-51 92l-6 67l19 97l35 71l91 96l108 44 h89l55 -22l43 -32l9 46h58l-117 -552l-39 -70l-81 -48l-80 -25h-89z" glyph-name="g" horiz-adv-x="594"/>
<glyph unicode="h" d="M195 754h59l-63 -297l54 41l78 37h93l73 -22l43 -83l-91 -430h-58l87 410l-21 49l-61 21h-70l-85 -47l-57 -46l-82 -387h-59z" glyph-name="h"/>
<glyph unicode="i" d="M157 527h58l-112 -527h-58zM186 754h96l-21 -99h-96z" glyph-name="i" horiz-adv-x="263"/>
<glyph unicode="j" d="M39 -134l-86 -28h-44l-39 11l25 53l26 -8h33l53 17l41 49l120 567h58l-124 -583zM197 754h96l-21 -99h-96z" glyph-name="j" horiz-adv-x="273"/>
<glyph unicode="k" d="M459 527h82l-257 -210l161 -317h-64l-139 283l-106 -86l-42 -197h-59l160 754h59l-103 -485z" glyph-name="k" horiz-adv-x="552"/>
<glyph unicode="l" d="M42 0l160 754h59l-160 -754h-59z" glyph-name="l" horiz-adv-x="263"/>
<glyph unicode="m" d="M466 406l-20 51l-56 23h-70l-74 -42l-72 -61l-80 -377h-59l112 527h59l-16 -75l61 47l72 36h92l71 -22l33 -68l63 50l86 40h92l70 -22l44 -82l-91 -431h-58l87 410l-21 49l-58 21h-68l-86 -46l-60 -53l-81 -381h-58z" glyph-name="m" horiz-adv-x="903"/>
<glyph unicode="n" d="M189 452l61 47l72 36h93l79 -22l43 -83l-91 -430h-58l87 410l-21 51l-63 19h-73l-74 -42l-71 -61l-80 -377h-58l112 527h58z" glyph-name="n" horiz-adv-x="586"/>
<glyph unicode="o" d="M282 46l75 32l50 58l29 72l25 112v71l-26 53l-62 36h-89l-79 -36l-45 -52l-31 -72l-25 -112v-72l26 -58l61 -32h91zM173 -8l-89 48l-36 73v88l26 126l41 93l63 70l109 45h106l88 -50l35 -68v-94l-25 -122l-38 -94l-63 -71l-110 -44h-107z" glyph-name="o" horiz-adv-x="558"/>
<glyph unicode="p" d="M244 497l71 38h87l92 -49l50 -93l7 -67l-26 -122l-34 -72l-89 -94l-109 -46h-90l-55 24l-44 34l-45 -212h-58l146 689h57l-16 -76zM140 90l39 -28l45 -16h71l79 38l69 71l28 58l22 103l-3 56l-40 73l-65 35h-74l-83 -49l-54 -50l-55 -263z" glyph-name="p" horiz-adv-x="594"/>
<glyph unicode="q" d="M341 30l-72 -38h-87l-92 49l-50 95l-7 65l25 122l33 72l93 96l107 44h90l54 -22l44 -32l9 46h58l-146 -689h-58l50 236zM444 437l-39 28l-45 16h-72l-79 -38l-69 -71l-27 -58l-22 -103l3 -56l40 -73l64 -35h75l76 46l58 53l56 263z" glyph-name="q" horiz-adv-x="594"/>
<glyph unicode="r" d="M377 480h-50l-51 -23l-45 -34l-32 -34l-39 -51l-72 -338h-58l112 527h58l-19 -88l63 58l89 38h60l35 -11l-23 -53z" glyph-name="r" horiz-adv-x="404"/>
<glyph unicode="s" d="M168 328l33 -19l154 -32l46 -37l25 -61l-18 -81l-47 -56l-49 -30l-74 -20h-90l-71 21l-37 27l-20 25l43 37l13 -17l30 -23l57 -16h76l56 14l35 23l27 32l10 48l-14 40l-32 26l-149 31l-52 34l-27 57l16 81l41 56l48 31l70 16h82l77 -23l42 -33l-37 -44l-35 27l-61 20h-76 l-45 -11l-28 -20l-25 -33l-12 -57z" glyph-name="s" horiz-adv-x="498"/>
<glyph unicode="t" d="M241 514h146l-12 -55h-146l-75 -351l22 -44l43 -17h35l63 15l8 -52l-87 -18h-44l-59 27l-41 76l77 364h-101l12 55h101l39 184h58z" glyph-name="t" horiz-adv-x="414"/>
<glyph unicode="u" d="M261 46l73 43l69 61l80 377h58l-112 -527h-57l16 75l-60 -46l-73 -37h-80l-81 25l-50 82l91 428h58l-88 -411l28 -53l61 -17h67z" glyph-name="u"/>
<glyph unicode="v" d="M60 527h56l81 -460l276 460h63l-322 -527h-57z" glyph-name="v" horiz-adv-x="534"/>
<glyph unicode="w" d="M387 506h49l62 -428l218 449h63l-264 -527h-60l-57 423l-237 -423h-60l-41 527h58l30 -449z" glyph-name="w" horiz-adv-x="768"/>
<glyph unicode="x" d="M66 0h-76l259 267l-141 260h66l116 -218l208 218h75l-258 -266l144 -261h-67l-117 222z" glyph-name="x" horiz-adv-x="552"/>
<glyph unicode="y" d="M248 122l263 405h66l-458 -689h-61l149 223l-112 466h61z" glyph-name="y" horiz-adv-x="552"/>
<glyph unicode="z" d="M-5 0l11 53l408 420h-302l11 54h371l-10 -49l-407 -423h325l-12 -55h-395z" glyph-name="z" horiz-adv-x="503"/>
<glyph unicode="{" d="M454 729h-90l-38 -19l-23 -35l-59 -277l-118 -97l77 -97l-64 -299l8 -36l30 -19h90l-11 -52h-112l-44 30l-20 58l64 302l-79 103l5 26l123 103l59 278l43 56l58 27h112z" glyph-name="braceleft" horiz-adv-x="413"/>
<glyph unicode="|" d="M79 -182h-46l203 956h46z" glyph-name="bar" horiz-adv-x="313"/>
<glyph unicode="}" d="M-18 -150h89l38 19l23 35l65 305l118 97l-77 97l58 271l-8 36l-30 19h-89l11 52h111l45 -32l19 -56l-58 -274l79 -103l-5 -26l-123 -103l-65 -306l-42 -56l-58 -27h-112z" glyph-name="braceright" horiz-adv-x="413"/>
<glyph unicode="~" d="M587 341l-53 -24l-75 -17h-50l-60 14l-62 22l-50 9h-32l-57 -14l-49 -23l-18 47l56 27l71 17h42l63 -12l67 -24l39 -9h48l47 11l53 25z" glyph-name="asciitilde" horiz-adv-x="665"/>
<glyph unicode="¡" d="M178 307l-104 -491h-57l104 491h57zM221 430h-95l21 97h95z" glyph-name="exclamdown" horiz-adv-x="259"/>
<glyph unicode="¢" d="M523 418l-35 46l-52 17h-89l-73 -36l-66 -67l-30 -60l-23 -110l5 -60l37 -70l64 -32h83l59 17l51 44l34 -38l-65 -54l-78 -23h-28l-21 -99h-55l21 99h-26l-86 47l-47 89l-8 69l28 133l38 73l82 87l106 45h28l22 103h55l-22 -103h29l66 -24l43 -55z" glyph-name="cent" horiz-adv-x="640"/>
<glyph unicode="£" d="M78 -2l-4 50l33 8l73 46l58 75l15 67l-15 90h-113l9 44h97l-14 82l4 82l37 91l72 60l88 26h92l70 -47l29 -52l-52 -30l-22 44l-47 31h-71l-70 -23l-44 -37l-26 -68l-3 -71l14 -88h190l-9 -44h-173l13 -83l-19 -88l-57 -75l68 -42h82l73 15l49 21l20 -48l-61 -26l-90 -16 h-90l-94 57l-71 -43z" glyph-name="sterling" horiz-adv-x="640"/>
<glyph unicode="¤" d="M534 256l-45 -47l56 -72l-43 -35l-58 74l-54 -33l-74 -22h-60l-63 24l-39 32l-90 -75l-31 39l92 75l-25 51l-8 64l11 58l34 67l48 49l-58 74l43 35l57 -73l55 32l75 22h59l60 -22l41 -32l89 73l33 -40l-91 -75l27 -52l6 -62l-11 -58zM525 379l-6 58l-31 53l-41 33l-54 18 h-36l-62 -18l-55 -33l-53 -53l-30 -58l-9 -42l6 -58l30 -52l41 -34l54 -18h36l62 18l55 34l54 52l30 58z" glyph-name="currency" horiz-adv-x="640"/>
<glyph unicode="¥" d="M587 711h69l-232 -266h115l-10 -44h-143l-33 -38l-11 -52h168l-9 -44h-169l-56 -267h-57l56 267h-168l9 44h169l12 57l-15 33h-147l10 44h118l-118 266h60l129 -294z" glyph-name="yen" horiz-adv-x="640"/>
<glyph unicode="¦" d="M202 398h-44l80 376h44zM79 -182h-44l80 376h44z" glyph-name="brokenbar" horiz-adv-x="313"/>
<glyph unicode="§" d="M167 553l40 77l75 63l84 26h54l76 -27l45 -43l-38 -37l-37 37l-64 21h-38l-63 -21l-54 -48l-28 -51l5 -52l208 -174l43 -55l9 -61l-17 -82l-32 -49l-37 -27v-71l-36 -66l-73 -63l-85 -27h-64l-77 26l-46 44l37 38l39 -38l64 -21h48l64 22l48 40l31 50l-2 46l-215 191 l-41 57l-7 54l12 58l34 44l45 29zM219 433l-59 -35l-16 -21l-8 -37l4 -41l34 -47l189 -166l33 18l24 36l12 59l-6 44l-33 41z" glyph-name="section" horiz-adv-x="549"/>
<glyph unicode="¨" d="M69 756h83l-19 -89h-83zM304 756h83l-19 -89h-83z" glyph-name="dieresis" horiz-adv-x="415"/>
<glyph unicode="©" d="M458 211l22 13l17 15l30 -28l-20 -18l-29 -18l-58 -20h-59l-50 27l-28 35l-15 50v46l18 85l21 51l34 48l44 36l60 23h60l45 -20l22 -19l14 -17l-38 -28l-11 15l-17 13l-33 13h-42l-41 -17l-31 -27l-23 -32l-20 -44l-16 -75v-44l10 -32l21 -27l34 -17h41zM509 57l106 63 l82 89l56 101l19 91l-12 101l-45 89l-79 63l-90 33h-90l-104 -33l-105 -63l-82 -89l-57 -101l-19 -91l13 -101l45 -89l78 -63l90 -33h90zM299 -16l-101 41l-84 67l-52 103l-14 106l22 110l59 110l98 104l111 65l118 37h100l107 -41l85 -69l51 -101l14 -106l-22 -110 l-59 -110l-98 -104l-110 -65l-115 -37h-110z" glyph-name="copyright" horiz-adv-x="842"/>
<glyph unicode="ª" d="M298 482l-26 20l-38 14h-26l-46 -12l-36 -28l-12 -24l-4 -20l10 -26l13 -10l36 -12h26l57 25l38 34zM281 394l-19 -15l-64 -28h-43l-35 12l-25 18l-20 43l6 35l19 37l52 40l59 13h35l34 -14l26 -17l15 71l-3 19l-22 18l-27 8h-43l-29 -6l-19 -8l-16 -11l-20 24l15 11 l25 12l46 11h45l37 -10l38 -31l7 -35l-40 -193l14 -28l-29 -18z" glyph-name="ordfeminine" horiz-adv-x="390"/>
<glyph unicode="«" d="M114 309l94 -176l-50 -30l-100 190l9 44l178 186l38 -38zM336 309l94 -176l-50 -30l-100 190l9 44l178 186l38 -38z" glyph-name="guillemotleft" horiz-adv-x="538"/>
<glyph unicode="¬" d="M518 364l-60 -282h-52l49 232h-376l11 50h428z" glyph-name="logicalnot" horiz-adv-x="600"/>
<glyph unicode="­" d="M81 334h340l-11 -50h-340z" glyph-name="softhyphen" horiz-adv-x="480"/>
<glyph unicode="®" d="M272 157l85 397h159l49 -17l30 -39l5 -49l-25 -57l-34 -39l-53 -23l43 -173h-49l-40 172h-87l-37 -172h-46zM364 373h119l36 19l17 19l17 35l-4 34l-14 20l-29 11h-112zM509 57l106 63l82 89l56 101l19 91l-12 101l-45 89l-79 63l-90 33h-90l-104 -33l-107 -63l-80 -89 l-57 -101l-19 -91l13 -101l45 -89l78 -63l90 -33h90zM299 -16l-101 41l-84 67l-52 103l-14 106l22 110l59 110l98 104l111 65l118 37h100l107 -41l85 -69l51 -101l14 -106l-22 -110l-59 -110l-98 -104l-110 -65l-115 -37h-110z" glyph-name="registered" horiz-adv-x="842"/>
<glyph unicode="¯" d="M403 722l-10 -49h-332l10 49h332z" glyph-name="macron" horiz-adv-x="428"/>
<glyph unicode="°" d="M411 527l-19 -31l-23 -25l-43 -29l-35 -14l-30 -6h-28l-27 7l-26 14l-28 26l-16 27l-8 30l-1 28l7 35l13 28l20 30l25 25l43 29l33 12l28 6h28l26 -6l27 -13l31 -31l13 -24l8 -31l1 -27l-7 -33zM390 584v22l-5 19l-13 22l-22 21l-21 10l-16 3h-22l-18 -3l-23 -9l-33 -23 l-22 -21l-13 -19l-10 -22l-5 -26v-22l5 -20l12 -21l25 -23l19 -8l16 -4h22l18 4l23 8l33 23l22 21l13 20l10 22z" glyph-name="degree" horiz-adv-x="454"/>
<glyph unicode="±" d="M244 145l36 168h-189l10 50h189l40 189h52l-40 -189h189l-10 -50h-189l-36 -168h-52zM37 50h428l-11 -50h-428z" glyph-name="plusminus" horiz-adv-x="580"/>
<glyph unicode="²" d="M125 698l34 29l59 22h58l51 -26l27 -53l-9 -51l-32 -46l-153 -129h159l-9 -50h-235l8 44l190 158l21 33l5 24l-16 33l-28 14h-36l-36 -14l-27 -24z" glyph-name="twosuperior" horiz-adv-x="335"/>
<glyph unicode="³" d="M182 572l6 37l83 88h-123l8 47h190l-6 -34l-89 -96l42 -18l29 -34l9 -37l-6 -38l-24 -41l-37 -33l-60 -24h-56l-48 20l-24 29l43 36l19 -23l28 -14h34l39 15l22 19l14 25l4 19l-5 20l-18 22l-41 15h-33z" glyph-name="threesuperior" horiz-adv-x="337"/>
<glyph unicode="´" d="M60 670l185 114l24 -38l-185 -114z" glyph-name="acute" horiz-adv-x="302"/>
<glyph unicode="µ" d="M202 46h69l73 43l69 61l80 377h58l-112 -527h-57l16 75l-60 -46l-73 -37h-79l-55 19l-33 27l-42 -200h-59l146 689h59l-90 -426l44 -42z" glyph-name="uni00B5" horiz-adv-x="585"/>
<glyph unicode="¶" d="M129 -162l106 497h-47l-64 27l-46 69l-11 59l14 69l36 62l73 64l78 26h368l-9 -44h-89l-177 -829h-47l177 829h-138l-177 -829h-47zM306 667h-39l-56 -18l-60 -56l-26 -43l-12 -53l8 -45l36 -55l49 -18h38z" glyph-name="paragraph" horiz-adv-x="580"/>
<glyph unicode="·" d="M103 375h93l-21 -97h-93z" glyph-name="periodcentered" horiz-adv-x="279"/>
<glyph unicode="¸" d="M118 19l32 -9l-28 -54l65 -13l7 -39l-41 -64l-56 -23h-42l-29 13l18 34l19 -8h27l38 16l24 39l-84 19z" glyph-name="cedilla" horiz-adv-x="249"/>
<glyph unicode="¹" d="M93 679l148 65h25l-61 -350h-53l50 284l-94 -40z" glyph-name="onesuperior" horiz-adv-x="241"/>
<glyph unicode="º" d="M155 351l-49 29l-22 46v48l15 73l23 53l36 40l64 27h59l52 -29l23 -45v-49l-15 -72l-22 -54l-38 -42l-59 -25h-67zM220 384l41 18l27 30l18 42l15 68v37l-16 36l-36 19h-47l-43 -20l-31 -32l-15 -40l-14 -66v-44l15 -31l34 -17h52z" glyph-name="ordmasculine" horiz-adv-x="376"/>
<glyph unicode="»" d="M215 309l-94 176l50 30l100 -190l-9 -44l-178 -186l-38 38zM437 309l-94 176l50 30l100 -190l-9 -44l-178 -186l-38 38z" glyph-name="guillemotright" horiz-adv-x="538"/>
<glyph unicode="¼" d="M65 17l658 708l35 -32l-659 -709zM113 651l148 65h25l-61 -350h-53l50 284l-94 -40zM733 136l-8 -46h-53l-16 -90h-50l16 90h-158l6 35l203 225h45l-38 -214h53zM653 267l-113 -131h90z" glyph-name="onequarter" horiz-adv-x="801"/>
<glyph unicode="½" d="M65 17l658 708l35 -32l-659 -709zM113 651l148 65h25l-61 -350h-53l50 284l-94 -40zM512 304l34 29l59 22h58l51 -26l27 -53l-9 -51l-32 -46l-153 -129h159l-9 -50h-235l8 44l190 158l21 33l5 24l-16 33l-28 14h-36l-36 -14l-27 -24z" glyph-name="onehalf" horiz-adv-x="798"/>
<glyph unicode="¾" d="M65 17l658 708l35 -32l-659 -709zM733 136l-8 -46h-53l-16 -90h-50l16 90h-158l6 35l203 225h45l-38 -214h53zM162 539l6 37l83 88h-123l8 47h190l-6 -34l-89 -96l42 -18l29 -34l9 -37l-6 -38l-24 -41l-37 -33l-60 -24h-56l-48 20l-24 29l43 36l19 -23l28 -14h34l39 15 l22 19l14 25l4 19l-5 20l-18 22l-41 15h-33zM653 267l-113 -131h90z" glyph-name="threequarters" horiz-adv-x="813"/>
<glyph unicode="¿" d="M141 63l-27 -39l-19 -52l2 -53l22 -35l57 -22h61l57 15l44 31l17 23l16 43l52 -11l-19 -47l-30 -44l-64 -44l-76 -20h-80l-73 33l-41 53v79l25 70l38 52l100 69l64 75l15 68h55l-18 -86l-76 -89zM378 430h-93l21 97h93z" glyph-name="questiondown" horiz-adv-x="562"/>
<glyph unicode="À" d="M437 711l109 -711h-58l-31 223h-289l-127 -223h-61l408 711h49zM450 277l-48 367l-204 -367h252zM332 887l26 38l157 -97l-26 -38z" glyph-name="Agrave" horiz-adv-x="624"/>
<glyph unicode="Á" d="M437 711l109 -711h-58l-31 223h-289l-127 -223h-61l408 711h49zM450 277l-48 367l-204 -367h252zM373 791l-18 39l198 97l19 -39z" glyph-name="Aacute" horiz-adv-x="624"/>
<glyph unicode="Â" d="M437 711l109 -711h-58l-31 223h-289l-127 -223h-61l408 711h49zM450 277l-48 367l-204 -367h252zM468 931l120 -115l-33 -33l-111 109l-156 -109l-26 37l162 111h44z" glyph-name="Acircumflex" horiz-adv-x="624"/>
<glyph unicode="Ã" d="M437 711l109 -711h-58l-31 223h-289l-127 -223h-61l408 711h49zM450 277l-48 367l-204 -367h252zM390 838h-24l-37 -13l-21 -20l-7 -13l-40 17l8 16l21 24l27 18l51 18h37l40 -18l39 -26l11 -5h26l35 15l20 18l8 12l41 -16l-10 -17l-18 -21l-28 -20l-48 -19h-34l-34 15 l-42 29z" glyph-name="Atilde" horiz-adv-x="624"/>
<glyph unicode="Ä" d="M437 711l109 -711h-58l-31 223h-289l-127 -223h-61l408 711h49zM450 277l-48 367l-204 -367h252zM286 903h81l-18 -83h-81zM525 903h80l-18 -83h-80z" glyph-name="Adieresis" horiz-adv-x="624"/>
<glyph unicode="Å" d="M437 711l109 -711h-58l-31 223h-289l-127 -223h-61l408 711h49zM450 277l-48 367l-204 -367h252zM367 850l2 -21l17 -28l27 -11h24l33 11l29 28l10 22l5 24l-1 21l-17 27l-28 12h-24l-32 -11l-29 -28l-11 -22zM338 885l19 34l41 36l45 15h36l43 -18l25 -38l3 -34l-7 -39 l-15 -33l-41 -38l-43 -15h-42l-44 22l-23 38l-4 30z" glyph-name="Aring" horiz-adv-x="624"/>
<glyph unicode="Æ" d="M403 278l81 383l-265 -383h184zM391 223h-209l-153 -223h-60l493 711h409l-11 -54h-319l-54 -251h204l-11 -54h-204l-64 -298h319l-11 -54h-376z" glyph-name="AE" horiz-adv-x="835"/>
<glyph unicode="Ç" d="M282 -8h-45l-92 49l-52 66l-28 87v86l29 151l38 90l64 90l78 63l115 45h110l89 -38l41 -37l25 -35l-48 -36l-19 33l-33 29l-74 30h-93l-88 -36l-62 -52l-56 -78l-30 -70l-31 -146v-70l23 -75l41 -54l71 -38h93l88 30l45 29l32 32l36 -35l-38 -37l-56 -37l-108 -36h-28 l-18 -36l65 -13l7 -39l-41 -64l-56 -23h-42l-29 13l18 34l19 -8h27l38 16l24 39l-84 19z" glyph-name="Ccedilla" horiz-adv-x="640"/>
<glyph unicode="È" d="M232 657l-54 -251h262l-11 -54h-262l-64 -298h377l-11 -54h-434l151 711h434l-11 -54h-377zM341 887l26 38l157 -97l-26 -38z" glyph-name="Egrave"/>
<glyph unicode="É" d="M232 657l-54 -251h262l-11 -54h-262l-64 -298h377l-11 -54h-434l151 711h434l-11 -54h-377zM372 791l-18 39l198 97l19 -39z" glyph-name="Eacute"/>
<glyph unicode="Ê" d="M232 657l-54 -251h262l-11 -54h-262l-64 -298h377l-11 -54h-434l151 711h434l-11 -54h-377zM473 931l120 -115l-33 -33l-111 109l-156 -109l-26 37l162 111h44z" glyph-name="Ecircumflex"/>
<glyph unicode="Ë" d="M232 657l-54 -251h262l-11 -54h-262l-64 -298h377l-11 -54h-434l151 711h434l-11 -54h-377zM279 903h81l-18 -83h-81zM518 903h80l-18 -83h-80z" glyph-name="Edieresis"/>
<glyph unicode="Ì" d="M107 0h-57l151 711h57zM150 887l26 38l157 -97l-26 -38z" glyph-name="Igrave" horiz-adv-x="273"/>
<glyph unicode="Í" d="M107 0h-57l151 711h57zM191 791l-18 39l198 97l19 -39z" glyph-name="Iacute" horiz-adv-x="273"/>
<glyph unicode="Î" d="M107 0h-57l151 711h57zM287 931l120 -115l-33 -33l-111 109l-156 -109l-26 37l162 111h44z" glyph-name="Icircumflex" horiz-adv-x="273"/>
<glyph unicode="Ï" d="M107 0h-57l151 711h57zM108 903h81l-18 -83h-81zM347 903h80l-18 -83h-80z" glyph-name="Idieresis" horiz-adv-x="273"/>
<glyph unicode="Ð" d="M127 338h-75l10 45h75l70 328h255l98 -47l55 -68q4 -15 14 -43q7 -20 12 -44l4 -89l-27 -129l-42 -91l-60 -87l-84 -70l-120 -43h-257zM313 54l100 38l60 51l56 77l35 73l27 125l-4 73l-23 75l-41 54l-79 37h-191l-59 -274h174l-10 -45h-173l-61 -284h189z" glyph-name="Eth" horiz-adv-x="683"/>
<glyph unicode="Ñ" d="M186 711h51l299 -635l135 635h58l-151 -711h-70l-286 611l-130 -611h-57zM431 838h-24l-37 -13l-21 -20l-7 -13l-40 17l8 16l21 24l27 18l51 18h37l40 -18l39 -26l11 -5h26l35 15l20 18l8 12l41 -16l-10 -17l-18 -21l-28 -20l-48 -19h-34l-34 15l-42 29z" glyph-name="Ntilde" horiz-adv-x="738"/>
<glyph unicode="Ò" d="M237 -8l-92 49l-52 66l-28 87v86l30 151l38 89l64 92l78 62l116 45h109l93 -49l52 -63l28 -89v-87l-30 -151l-37 -86l-62 -89l-81 -66l-114 -47h-112zM258 46h92l87 38l65 54l55 75l31 70l30 146v70l-24 78l-40 52l-72 36h-94l-89 -36l-62 -52l-55 -78l-32 -71l-29 -146 v-68l22 -76l41 -54zM377 887l26 38l157 -97l-26 -38z" glyph-name="Ograve" horiz-adv-x="704"/>
<glyph unicode="Ó" d="M237 -8l-92 49l-52 66l-28 87v86l30 151l38 89l64 92l78 62l116 45h109l93 -49l52 -63l28 -89v-87l-30 -151l-37 -86l-62 -89l-81 -66l-114 -47h-112zM258 46h92l87 38l65 54l55 75l31 70l30 146v70l-24 78l-40 52l-72 36h-94l-89 -36l-62 -52l-55 -78l-32 -71l-29 -146 v-68l22 -76l41 -54zM408 791l-18 39l198 97l19 -39z" glyph-name="Oacute" horiz-adv-x="704"/>
<glyph unicode="Ô" d="M237 -8l-92 49l-52 66l-28 87v86l30 151l38 89l64 92l78 62l116 45h109l93 -49l52 -63l28 -89v-87l-30 -151l-37 -86l-62 -89l-81 -66l-114 -47h-112zM258 46h92l87 38l65 54l55 75l31 70l30 146v70l-24 78l-40 52l-72 36h-94l-89 -36l-62 -52l-55 -78l-32 -71l-29 -146 v-68l22 -76l41 -54zM503 931l120 -115l-33 -33l-111 109l-156 -109l-26 37l162 111h44z" glyph-name="Ocircumflex" horiz-adv-x="704"/>
<glyph unicode="Õ" d="M237 -8l-92 49l-52 66l-28 87v86l30 151l38 89l64 92l78 62l116 45h109l93 -49l52 -63l28 -89v-87l-30 -151l-37 -86l-62 -89l-81 -66l-114 -47h-112zM258 46h92l87 38l65 54l55 75l31 70l30 146v70l-24 78l-40 52l-72 36h-94l-89 -36l-62 -52l-55 -78l-32 -71l-29 -146 v-68l22 -76l41 -54zM421 838h-24l-37 -13l-21 -20l-7 -13l-40 17l8 16l21 24l27 18l51 18h37l40 -18l39 -26l11 -5h26l35 15l20 18l8 12l41 -16l-10 -17l-18 -21l-28 -20l-48 -19h-34l-34 15l-42 29z" glyph-name="Otilde" horiz-adv-x="704"/>
<glyph unicode="Ö" d="M237 -8l-92 49l-52 66l-28 87v86l30 151l38 89l64 92l78 62l116 45h109l93 -49l52 -63l28 -89v-87l-30 -151l-37 -86l-62 -89l-81 -66l-114 -47h-112zM258 46h92l87 38l65 54l55 75l31 70l30 146v70l-24 78l-40 52l-72 36h-94l-89 -36l-62 -52l-55 -78l-32 -71l-29 -146 v-68l22 -76l41 -54zM324 903h81l-18 -83h-81zM563 903h80l-18 -83h-80z" glyph-name="Odieresis" horiz-adv-x="704"/>
<glyph unicode="×" d="M72 174l202 167l-130 165l38 34l132 -167l202 167l30 -37l-203 -167l131 -166l-39 -33l-132 167l-202 -167z" glyph-name="multiply" horiz-adv-x="580"/>
<glyph unicode="Ø" d="M226 -8l-92 49l-8 9l-89 -105l-33 27l95 112l-17 23l-28 87v86l30 151l38 89l64 92l78 62l116 45h109l93 -49l7 -10l91 107l33 -27l-96 -113l17 -20l28 -89v-87l-30 -151l-37 -86l-62 -89l-81 -66l-114 -47h-112zM132 138l6 -8l414 487l-9 12l-72 36h-94l-89 -36l-62 -52 l-55 -78l-32 -71l-29 -146v-68zM247 46h92l87 38l65 54l55 75l31 70l30 146v70l-24 78l-4 5l-415 -487l9 -11z" glyph-name="Oslash" horiz-adv-x="704"/>
<glyph unicode="Ù" d="M250 -8l-116 48l-48 89l-11 67l109 515h57l-106 -503l4 -56l39 -71l92 -35h70l107 35l69 71l27 56l106 503h58l-109 -515l-34 -72l-88 -89l-133 -43h-93zM361 887l26 38l157 -97l-26 -38z" glyph-name="Ugrave" horiz-adv-x="709"/>
<glyph unicode="Ú" d="M250 -8l-116 48l-48 89l-11 67l109 515h57l-106 -503l4 -56l39 -71l92 -35h70l107 35l69 71l27 56l106 503h58l-109 -515l-34 -72l-88 -89l-133 -43h-93zM402 791l-18 39l198 97l19 -39z" glyph-name="Uacute" horiz-adv-x="709"/>
<glyph unicode="Û" d="M250 -8l-116 48l-48 89l-11 67l109 515h57l-106 -503l4 -56l39 -71l92 -35h70l107 35l69 71l27 56l106 503h58l-109 -515l-34 -72l-88 -89l-133 -43h-93zM500 931l120 -115l-33 -33l-111 109l-156 -109l-26 37l162 111h44z" glyph-name="Ucircumflex" horiz-adv-x="709"/>
<glyph unicode="Ü" d="M250 -8l-116 48l-48 89l-11 67l109 515h57l-106 -503l4 -56l39 -71l92 -35h70l107 35l69 71l27 56l106 503h58l-109 -515l-34 -72l-88 -89l-133 -43h-93zM319 903h81l-18 -83h-81zM558 903h80l-18 -83h-80z" glyph-name="Udieresis" horiz-adv-x="709"/>
<glyph unicode="Ý" d="M577 711h69l-303 -348l-77 -363h-57l78 368l-152 343h60l129 -294zM350 791l-18 39l198 97l19 -39z" glyph-name="Yacute" horiz-adv-x="566"/>
<glyph unicode="Þ" d="M555 555l57 -72l11 -91l-46 -99l-63 -69l-97 -42h-265l-39 -182h-58l151 711h58l-27 -128h228zM225 529l-62 -293h246l75 33l46 51l34 68l-5 71l-40 51l-62 19h-232z" glyph-name="Thorn" horiz-adv-x="607"/>
<glyph unicode="ß" d="M331 0h-94l12 55h79l72 33l45 39l39 82v61l-23 47l-69 47h-86l12 56h34l70 37l37 34l29 54v66l-32 43l-72 22l-63 -9l-59 -45l-39 -59l-131 -615h-58l134 629l55 82l84 61l96 11l92 -32l47 -64l3 -90l-33 -72l-31 -37l-47 -31l74 -54l35 -63v-79l-50 -111l-63 -55z" glyph-name="germandbls" horiz-adv-x="600"/>
<glyph unicode="à" d="M372 129l19 31l11 52l-21 29l-35 25l-47 15h-52l-83 -21l-57 -47l-20 -42l-7 -37l25 -53l27 -17l52 -17h36l86 32zM212 468l-38 -20l-21 -17l-33 38l30 24l48 26l64 16h94l73 -22l57 -48l14 -62l-69 -323l25 -52l-51 -30l-34 73l-47 -36l-101 -43h-60l-63 20l-42 29 l-35 78l8 61l28 61l86 70l108 25h63l60 -22l41 -34l23 112l-6 42l-43 34l-51 12h-81zM401 632l-138 114l34 36l136 -115z" glyph-name="agrave" horiz-adv-x="565"/>
<glyph unicode="á" d="M372 129l19 31l11 52l-21 29l-35 25l-47 15h-52l-83 -21l-57 -47l-20 -42l-7 -37l25 -53l27 -17l52 -17h36l86 32zM212 468l-38 -20l-21 -17l-33 38l30 24l48 26l64 16h94l73 -22l57 -48l14 -62l-69 -323l25 -52l-51 -30l-34 73l-47 -36l-101 -43h-60l-63 20l-42 29 l-35 78l8 61l28 61l86 70l108 25h63l60 -22l41 -34l23 112l-6 42l-43 34l-51 12h-81zM283 670l185 114l24 -38l-185 -114z" glyph-name="aacute" horiz-adv-x="565"/>
<glyph unicode="â" d="M372 129l19 31l11 52l-21 29l-35 25l-47 15h-52l-83 -21l-57 -47l-20 -42l-7 -37l25 -53l27 -17l52 -17h36l86 32zM212 468l-38 -20l-21 -17l-33 38l30 24l48 26l64 16h94l73 -22l57 -48l14 -62l-69 -323l25 -52l-51 -30l-34 73l-47 -36l-101 -43h-60l-63 20l-42 29 l-35 78l8 61l28 61l86 70l108 25h63l60 -22l41 -34l23 112l-6 42l-43 34l-51 12h-81zM479 644l-103 104l-148 -104l-25 37l154 106h43l113 -109z" glyph-name="acircumflex" horiz-adv-x="565"/>
<glyph unicode="ã" d="M372 129l19 31l11 52l-21 29l-35 25l-47 15h-52l-83 -21l-57 -47l-20 -42l-7 -37l25 -53l27 -17l52 -17h36l86 32zM212 468l-38 -20l-21 -17l-33 38l30 24l48 26l64 16h94l73 -22l57 -48l14 -62l-69 -323l25 -52l-51 -30l-34 73l-47 -36l-101 -43h-60l-63 20l-42 29 l-35 78l8 61l28 61l86 70l108 25h63l60 -22l41 -34l23 112l-6 42l-43 34l-51 12h-81zM176 668l12 19l43 33l57 19h43l32 -14l35 -24l29 -11h23l27 10l21 15l10 19l45 -13l-9 -18l-16 -21l-33 -25l-41 -15l-41 -2l-37 14l-55 36h-35l-36 -14l-23 -17l-7 -10z" glyph-name="atilde" horiz-adv-x="565"/>
<glyph unicode="ä" d="M372 129l19 31l11 52l-21 29l-35 25l-47 15h-52l-83 -21l-57 -47l-20 -42l-7 -37l25 -53l27 -17l52 -17h36l86 32zM212 468l-38 -20l-21 -17l-33 38l30 24l48 26l64 16h94l73 -22l57 -48l14 -62l-69 -323l25 -52l-51 -30l-34 73l-47 -36l-101 -43h-60l-63 20l-42 29 l-35 78l8 61l28 61l86 70l108 25h63l60 -22l41 -34l23 112l-6 42l-43 34l-51 12h-81zM219 756h83l-19 -89h-83zM454 756h83l-19 -89h-83z" glyph-name="adieresis" horiz-adv-x="565"/>
<glyph unicode="å" d="M372 129l19 31l11 52l-21 29l-35 25l-47 15h-52l-83 -21l-57 -47l-20 -42l-7 -37l25 -53l27 -17l52 -17h36l86 32zM212 468l-38 -20l-21 -17l-33 38l30 24l48 26l64 16h94l73 -22l57 -48l14 -62l-69 -323l25 -52l-51 -30l-34 73l-47 -36l-101 -43h-60l-63 20l-42 29 l-35 78l8 61l28 61l86 70l108 25h63l60 -22l41 -34l23 112l-6 42l-43 34l-51 12h-81zM399 672l31 29l14 24l7 33l-4 24l-19 28l-24 12h-34l-30 -12l-31 -28l-14 -24l-7 -33l4 -24l19 -29l25 -11h34zM482 717l-22 -41l-42 -37l-46 -16h-45l-44 20l-28 42l-7 34l9 50l23 38 l46 38l44 15h43l43 -21l30 -41l5 -36z" glyph-name="aring" horiz-adv-x="565"/>
<glyph unicode="æ" d="M395 90l-70 -55l-101 -43h-61l-63 20l-42 29l-35 78l8 61l28 61l86 70l108 25h64l57 -21l12 -8l4 17l35 73l16 18l-7 19l-42 34l-51 12h-82l-47 -12l-38 -20l-21 -17l-33 38l30 24l48 26l64 16h95l73 -22l52 -45l3 -5l31 29l107 43h73l88 -49l48 -92l11 -62l-21 -96h-394 l-5 -27l4 -54l39 -72l64 -36h55l78 19l50 26l24 -45l-60 -31l-102 -24h-67l-86 48zM778 292l7 31l-6 46l-39 73l-64 38h-57l-79 -37l-68 -71l-26 -54l-6 -26h338zM365 201l10 47l-27 18l-48 15h-53l-83 -21l-57 -47l-20 -42l-7 -37l25 -53l27 -17l52 -17h35l84 31l68 54z " glyph-name="ae" horiz-adv-x="886"/>
<glyph unicode="ç" d="M224 -8h-35l-86 50l-50 94l-8 65l26 123l35 73l92 95l106 43h85l68 -26l46 -54l-47 -36l-33 44l-54 17h-69l-79 -37l-68 -71l-27 -58l-22 -102l4 -57l39 -72l64 -36h68l55 18l53 43l35 -38l-68 -54l-79 -24h-14l-18 -36l65 -13l7 -39l-41 -64l-56 -23h-42l-29 13l18 34 l19 -8h27l38 16l24 39l-84 19z" glyph-name="ccedilla" horiz-adv-x="513"/>
<glyph unicode="è" d="M96 209l4 -54l39 -72l64 -36h70l78 19l50 26l24 -45l-60 -31l-102 -24h-82l-86 48l-50 94l-7 67l25 123l35 73l91 95l107 43h88l88 -49l48 -92l11 -62l-21 -96h-409zM466 292l7 31l-6 46l-39 73l-64 38h-72l-79 -37l-68 -71l-26 -54l-6 -26h353zM424 632l-138 114l34 36 l136 -115z" glyph-name="egrave" horiz-adv-x="574"/>
<glyph unicode="é" d="M96 209l4 -54l39 -72l64 -36h70l78 19l50 26l24 -45l-60 -31l-102 -24h-82l-86 48l-50 94l-7 67l25 123l35 73l91 95l107 43h88l88 -49l48 -92l11 -62l-21 -96h-409zM466 292l7 31l-6 46l-39 73l-64 38h-72l-79 -37l-68 -71l-26 -54l-6 -26h353zM302 670l185 114l24 -38 l-185 -114z" glyph-name="eacute" horiz-adv-x="574"/>
<glyph unicode="ê" d="M96 209l4 -54l39 -72l64 -36h70l78 19l50 26l24 -45l-60 -31l-102 -24h-82l-86 48l-50 94l-7 67l25 123l35 73l91 95l107 43h88l88 -49l48 -92l11 -62l-21 -96h-409zM466 292l7 31l-6 46l-39 73l-64 38h-72l-79 -37l-68 -71l-26 -54l-6 -26h353zM503 644l-103 104 l-148 -104l-25 37l154 106h43l113 -109z" glyph-name="ecircumflex" horiz-adv-x="574"/>
<glyph unicode="ë" d="M96 209l4 -54l39 -72l64 -36h70l78 19l50 26l24 -45l-60 -31l-102 -24h-82l-86 48l-50 94l-7 67l25 123l35 73l91 95l107 43h88l88 -49l48 -92l11 -62l-21 -96h-409zM466 292l7 31l-6 46l-39 73l-64 38h-72l-79 -37l-68 -71l-26 -54l-6 -26h353zM238 756h83l-19 -89h-83z M473 756h83l-19 -89h-83z" glyph-name="edieresis" horiz-adv-x="574"/>
<glyph unicode="ì" d="M157 527h58l-112 -527h-58zM256 632l-138 114l34 36l136 -115z" glyph-name="igrave" horiz-adv-x="263"/>
<glyph unicode="í" d="M157 527h58l-112 -527h-58zM139 670l185 114l24 -38l-185 -114z" glyph-name="iacute" horiz-adv-x="263"/>
<glyph unicode="î" d="M157 527h58l-112 -527h-58zM333 644l-103 104l-148 -104l-25 37l154 106h43l113 -109z" glyph-name="icircumflex" horiz-adv-x="263"/>
<glyph unicode="ï" d="M157 527h58l-112 -527h-58zM66 756h83l-19 -89h-83zM301 756h83l-19 -89h-83z" glyph-name="idieresis" horiz-adv-x="263"/>
<glyph unicode="ð" d="M361 649l-34 95l50 25l32 -95l126 63l13 -27l-129 -65l89 -263v-98l-24 -114l-39 -69l-62 -65l-103 -44h-118l-78 49l-33 64l-15 65l24 113l39 66l64 65l97 47h112l76 -52l-77 212l-127 -64l-12 27zM276 46l79 37l44 48l31 49l21 98l-8 56l-35 42l-56 31h-88l-75 -39 l-44 -48l-32 -52l-19 -87l10 -55l24 -44l61 -36h87z" glyph-name="eth" horiz-adv-x="563"/>
<glyph unicode="ñ" d="M189 452l61 47l72 36h93l79 -22l43 -83l-91 -430h-58l87 410l-21 51l-63 19h-73l-74 -42l-71 -61l-80 -377h-58l112 527h58zM201 668l12 19l43 33l57 19h43l32 -14l35 -24l29 -11h23l27 10l21 15l10 19l45 -13l-9 -18l-16 -21l-33 -25l-41 -15l-41 -2l-37 14l-55 36h-35 l-36 -14l-23 -17l-7 -10z" glyph-name="ntilde" horiz-adv-x="586"/>
<glyph unicode="ò" d="M282 46l75 32l50 58l29 72l25 112v71l-26 53l-62 36h-89l-79 -36l-45 -52l-31 -72l-25 -112v-72l26 -58l61 -32h91zM173 -8l-89 48l-36 73v88l26 126l41 93l63 70l109 45h106l88 -50l35 -68v-94l-25 -122l-38 -94l-63 -71l-110 -44h-107zM404 632l-138 114l34 36 l136 -115z" glyph-name="ograve" horiz-adv-x="558"/>
<glyph unicode="ó" d="M282 46l75 32l50 58l29 72l25 112v71l-26 53l-62 36h-89l-79 -36l-45 -52l-31 -72l-25 -112v-72l26 -58l61 -32h91zM173 -8l-89 48l-36 73v88l26 126l41 93l63 70l109 45h106l88 -50l35 -68v-94l-25 -122l-38 -94l-63 -71l-110 -44h-107zM287 670l185 114l24 -38 l-185 -114z" glyph-name="oacute" horiz-adv-x="558"/>
<glyph unicode="ô" d="M282 46l75 32l50 58l29 72l25 112v71l-26 53l-62 36h-89l-79 -36l-45 -52l-31 -72l-25 -112v-72l26 -58l61 -32h91zM173 -8l-89 48l-36 73v88l26 126l41 93l63 70l109 45h106l88 -50l35 -68v-94l-25 -122l-38 -94l-63 -71l-110 -44h-107zM489 644l-103 104l-148 -104 l-25 37l154 106h43l113 -109z" glyph-name="ocircumflex" horiz-adv-x="558"/>
<glyph unicode="õ" d="M282 46l75 32l50 58l29 72l25 112v71l-26 53l-62 36h-89l-79 -36l-45 -52l-31 -72l-25 -112v-72l26 -58l61 -32h91zM173 -8l-89 48l-36 73v88l26 126l41 93l63 70l109 45h106l88 -50l35 -68v-94l-25 -122l-38 -94l-63 -71l-110 -44h-107zM186 668l12 19l43 33l57 19h43 l32 -14l35 -24l29 -11h23l27 10l21 15l10 19l45 -13l-9 -18l-16 -21l-33 -25l-41 -15l-41 -2l-37 14l-55 36h-35l-36 -14l-23 -17l-7 -10z" glyph-name="otilde" horiz-adv-x="558"/>
<glyph unicode="ö" d="M282 46l75 32l50 58l29 72l25 112v71l-26 53l-62 36h-89l-79 -36l-45 -52l-31 -72l-25 -112v-72l26 -58l61 -32h91zM173 -8l-89 48l-36 73v88l26 126l41 93l63 70l109 45h106l88 -50l35 -68v-94l-25 -122l-38 -94l-63 -71l-110 -44h-107zM223 756h83l-19 -89h-83z M458 756h83l-19 -89h-83z" glyph-name="odieresis" horiz-adv-x="558"/>
<glyph unicode="÷" d="M98 364h440l-11 -50h-440zM236 202h93l-19 -91h-93zM314 567h93l-20 -91h-93z" glyph-name="divide" horiz-adv-x="580"/>
<glyph unicode="ø" d="M173 -8l-63 34l-67 -81l-29 22l66 80l-32 66v88l26 126l41 93l63 70l109 45h106l62 -36l68 82l28 -22l-67 -81l32 -61v-94l-25 -122l-38 -94l-63 -71l-110 -44h-107zM104 136l17 -40l297 358l-45 26h-89l-79 -36l-45 -52l-31 -72l-25 -112v-72zM282 46l75 32l50 58l29 72 l25 112v71l-18 37l-297 -359l45 -23h91z" glyph-name="oslash" horiz-adv-x="558"/>
<glyph unicode="ù" d="M261 46l73 43l69 61l80 377h58l-112 -527h-57l16 75l-60 -46l-73 -37h-80l-81 25l-50 82l91 428h58l-88 -411l28 -53l61 -17h67zM399 632l-138 114l34 36l136 -115z" glyph-name="ugrave"/>
<glyph unicode="ú" d="M261 46l73 43l69 61l80 377h58l-112 -527h-57l16 75l-60 -46l-73 -37h-80l-81 25l-50 82l91 428h58l-88 -411l28 -53l61 -17h67zM292 670l185 114l24 -38l-185 -114z" glyph-name="uacute"/>
<glyph unicode="û" d="M261 46l73 43l69 61l80 377h58l-112 -527h-57l16 75l-60 -46l-73 -37h-80l-81 25l-50 82l91 428h58l-88 -411l28 -53l61 -17h67zM486 644l-103 104l-148 -104l-25 37l154 106h43l113 -109z" glyph-name="ucircumflex"/>
<glyph unicode="ü" d="M261 46l73 43l69 61l80 377h58l-112 -527h-57l16 75l-60 -46l-73 -37h-80l-81 25l-50 82l91 428h58l-88 -411l28 -53l61 -17h67zM219 756h83l-19 -89h-83zM454 756h83l-19 -89h-83z" glyph-name="udieresis"/>
<glyph unicode="ý" d="M248 122l263 405h66l-458 -689h-61l149 223l-112 466h61zM284 670l185 114l24 -38l-185 -114z" glyph-name="yacute" horiz-adv-x="552"/>
<glyph unicode="þ" d="M315 535h87l92 -49l50 -93l7 -67l-26 -122l-34 -72l-89 -94l-109 -46h-90l-55 24l-44 34l-45 -212h-58l173 813h56l-43 -200l55 45zM140 90l39 -28l45 -16h71l79 38l69 71l28 58l22 103l-3 56l-40 73l-65 35h-74l-83 -49l-54 -50l-55 -263z" glyph-name="thorn" horiz-adv-x="594"/>
</font>
</defs>
</svg>
