<?xml version="1.0" encoding="UTF-8" standalone="no"?>
<!DOCTYPE svg  PUBLIC '-//W3C//DTD SVG 1.1//EN'  'http://www.w3.org/Graphics/SVG/1.1/DTD/svg11.dtd'>
<svg version="1.1" xmlns="http://www.w3.org/2000/svg">
<defs>
<font id="indrettext-Light" horiz-adv-x="581">
<font-face unicode-range="U+0020-00FE" bbox="-43 -202 853 962" ascent="770" x-height="527" font-family="indrettext Light" underline-position="0" panose-1="0 0 0 0 0 0 0 0 0 0" font-weight="300" units-per-em="1000" cap-height="711" descent="-230" underline-thickness="0"/>
<missing-glyph/>
<glyph horiz-adv-x="295" unicode=" " glyph-name="space"/>
<glyph horiz-adv-x="279" unicode="!" glyph-name="exclam" d="M112 220v491h55v-491h-55zM93 97h93v-97h-93v97z"/>
<glyph horiz-adv-x="345" unicode='&quot;' glyph-name="quotedbl" d="M229 711h56v-243h-56v243zM60 711h55v-243h-55v243z"/>
<glyph horiz-adv-x="768" unicode="#" glyph-name="numbersign" d="M578 505h128v-44h-142l-66 -211h145v-44h-158l-66 -213l-44 12l63 201h-202l-66 -213l-43 12l62 201h-128v44h142l66 211h-146v44h159l66 213l44 -12l-63 -201h202l65 213l44 -12zM251 250h200l65 211h-200z"/>
<glyph horiz-adv-x="640" unicode="$" glyph-name="dollar" d="M366 46l84 32l30 37l14 32v73l-19 45l-52 37l-217 61l-73 53l-30 50l-15 77l26 82l62 65l91 29h24v107h55v-107h18l103 -29l55 -33l-15 -25q-2 -4 -7 -11.5l-7 -10.5l-49 31l-86 24h-80l-73 -23l-39 -42l-19 -63l8 -50l19 -32l57 -39l216 -62l72 -50l32 -74v-94l-24 -52 l-45 -53l-108 -39h-27v-103h-55v103h-31l-88 28l-49 32l-30 29l39 39l26 -24l34 -23l82 -27h91z"/>
<glyph horiz-adv-x="894" unicode="%" glyph-name="percent" d="M658 34l-46 20l-37 38l-18 42l-9 44v73l8 43l19 43l37 37l46 20h54l45 -20l37 -37l17 -41l10 -45v-73l-9 -42l-19 -44l-36 -38l-45 -20h-54zM728 95l23 22l11 31l8 32v69l-7 31l-9 28l-28 26l-26 13h-29l-29 -14l-25 -24l-11 -30l-8 -30v-69l9 -32l11 -32l23 -21l31 -13 h26zM199 316l-46 20l-37 38l-18 42l-9 44v73l8 43l19 43l37 37l46 20h54l45 -20l37 -37l17 -41l10 -45v-73l-9 -42l-19 -44l-36 -38l-45 -20h-54zM269 377l23 22l11 31l8 32v69l-7 31l-9 28l-28 26l-26 13h-29l-29 -14l-25 -24l-11 -30l-8 -30v-69l9 -32l11 -32l23 -21 l31 -13h26zM183 15l508 710l37 -30l-508 -709z"/>
<glyph horiz-adv-x="658" unicode="&amp;" glyph-name="ampersand" d="M440 108l15 21l-185 221l-112 -68l-32 -53v-62l15 -56l56 -53l47 -12h77l50 11l32 16zM209 501l71 -83l84 50l37 37l19 42v43l-16 35l-40 32l-34 8h-45l-41 -9l-38 -33l-14 -41v-37zM616 26l-41 -35l-80 94l-57 -56l-47 -23l-64 -14h-91l-68 18l-76 72l-22 76v88l50 76 l115 68l-76 90l-22 57v54l22 64l61 51l61 13h52l57 -13l61 -47l24 -62v-59l-27 -65l-55 -49l-77 -46l174 -206l15 40l17 88v23h56v-22l-23 -114l-30 -56z"/>
<glyph horiz-adv-x="183" unicode="&apos;" glyph-name="quotesingle" d="M64 711h55v-243h-55v243z"/>
<glyph horiz-adv-x="348" unicode="(" glyph-name="parenleft" d="M130 223l33 -166l47 -119l56 -80l-45 -31l-58 82l-52 125l-36 187v156l36 187l52 125l58 83l45 -32l-56 -80l-47 -119l-33 -166v-152z"/>
<glyph horiz-adv-x="348" unicode=")" glyph-name="parenright" d="M226 375l-34 166l-47 119l-55 80l45 32l57 -83l52 -125l37 -187v-156l-37 -187l-52 -125l-57 -82l-45 31l55 80l47 119l34 166v152z"/>
<glyph horiz-adv-x="514" unicode="*" glyph-name="asterisk" d="M342 359l-84 114l-84 -113l-39 28l82 113l-136 46l15 48l137 -46v145h50v-145l134 46l15 -48l-134 -45l84 -114z"/>
<glyph horiz-adv-x="580" unicode="+" glyph-name="plus" d="M265 114v199h-189v50h189v200h50v-200h189v-50h-189v-199h-50z"/>
<glyph horiz-adv-x="279" unicode="," glyph-name="comma" d="M96 11v86h93v-91l-78 -140l-26 16l57 112z"/>
<glyph horiz-adv-x="480" unicode="-" glyph-name="hyphen" d="M70 334h340v-50h-340v50z"/>
<glyph horiz-adv-x="279" unicode="." glyph-name="period" d="M93 97h93v-97h-93v97z"/>
<glyph horiz-adv-x="441" unicode="/" glyph-name="slash" d="M135 -10l-53 17l225 714l52 -17z"/>
<glyph horiz-adv-x="643" unicode="0" glyph-name="zero" d="M275 -8l-89 41l-70 72l-34 84l-18 91v151l18 91l34 84l70 71l90 42h91l89 -42l71 -71l34 -84l18 -91v-151l-18 -91l-34 -84l-70 -71l-90 -42h-92zM422 76l59 63l27 64l16 81v143l-15 79l-27 67l-58 60l-66 32h-72l-67 -32l-58 -60l-27 -67l-14 -79v-143l15 -81l27 -64 l58 -62l65 -31h74z"/>
<glyph horiz-adv-x="395" unicode="1" glyph-name="one" d="M28 590l238 121h28v-711h-55v637l-187 -96z"/>
<glyph horiz-adv-x="505" unicode="2" glyph-name="two" d="M53 639l33 33l104 47h105l101 -48l65 -103v-91l-44 -90l-301 -333h353v-54h-420v56l321 361l36 71v65l-46 76l-77 36h-84l-78 -38l-28 -28z"/>
<glyph horiz-adv-x="541" unicode="3" glyph-name="three" d="M208 388v48l160 221h-277v54h346v-47l-164 -225l115 -43l70 -70l28 -73v-72l-28 -77l-63 -65l-105 -47h-104l-102 41l-35 36l38 39l30 -31l77 -31h85l83 38l47 50l22 52v60l-21 49l-50 55l-98 38h-54z"/>
<glyph horiz-adv-x="551" unicode="4" glyph-name="four" d="M522 246v-54h-111v-192h-56v192h-335v45l333 474h58v-465h111zM355 621l-270 -375h270v375z"/>
<glyph horiz-adv-x="566" unicode="5" glyph-name="five" d="M139 364l-49 35l43 312h321v-54h-273l-38 -240l56 24h120l89 -35l70 -70l28 -73v-82l-28 -77l-62 -65l-106 -47h-103l-103 41l-35 36l39 39l30 -31l76 -31h86l82 38l47 51l22 52v69l-21 51l-51 52l-72 27h-99z"/>
<glyph horiz-adv-x="580" unicode="6" glyph-name="six" d="M132 287v-92l15 -54l42 -60l72 -35h92l73 36l31 45l19 63v67l-16 54l-32 47l-76 40h-72l-74 -30l-53 -44zM188 417l83 35h93l101 -51l46 -67l20 -72v-78l-21 -76l-48 -67l-98 -49h-115l-101 49l-51 73l-20 74v309l22 83l68 90l102 49h96l99 -47l33 -30l-40 -40l-26 25 l-76 38h-74l-76 -36l-54 -71l-19 -70v-120z"/>
<glyph horiz-adv-x="467" unicode="7" glyph-name="seven" d="M92 0l298 657h-348v54h409v-43l-297 -668h-62z"/>
<glyph horiz-adv-x="583" unicode="8" glyph-name="eight" d="M394 431l34 35l17 50v48l-17 50l-39 33l-63 18h-70l-63 -18l-39 -33l-17 -50v-48l17 -50l34 -35l53 -19h100zM238 360l-54 -20l-48 -49l-16 -52v-74l13 -49l50 -48l70 -22h76l70 22l50 48l13 49v73l-16 53l-48 49l-54 20h-106zM517 156l-19 -68l-71 -69l-89 -27h-96 l-87 27l-71 69l-19 68v91l22 71l77 71l-58 51l-24 64v71l24 70l59 49l88 25h76l88 -25l59 -49l24 -70v-71l-25 -64l-56 -51l76 -72l22 -70v-91z"/>
<glyph horiz-adv-x="580" unicode="9" glyph-name="nine" d="M460 425v91l-14 54l-42 60l-72 35h-92l-73 -36l-31 -45l-19 -63v-65l16 -53l32 -47l76 -40h75l73 31l54 45zM403 297l-81 -35h-93l-102 51l-46 67l-19 72v75l21 76l48 67l98 49h115l101 -49l51 -73l20 -74v-314l-22 -82l-68 -88l-102 -47h-97l-99 47l-32 30l40 40l26 -25 l76 -38h74l75 34l55 69l18 69v127z"/>
<glyph horiz-adv-x="309" unicode=":" glyph-name="colon" d="M108 97h93v-97h-93v97zM108 505h93v-97h-93v97z"/>
<glyph horiz-adv-x="309" unicode=";" glyph-name="semicolon" d="M108 505h93v-97h-93v97zM108 11v86h93v-91l-78 -140l-26 16l57 112z"/>
<glyph horiz-adv-x="500" unicode="&lt;" glyph-name="less" d="M98 270l325 -192l-23 -37l-341 202v55l340 203l24 -38z"/>
<glyph horiz-adv-x="580" unicode="=" glyph-name="equal" d="M76 449h428v-50h-428v50zM76 278h428v-50h-428v50z"/>
<glyph horiz-adv-x="500" unicode="&gt;" glyph-name="greater" d="M77 463l24 38l340 -203v-55l-341 -202l-23 37l325 192z"/>
<glyph horiz-adv-x="547" unicode="?" glyph-name="question" d="M383 464l19 39l8 52l-13 53l-30 35l-61 22h-61l-54 -15l-38 -31l-12 -23l-7 -43l-54 11l9 47l19 42l57 45l71 21h81l80 -31l50 -49l19 -85l-13 -70l-26 -51l-85 -69l-48 -76v-68h-55v86l57 89zM220 97h93v-97h-93v97z"/>
<glyph horiz-adv-x="840" unicode="@" glyph-name="at" d="M548 204l-17 18l-35 22l-38 12h-40l-54 -15l-39 -41l-5 -24v-29l27 -41l22 -15l39 -10h39l48 22l42 39l11 21v41zM672 65l51 42l39 87v112l-26 104l-59 85l-85 57l-95 22h-112l-97 -33l-92 -63l-63 -89l-35 -101v-91l35 -101l63 -89l92 -63l97 -33h90l82 30l17 -37 l-89 -33h-109l-108 38l-97 65l-76 106l-36 108v109l36 109l76 104l97 66l108 38h127l112 -28l86 -58l69 -98l32 -119v-122l-49 -107l-72 -56h-60l-34 27l-34 57l-32 -36l-66 -32h-54l-47 14l-34 21l-40 57v44l11 44l53 53l71 19h46l48 -17l39 -26v85l-11 31l-35 26l-44 12 h-60l-34 -11l-26 -14l-11 -10l-26 28l12 12l34 20l43 13h72l58 -14l49 -35l19 -48v-228l36 -53h48z"/>
<glyph horiz-adv-x="624" unicode="A" glyph-name="A" d="M335 711l260 -711h-60l-78 223h-289l-80 -223h-59l260 711h46zM438 277l-126 367l-126 -367h252z"/>
<glyph horiz-adv-x="639" unicode="B" glyph-name="B" d="M475 79l37 44l18 68l-16 72l-32 52l-64 37h-255v-298h257zM107 711h294l89 -24l62 -69l20 -94l-20 -78l-28 -40l-52 -28l52 -32l41 -59l21 -95l-23 -96l-48 -57l-83 -39h-325v711zM163 657v-251h258l62 41l19 25l14 54l-14 64l-42 48l-67 19h-230z"/>
<glyph horiz-adv-x="640" unicode="C" glyph-name="C" d="M487 76l39 29l26 33l40 -36l-30 -36l-48 -37l-98 -37h-110l-105 47l-66 66l-44 89l-20 86v151l20 88l45 90l65 63l105 47h110l98 -37l48 -37l30 -36l-40 -36l-26 33l-39 29l-81 30h-93l-80 -36l-51 -52l-40 -78l-15 -70v-146l15 -70l39 -75l53 -54l79 -38h93z"/>
<glyph horiz-adv-x="663" unicode="D" glyph-name="D" d="M351 54l91 38l50 51l39 77l20 73v125l-19 73l-39 75l-53 54l-87 37h-191v-603h189zM107 711h256l108 -44l69 -69l22 -44l21 -45l23 -89v-129l-23 -91l-44 -87l-69 -70l-108 -43h-255v711z"/>
<glyph unicode="E" glyph-name="E" d="M163 657v-251h262v-54h-262v-298h379v-54h-434v711h434v-54h-379z"/>
<glyph horiz-adv-x="537" unicode="F" glyph-name="F" d="M163 657v-251h252v-54h-252v-352h-55v711h409v-54h-354z"/>
<glyph horiz-adv-x="677" unicode="G" glyph-name="G" d="M528 606l-39 29l-86 30h-92l-80 -36l-52 -52l-39 -78l-16 -70v-146l16 -70l38 -75l54 -54l79 -38h96l63 27l54 48l37 59l8 41v69h-182v55h237v-126l-11 -57l-44 -73l-66 -59l-90 -38h-109l-106 47l-66 66l-43 89l-20 86v151l20 88l45 90l64 63l106 47h109l103 -37l48 -37 l28 -34l-40 -36z"/>
<glyph horiz-adv-x="679" unicode="H" glyph-name="H" d="M531 406v305h56v-711h-56v352h-368v-352h-56v711h56v-305h368z"/>
<glyph horiz-adv-x="273" unicode="I" glyph-name="I" d="M167 0h-55v711h55v-711z"/>
<glyph horiz-adv-x="503" unicode="J" glyph-name="J" d="M119 19l-66 67l-18 74l53 15l13 -60l52 -52l45 -17h44l44 18l53 51l16 69v527h56v-530l-24 -94l-69 -70l-65 -25h-65z"/>
<glyph horiz-adv-x="665" unicode="K" glyph-name="K" d="M642 0h-72l-255 384l-153 -160v-224h-55v711h55v-409l382 409h81l-272 -287z"/>
<glyph horiz-adv-x="522" unicode="L" glyph-name="L" d="M164 54h338v-54h-394v711h56v-657z"/>
<glyph horiz-adv-x="840" unicode="M" glyph-name="M" d="M682 711h61v-711h-55v601l-235 -519h-67l-235 519v-601h-55v711h59l264 -580z"/>
<glyph horiz-adv-x="738" unicode="N" glyph-name="N" d="M98 711h51l435 -635v635h56v-711h-70l-417 611v-611h-55v711z"/>
<glyph horiz-adv-x="704" unicode="O" glyph-name="O" d="M297 -8l-105 47l-66 66l-44 89l-19 86v151l19 88l45 90l65 63l105 47h109l105 -47l65 -63l45 -90l20 -88v-151l-20 -86l-44 -89l-66 -66l-105 -47h-109zM307 46h92l79 38l53 54l39 75l16 70v146l-16 70l-40 78l-51 52l-80 36h-94l-81 -36l-51 -52l-39 -78l-16 -71v-146 l16 -68l38 -76l53 -54z"/>
<glyph horiz-adv-x="612" unicode="P" glyph-name="P" d="M153 309v-309h-56v711h290l92 -24l72 -72l29 -95l-26 -97l-48 -69l-88 -45h-265zM153 363h246l69 34l35 51l19 68l-20 71l-51 51l-66 19h-232v-294z"/>
<glyph horiz-adv-x="704" unicode="Q" glyph-name="Q" d="M297 -8l-105 47l-66 66l-44 89l-19 86v151l19 88l45 90l65 63l105 47h109l105 -47l65 -63l45 -90l20 -88v-151l-20 -86l-44 -89l-51 -51l50 -58l-42 -36l-54 65l-75 -33h-108zM444 67l-73 85l40 36l82 -93l38 43l39 76l16 68v146l-17 72l-39 77l-51 52l-80 36h-94 l-81 -36l-51 -52l-39 -78l-16 -70v-146l16 -70l38 -75l53 -54l80 -38h91z"/>
<glyph horiz-adv-x="635" unicode="R" glyph-name="R" d="M387 711l92 -24l72 -72l29 -95l-26 -97l-48 -70l-71 -38l139 -315h-61l-135 309h-225v-309h-56v711h290zM153 363h246l69 34l35 51l19 68l-20 71l-51 51l-66 19h-232v-294z"/>
<glyph horiz-adv-x="602" unicode="S" glyph-name="S" d="M102 52l-30 29l39 41l25 -24l35 -24l96 -28h95l85 32l30 36l16 33v71l-27 56l-56 32l-214 58l-70 50l-31 52l-15 77l26 82l62 65l91 29h102l119 -30l52 -32l-30 -47l-48 29l-100 26h-84l-72 -23l-41 -41l-19 -65l10 -49l18 -31l56 -40l223 -62l72 -50l32 -74v-94l-24 -52 l-45 -53l-108 -39h-122l-99 28z"/>
<glyph horiz-adv-x="515" unicode="T" glyph-name="T" d="M283 0h-56v657h-197v54h454v-54h-201v-657z"/>
<glyph horiz-adv-x="709" unicode="U" glyph-name="U" d="M310 -8l-125 46l-70 91l-21 67v515h55v-503l16 -56l54 -71l100 -35h70l101 35l54 71l15 56v503h56v-515l-22 -68l-69 -90l-125 -46h-89z"/>
<glyph horiz-adv-x="636" unicode="V" glyph-name="V" d="M288 0l-270 711h59l241 -639l240 639h60l-270 -711h-60z"/>
<glyph horiz-adv-x="870" unicode="W" glyph-name="W" d="M641 80l158 631h54l-182 -711h-58l-177 572l-178 -572h-58l-183 711h55l158 -632l185 602h41z"/>
<glyph horiz-adv-x="656" unicode="X" glyph-name="X" d="M327 399l229 312h68l-263 -357l261 -354h-68l-227 312l-226 -312h-68l261 354l-263 357h68z"/>
<glyph horiz-adv-x="566" unicode="Y" glyph-name="Y" d="M474 711h64l-229 -348v-363h-54v363l-228 348h64l191 -294z"/>
<glyph horiz-adv-x="558" unicode="Z" glyph-name="Z" d="M514 711v-48l-408 -609h417v-54h-488v48l409 609h-388v54h458z"/>
<glyph horiz-adv-x="346" unicode="[" glyph-name="bracketleft" d="M269 -150v-52h-194v983h194v-52h-140v-879h140z"/>
<glyph horiz-adv-x="441" unicode="\" glyph-name="backslash" d="M82 704l52 17l225 -714l-53 -17z"/>
<glyph horiz-adv-x="346" unicode="]" glyph-name="bracketright" d="M225 -150v879h-140v52h194v-983h-194v52h140z"/>
<glyph horiz-adv-x="540" unicode="^" glyph-name="asciicircum" d="M270 718l-180 -390l-49 24l194 402h69l195 -402l-49 -24z"/>
<glyph horiz-adv-x="580" unicode="_" glyph-name="underscore" d="M525 -59v-44h-470v44h470z"/>
<glyph horiz-adv-x="302" unicode="`" glyph-name="grave" d="M222 632l-162 114l28 38l160 -115z"/>
<glyph horiz-adv-x="565" unicode="a" glyph-name="a" d="M182 468l-34 -21l-18 -17l-38 38l25 24l43 26l58 17h94l79 -20l67 -46l26 -66v-322l35 -51l-46 -32l-49 73l-39 -34l-90 -45h-60l-68 20l-48 27l-54 78v57l14 65l72 72l101 25h62l65 -22l49 -34v112l-15 42l-52 34l-53 12h-81zM415 129l13 31v52l-27 29l-42 25l-50 15 h-52l-80 -21l-46 -47l-10 -42v-37l37 -53l30 -17l56 -17h36l80 32z"/>
<glyph horiz-adv-x="594" unicode="b" glyph-name="b" d="M192 497l64 38h87l104 -47l70 -95l19 -67v-122l-19 -70l-71 -96l-99 -46h-88l-59 22l-52 32v-46h-56v754h56v-301zM175 90l45 -28l49 -16h72l70 38l54 71l15 58v103l-15 56l-55 73l-72 35h-77l-67 -46l-46 -53v-263z"/>
<glyph horiz-adv-x="513" unicode="c" glyph-name="c" d="M382 463l-57 17h-69l-71 -37l-53 -71l-15 -58v-102l16 -57l54 -72l72 -36h68l52 18l45 43l39 -38l-56 -55l-73 -23h-86l-97 46l-71 96l-20 67v122l20 70l71 96l97 46h87l73 -24l56 -56l-39 -36z"/>
<glyph horiz-adv-x="594" unicode="d" glyph-name="d" d="M408 31l-63 -39h-87l-104 47l-70 95l-19 67v122l19 70l71 96l99 46h88l59 -22l52 -32v273h56v-754h-55v76zM426 437l-45 28l-49 16h-72l-70 -38l-54 -71l-15 -58v-103l15 -56l55 -73l72 -35h78l71 49l41 50v263z"/>
<glyph horiz-adv-x="574" unicode="e" glyph-name="e" d="M126 209l16 -54l54 -72l72 -36h70l75 19l44 26l30 -42l-52 -34l-96 -24h-82l-97 46l-71 96l-19 67v122l19 70l71 96l97 46h88l100 -46l68 -95l22 -62v-96h-409v-27zM479 292v31l-16 46l-54 73l-72 38h-72l-71 -37l-53 -71l-15 -54v-26h353z"/>
<glyph horiz-adv-x="403" unicode="f" glyph-name="f" d="M140 459h-101v55h101v146l52 77l79 25h42l75 -20l-14 -53l-62 18h-35l-48 -16l-33 -50v-127h142v-55h-142v-459h-56v459z"/>
<glyph horiz-adv-x="594" unicode="g" glyph-name="g" d="M432 436l-46 29l-49 16h-72l-70 -38l-54 -71l-15 -58v-79l15 -53l52 -71l77 -30h78l70 51l40 55v216zM255 -168l-75 20l-45 31l-17 16l38 39l15 -15l33 -22l51 -14h82l55 20l50 34l16 39v125l-48 -44l-60 -36h-89l-101 41l-71 93l-19 68v96l19 70l71 96l98 46h89l59 -22 l52 -32v46h56v-552l-24 -70l-73 -48l-74 -25h-88z"/>
<glyph unicode="h" glyph-name="h" d="M94 754h57v-297l45 40l70 38h93l80 -22l59 -78v-435h-56v410l-32 49l-67 21h-74l-73 -47l-45 -46v-387h-57v754z"/>
<glyph horiz-adv-x="263" unicode="i" glyph-name="i" d="M103 527h56v-527h-56v527zM84 754h94v-99h-94v99z"/>
<glyph horiz-adv-x="273" unicode="j" glyph-name="j" d="M120 -133l-80 -29h-42l-41 11l14 53l27 -8h33l52 17l30 49v567h56v-583zM94 754h94v-99h-94v99z"/>
<glyph horiz-adv-x="552" unicode="k" glyph-name="k" d="M420 527h77l-211 -206l230 -321h-68l-199 283l-88 -86v-197h-57v754h57v-487z"/>
<glyph horiz-adv-x="263" unicode="l" glyph-name="l" d="M105 0v754h57v-754h-57z"/>
<glyph horiz-adv-x="903" unicode="m" glyph-name="m" d="M429 406l-31 51l-63 23h-66l-62 -42l-56 -61v-377h-57v527h57v-75l51 46l64 37h82l78 -22l47 -66l51 47l77 41h82l77 -22l60 -78v-435h-56v410l-32 49l-64 21h-64l-73 -46l-46 -53v-381h-56v406z"/>
<glyph horiz-adv-x="586" unicode="n" glyph-name="n" d="M150 452l51 46l64 37h93l86 -22l59 -78v-435h-56v410l-32 51l-69 19h-78l-62 -42l-56 -61v-377h-56v527h56v-75z"/>
<glyph horiz-adv-x="558" unicode="o" glyph-name="o" d="M325 46l68 32l38 58l14 72v112l-14 71l-38 53l-69 36h-89l-72 -36l-34 -52l-15 -72v-112l14 -72l38 -58l68 -32h91zM227 -8l-100 46l-48 71l-21 92v123l21 93l48 70l99 48h108l98 -48l48 -70l21 -93v-123l-21 -92l-48 -71l-100 -46h-105z"/>
<glyph horiz-adv-x="594" unicode="p" glyph-name="p" d="M205 496l63 39h87l104 -47l70 -95l19 -67v-122l-19 -70l-71 -96l-99 -46h-88l-59 22l-52 32v-208h-56v689h55v-76zM187 90l45 -28l49 -16h72l70 38l54 71l15 58v103l-15 56l-55 73l-72 35h-78l-71 -49l-41 -50v-263z"/>
<glyph horiz-adv-x="594" unicode="q" glyph-name="q" d="M409 30l-64 -38h-87l-104 47l-70 95l-19 67v122l19 70l71 96l96 46h91l59 -22l52 -32v46h56v-689h-56v236zM426 437l-45 28l-49 16h-72l-70 -38l-54 -71l-15 -58v-103l15 -56l55 -73l72 -35h77l67 46l46 53v263z"/>
<glyph horiz-adv-x="404" unicode="r" glyph-name="r" d="M339 480h-50l-47 -23l-38 -34l-25 -34l-27 -51v-338h-56v527h56v-88l52 58l81 38h60l38 -11l-14 -53z"/>
<glyph horiz-adv-x="498" unicode="s" glyph-name="s" d="M156 327l35 -18l161 -32l54 -37l38 -61v-80l-38 -57l-43 -30l-67 -20h-90l-78 21l-44 28l-24 24l38 37l17 -17l34 -23l60 -16h76l53 14l30 23l20 32v48l-22 40l-38 26l-156 30l-59 33l-39 55v85l31 54l40 31l65 18h82l86 -23l47 -33l-30 -44l-40 27l-66 20h-76l-42 -11 l-24 -20l-18 -33v-54z"/>
<glyph horiz-adv-x="414" unicode="t" glyph-name="t" d="M191 514h146v-55h-146v-348l33 -47l46 -17h36l60 15l14 -52l-83 -18h-43l-66 25l-53 74v368h-101v55h101v184h56v-184z"/>
<glyph unicode="u" glyph-name="u" d="M318 46l64 43l55 61v377h56v-527h-55v75l-52 -46l-65 -37h-80l-88 22l-64 81v432h56v-410l37 -54l66 -17h70z"/>
<glyph horiz-adv-x="534" unicode="v" glyph-name="v" d="M29 527h58l179 -460l180 460h59l-210 -527h-57z"/>
<glyph horiz-adv-x="768" unicode="w" glyph-name="w" d="M360 506h49l151 -428l125 449h59l-152 -527h-60l-147 423l-147 -423h-60l-153 527h60l125 -449z"/>
<glyph horiz-adv-x="552" unicode="x" glyph-name="x" d="M115 0h-72l200 264l-198 263h70l162 -218l163 218h70l-199 -263l201 -264h-71l-164 222z"/>
<glyph horiz-adv-x="552" unicode="y" glyph-name="y" d="M276 122l179 405h62l-312 -689h-58l100 220l-212 469h63z"/>
<glyph horiz-adv-x="503" unicode="z" glyph-name="z" d="M54 0v49l320 424h-304v54h374v-49l-318 -423h323v-55h-395z"/>
<glyph horiz-adv-x="413" unicode="{" glyph-name="braceleft" d="M349 729h-90l-34 -19l-16 -35v-272l-97 -97l97 -97v-304l16 -36l34 -19h90v-52h-112l-53 29l-30 56v305l-101 103v25l101 104v277l30 55l53 29h112v-52z"/>
<glyph horiz-adv-x="313" unicode="|" glyph-name="bar" d="M178 -182h-44v956h44v-956z"/>
<glyph horiz-adv-x="413" unicode="}" glyph-name="braceright" d="M74 781h111l54 -29l29 -55v-277l101 -104v-25l-101 -103v-305l-29 -56l-54 -29h-111v52h89l34 19l16 36v304l98 97l-98 97v272l-16 35l-34 19h-89v52z"/>
<glyph horiz-adv-x="665" unicode="~" glyph-name="asciitilde" d="M585 341l-48 -24l-71 -17h-50l-63 14l-67 22l-52 9h-32l-54 -14l-44 -23l-25 47l50 27l68 17h41l66 -11l72 -25l41 -9h48l45 11l48 25z"/>
<glyph horiz-adv-x="279" unicode="¡" glyph-name="exclamdown" d="M167 307v-491h-55v491h55zM186 430h-93v97h93v-97z"/>
<glyph horiz-adv-x="640" unicode="¢" glyph-name="cent" d="M504 418l-45 46l-56 17h-89l-65 -36l-52 -67l-17 -60v-110l18 -60l52 -70l71 -32h83l57 18l42 44l39 -39l-54 -54l-72 -23h-28v-99h-55v99h-26l-96 46l-66 89l-21 69v133l21 71l65 89l97 46h26v103h55v-103h29l73 -24l54 -54z"/>
<glyph horiz-adv-x="640" unicode="£" glyph-name="sterling" d="M140 -2l-11 50l29 8l64 46l40 75v67l-34 90h-111v44h95l-27 72l-15 88l17 92l60 61l83 28h96l77 -47l38 -51l-46 -31l-32 44l-53 31h-71l-65 -23l-36 -37l-12 -68l12 -71l33 -88h190v-44h-173l29 -78v-94l-41 -75l78 -41h82l73 15l45 21l25 -48l-53 -26l-87 -16h-101 l-101 55l-59 -41z"/>
<glyph horiz-adv-x="640" unicode="¤" glyph-name="currency" d="M538 263l-36 -49l74 -74l-38 -38l-73 73l-46 -32l-69 -22h-60l-69 22l-46 32l-73 -73l-38 38l74 74l-37 51l-20 66v54l20 67l37 50l-74 74l38 38l73 -73l46 32l69 22h60l69 -22l46 -32l73 73l38 -38l-74 -74l37 -51l20 -66v-54zM504 379l-18 58l-42 53l-48 33l-58 18h-36 l-58 -18l-48 -33l-42 -53l-18 -58v-42l18 -58l42 -52l48 -34l58 -18h36l58 18l48 34l42 52l18 58v42z"/>
<glyph horiz-adv-x="640" unicode="¥" glyph-name="yen" d="M506 711h64l-175 -266h122v-44h-151l-25 -38v-52h176v-44h-176v-267h-54v267h-164v44h164v52l-25 38h-139v44h110l-174 266h64l191 -294z"/>
<glyph horiz-adv-x="313" unicode="¦" glyph-name="brokenbar" d="M178 398h-44v376h44v-376zM178 -182h-44v376h44v-376z"/>
<glyph horiz-adv-x="549" unicode="§" glyph-name="section" d="M102 553l24 74l61 64l78 28h54l85 -26l52 -44l-31 -37l-45 37l-68 21h-38l-59 -21l-43 -48l-18 -51l13 -47l248 -179l55 -55l22 -61v-82l-23 -45l-30 -28l16 -74l-26 -63l-58 -65l-78 -28h-65l-84 26l-52 44l31 38l45 -38l68 -21h48l60 22l39 40l21 49l-11 44l-256 190 l-53 57l-19 55v56l27 45l37 29zM179 433l-51 -35l-12 -21v-37l13 -41l44 -47l224 -166l29 18l16 36v59l-15 44l-42 40z"/>
<glyph horiz-adv-x="415" unicode="¨" glyph-name="dieresis" d="M48 756h83v-89h-83v89zM283 756h83v-89h-83v89z"/>
<glyph horiz-adv-x="842" unicode="©" glyph-name="copyright" d="M483 211l19 13l14 15l33 -28l-16 -18l-25 -18l-52 -20h-59l-57 25l-35 35l-24 50l-11 48v85l11 49l23 47l38 37l55 25h59l52 -20l25 -18l16 -18l-33 -28l-14 15l-19 13l-36 13h-42l-37 -17l-26 -27l-16 -32l-11 -44v-75l11 -44l16 -32l26 -27l38 -17h41zM792 301 l-37 -109l-77 -105l-97 -66l-106 -37h-109l-108 38l-97 65l-76 106l-36 108v109l36 109l76 104l97 66l108 38h109l107 -38l96 -66l77 -105l37 -108v-109zM752 401l-34 101l-64 89l-92 63l-97 33h-90l-97 -33l-92 -63l-63 -89l-35 -101v-91l35 -101l63 -89l92 -63l97 -33h90 l97 33l92 63l64 89l34 101v91z"/>
<glyph horiz-adv-x="390" unicode="ª" glyph-name="ordfeminine" d="M268 477l-30 21l-37 13h-22l-39 -11l-28 -26l-6 -22v-19l14 -24l14 -9l35 -11h23l48 23l28 32v33zM268 390l-16 -15l-50 -24h-42l-39 12l-28 16l-29 43v31l9 38l45 44l58 14h36l36 -13l21 -16v59l-8 19l-18 18l-29 8h-43l-28 -6l-19 -8l-14 -11l-23 34l13 11l22 12l44 11 h46l41 -10l43 -28l14 -36v-194l19 -27l-33 -24z"/>
<glyph horiz-adv-x="538" unicode="«" glyph-name="guillemotleft" d="M108 309l132 -176l-43 -36l-140 190v44l140 189l43 -35zM330 309l132 -176l-43 -36l-140 190v44l140 189l43 -35z"/>
<glyph horiz-adv-x="600" unicode="¬" glyph-name="logicalnot" d="M510 364v-282h-50v232h-378v50h428z"/>
<glyph horiz-adv-x="480" unicode="­" glyph-name="softhyphen" d="M70 334h340v-50h-340v50z"/>
<glyph horiz-adv-x="842" unicode="®" glyph-name="registered" d="M792 301l-37 -109l-77 -105l-97 -66l-106 -37h-109l-108 38l-97 65l-76 106l-36 108v109l36 109l76 104l97 66l108 38h109l107 -38l96 -66l77 -105l37 -108v-109zM752 401l-34 101l-64 89l-92 63l-97 33h-90l-97 -33l-92 -63l-63 -89l-35 -101v-91l35 -101l63 -89l92 -63 l97 -33h90l97 33l92 63l64 89l34 101v91zM308 157l-1 395h159l51 -12l39 -40q4 -18 7 -26t9 -26q-6 -18 -8 -27l-6 -27l-25 -39l-46 -24l79 -174h-50l-77 172h-87v-172h-44zM351 371h119l32 19l13 19l9 35l-11 34l-18 20l-32 11h-112v-138z"/>
<glyph horiz-adv-x="428" unicode="¯" glyph-name="macron" d="M380 722v-49h-332v49h332z"/>
<glyph horiz-adv-x="454" unicode="°" glyph-name="degree" d="M368 527l-14 -32l-16 -23l-39 -31l-31 -13l-27 -6h-28l-27 6l-30 13l-40 31l-16 23l-14 31l-7 28v33l7 27l14 31l16 24l40 32l30 12l27 6h28l27 -6l30 -12l40 -32l16 -24l14 -31l7 -27v-33zM336 584l-5 22l-9 19l-17 21l-29 23l-21 9l-17 3h-22l-17 -3l-21 -9l-29 -23 l-17 -21l-9 -19l-5 -22v-26l5 -22l9 -20l17 -21l29 -23l21 -8l17 -4h22l17 4l21 8l29 23l17 21l9 20l5 22v26z"/>
<glyph horiz-adv-x="580" unicode="±" glyph-name="plusminus" d="M265 145v168h-189v50h189v189h50v-189h189v-50h-189v-168h-50zM76 50h428v-50h-428v50z"/>
<glyph horiz-adv-x="335" unicode="²" glyph-name="twosuperior" d="M62 698l29 29l55 22h58l56 -26l36 -53v-51l-24 -46l-130 -129h159v-50h-235v44l162 158l16 33v24l-21 33l-31 14h-36l-33 -14l-23 -24z"/>
<glyph horiz-adv-x="337" unicode="³" glyph-name="threesuperior" d="M125 572v37l67 88h-123v47h190v-34l-72 -96l45 -18l35 -34l16 -37v-38l-16 -41l-32 -33l-55 -24h-56l-52 20l-29 29l37 36l23 -23l30 -14h34l37 15l18 19l10 25v19l-8 20l-22 22l-44 15h-33z"/>
<glyph horiz-adv-x="302" unicode="´" glyph-name="acute" d="M60 670l161 114l28 -38l-161 -114z"/>
<glyph horiz-adv-x="585" unicode="µ" glyph-name="uni00B5" d="M263 46h70l64 43l55 61v377h56v-527h-55v75l-52 -46l-65 -37h-80l-58 16l-37 24v-194h-57v689h57v-426l52 -42z"/>
<glyph horiz-adv-x="580" unicode="¶" glyph-name="paragraph" d="M228 -162v497h-47l-71 25l-61 70l-22 60v66l22 61l62 69l70 25h364v-44h-89v-829h-45v829h-138v-829h-45zM228 667h-39l-53 -18l-47 -56l-17 -43v-53l17 -45l48 -55l53 -18h38v288z"/>
<glyph horiz-adv-x="279" unicode="·" glyph-name="periodcentered" d="M93 375h93v-97h-93v97z"/>
<glyph horiz-adv-x="249" unicode="¸" glyph-name="cedilla" d="M106 16l26 -7l-17 -53l70 -13l14 -33l-32 -69l-50 -22h-37l-25 11l13 29l19 -7h27l34 16l18 48l-88 19z"/>
<glyph horiz-adv-x="241" unicode="¹" glyph-name="onesuperior" d="M23 679l137 65h25v-350h-53v284l-87 -40z"/>
<glyph horiz-adv-x="376" unicode="º" glyph-name="ordmasculine" d="M156 351l-56 26l-30 44l-11 53v70l12 54l27 41l58 28h62l57 -28l28 -40l13 -55v-70l-12 -51l-30 -46l-56 -26h-62zM212 395l33 16l18 28l8 38v62l-4 32l-23 35l-36 17h-43l-35 -18l-21 -30l-6 -36v-60l9 -40l18 -28l34 -16h48z"/>
<glyph horiz-adv-x="538" unicode="»" glyph-name="guillemotright" d="M311 485l42 35l140 -189v-44l-140 -189l-43 35l132 176zM88 485l43 36l139 -190v-44l-139 -189l-43 35l132 176z"/>
<glyph horiz-adv-x="801" unicode="¼" glyph-name="onequarter" d="M129 15l508 710l37 -30l-508 -709zM71 651l137 65h25v-350h-53v284l-87 -40zM727 136v-46h-53v-90h-50v90h-158v35l163 225h45v-214h53zM624 267l-90 -131h90v131z"/>
<glyph horiz-adv-x="798" unicode="½" glyph-name="onehalf" d="M71 651l137 65h25v-350h-53v284l-87 -40zM129 15l508 710l37 -30l-508 -709zM477 304l29 29l55 22h58l56 -26l36 -53v-51l-24 -46l-130 -129h159v-50h-235v44l162 158l16 33v24l-21 33l-31 14h-36l-33 -14l-23 -24z"/>
<glyph horiz-adv-x="813" unicode="¾" glyph-name="threequarters" d="M727 136v-46h-53v-90h-50v90h-158v35l163 225h45v-214h53zM129 15l508 710l37 -30l-508 -709zM128 539v37l67 88h-123v47h190v-34l-72 -96l45 -18l35 -34l16 -37v-38l-16 -41l-32 -33l-55 -24h-56l-52 20l-29 29l37 36l23 -23l30 -14h34l37 15l18 19l10 25v19l-8 20 l-22 22l-44 15h-33zM624 267l-90 -131h90v131z"/>
<glyph horiz-adv-x="562" unicode="¿" glyph-name="questiondown" d="M178 63l-19 -39l-8 -52l13 -53l30 -35l61 -22h61l54 15l38 31l12 23l7 43l54 -11l-9 -47l-19 -42l-57 -45l-71 -21h-81l-80 31l-50 49l-19 85l13 70l26 51l85 69l48 76v68h55v-86l-57 -89zM341 430h-93v97h93v-97z"/>
<glyph horiz-adv-x="624" unicode="À" glyph-name="Agrave" d="M342 711l260 -711h-60l-78 223h-289l-80 -223h-59l260 711h46zM445 277l-126 367l-126 -367h252zM196 887l22 41l178 -97l-22 -41z"/>
<glyph horiz-adv-x="624" unicode="Á" glyph-name="Aacute" d="M342 711l260 -711h-60l-78 223h-289l-80 -223h-59l260 711h46zM445 277l-126 367l-126 -367h252zM256 790l-22 41l177 97l23 -41z"/>
<glyph horiz-adv-x="624" unicode="Â" glyph-name="Acircumflex" d="M342 711l260 -711h-60l-78 223h-289l-80 -223h-59l260 711h46zM445 277l-126 367l-126 -367h252zM340 931l142 -113l-30 -35l-134 109l-133 -109l-30 35l141 113h44z"/>
<glyph horiz-adv-x="624" unicode="Ã" glyph-name="Atilde" d="M342 711l260 -711h-60l-78 223h-289l-80 -223h-59l260 711h46zM445 277l-126 367l-126 -367h252zM264 838h-22l-35 -13l-19 -21l-4 -12l-40 14l5 15l15 25l23 18l48 21h36l44 -18l45 -26l12 -5h26l32 15l19 18l5 12l41 -14l-6 -17l-13 -23l-23 -18l-49 -21h-33l-36 14 l-49 30z"/>
<glyph horiz-adv-x="624" unicode="Ä" glyph-name="Adieresis" d="M342 711l260 -711h-60l-78 223h-289l-80 -223h-59l260 711h46zM445 277l-126 367l-126 -367h252zM159 915h81v-83h-81v83zM398 915h80v-83h-80v83z"/>
<glyph horiz-adv-x="624" unicode="Å" glyph-name="Aring" d="M342 711l260 -711h-60l-78 223h-289l-80 -223h-59l260 711h46zM445 277l-126 367l-126 -367h252zM219 880l9 30l33 38l40 14h32l40 -14l33 -38l9 -30v-35l-9 -30l-33 -38l-40 -14h-32l-40 14l-33 38l-9 30v35zM246 850l6 -21l23 -28l30 -11h24l30 11l23 28l6 22v24l-6 21 l-23 27l-30 12h-24l-30 -11l-23 -28l-6 -22v-24z"/>
<glyph horiz-adv-x="835" unicode="Æ" glyph-name="AE" d="M406 278v383l-184 -383h184zM406 223h-209l-106 -223h-58l344 711h405v-54h-321v-251h204v-54h-204v-298h321v-54h-376v223z"/>
<glyph horiz-adv-x="640" unicode="Ç" glyph-name="Ccedilla" d="M301 -6l-100 45l-66 66l-44 89l-20 86v151l20 88l45 90l65 63l105 47h110l98 -37l48 -37l30 -36l-40 -36l-26 33l-39 29l-81 30h-93l-80 -36l-51 -52l-40 -78l-15 -70v-146l15 -70l39 -75l53 -54l79 -38h93l81 30l39 29l26 33l40 -36l-30 -36l-48 -37l-98 -37h-87 l-11 -36l70 -13l14 -33l-32 -69l-50 -22h-37l-25 11l13 29l19 -7h27l34 16l18 48l-88 19z"/>
<glyph unicode="È" glyph-name="Egrave" d="M163 657v-251h262v-54h-262v-298h379v-54h-434v711h434v-54h-379zM202 887l22 41l178 -97l-22 -41z"/>
<glyph unicode="É" glyph-name="Eacute" d="M163 657v-251h262v-54h-262v-298h379v-54h-434v711h434v-54h-379zM262 790l-22 41l177 97l23 -41z"/>
<glyph unicode="Ê" glyph-name="Ecircumflex" d="M163 657v-251h262v-54h-262v-298h379v-54h-434v711h434v-54h-379zM346 931l142 -113l-30 -35l-134 109l-133 -109l-30 35l141 113h44z"/>
<glyph unicode="Ë" glyph-name="Edieresis" d="M163 657v-251h262v-54h-262v-298h379v-54h-434v711h434v-54h-379zM165 915h81v-83h-81v83zM404 915h80v-83h-80v83z"/>
<glyph horiz-adv-x="273" unicode="Ì" glyph-name="Igrave" d="M167 0h-55v711h55v-711zM20 887l22 41l178 -97l-22 -41z"/>
<glyph horiz-adv-x="273" unicode="Í" glyph-name="Iacute" d="M167 0h-55v711h55v-711zM80 790l-22 41l177 97l23 -41z"/>
<glyph horiz-adv-x="273" unicode="Î" glyph-name="Icircumflex" d="M167 0h-55v711h55v-711zM164 931l142 -113l-30 -35l-134 109l-133 -109l-30 35l141 113h44z"/>
<glyph horiz-adv-x="273" unicode="Ï" glyph-name="Idieresis" d="M167 0h-55v711h55v-711zM-17 915h81v-83h-81v83zM222 915h80v-83h-80v83z"/>
<glyph horiz-adv-x="683" unicode="Ð" glyph-name="Eth" d="M128 338h-75v45h75v328h255l109 -44l69 -69l43 -89l23 -89v-129l-23 -91l-43 -87l-69 -70l-109 -43h-255v338zM184 338v-284h189l91 38l50 51l38 77l20 73v125l-19 73l-38 75l-54 54l-87 37h-190v-274h175v-45h-175z"/>
<glyph horiz-adv-x="738" unicode="Ñ" glyph-name="Ntilde" d="M98 711h51l435 -635v635h56v-711h-70l-417 611v-611h-55v711zM312 838h-22l-35 -13l-19 -21l-4 -12l-40 14l5 15l15 25l23 18l48 21h36l44 -18l45 -26l12 -5h26l32 15l19 18l5 12l41 -14l-6 -17l-13 -23l-23 -18l-49 -21h-33l-36 14l-49 30z"/>
<glyph horiz-adv-x="704" unicode="Ò" glyph-name="Ograve" d="M297 -8l-105 47l-66 66l-44 89l-19 86v151l19 88l45 90l65 63l105 47h109l105 -47l65 -63l45 -90l20 -88v-151l-20 -86l-44 -89l-66 -66l-105 -47h-109zM307 46h92l79 38l53 54l39 75l16 70v146l-16 70l-40 78l-51 52l-80 36h-94l-81 -36l-51 -52l-39 -78l-16 -71v-146 l16 -68l38 -76l53 -54zM235 887l22 41l178 -97l-22 -41z"/>
<glyph horiz-adv-x="704" unicode="Ó" glyph-name="Oacute" d="M297 -8l-105 47l-66 66l-44 89l-19 86v151l19 88l45 90l65 63l105 47h109l105 -47l65 -63l45 -90l20 -88v-151l-20 -86l-44 -89l-66 -66l-105 -47h-109zM307 46h92l79 38l53 54l39 75l16 70v146l-16 70l-40 78l-51 52l-80 36h-94l-81 -36l-51 -52l-39 -78l-16 -71v-146 l16 -68l38 -76l53 -54zM296 790l-22 41l177 97l23 -41z"/>
<glyph horiz-adv-x="704" unicode="Ô" glyph-name="Ocircumflex" d="M297 -8l-105 47l-66 66l-44 89l-19 86v151l19 88l45 90l65 63l105 47h109l105 -47l65 -63l45 -90l20 -88v-151l-20 -86l-44 -89l-66 -66l-105 -47h-109zM307 46h92l79 38l53 54l39 75l16 70v146l-16 70l-40 78l-51 52l-80 36h-94l-81 -36l-51 -52l-39 -78l-16 -71v-146 l16 -68l38 -76l53 -54zM374 931l142 -113l-30 -35l-134 109l-133 -109l-30 35l141 113h44z"/>
<glyph horiz-adv-x="704" unicode="Õ" glyph-name="Otilde" d="M297 -8l-105 47l-66 66l-44 89l-19 86v151l19 88l45 90l65 63l105 47h109l105 -47l65 -63l45 -90l20 -88v-151l-20 -86l-44 -89l-66 -66l-105 -47h-109zM307 46h92l79 38l53 54l39 75l16 70v146l-16 70l-40 78l-51 52l-80 36h-94l-81 -36l-51 -52l-39 -78l-16 -71v-146 l16 -68l38 -76l53 -54zM297 838h-22l-35 -13l-19 -21l-4 -12l-40 14l5 15l15 25l23 18l48 21h36l44 -18l45 -26l12 -5h26l32 15l19 18l5 12l41 -14l-6 -17l-13 -23l-23 -18l-49 -21h-33l-36 14l-49 30z"/>
<glyph horiz-adv-x="704" unicode="Ö" glyph-name="Odieresis" d="M297 -8l-105 47l-66 66l-44 89l-19 86v151l19 88l45 90l65 63l105 47h109l105 -47l65 -63l45 -90l20 -88v-151l-20 -86l-44 -89l-66 -66l-105 -47h-109zM307 46h92l79 38l53 54l39 75l16 70v146l-16 70l-40 78l-51 52l-80 36h-94l-81 -36l-51 -52l-39 -78l-16 -71v-146 l16 -68l38 -76l53 -54zM193 915h81v-83h-81v83zM432 915h80v-83h-80v83z"/>
<glyph horiz-adv-x="580" unicode="×" glyph-name="multiply" d="M88 171l167 167l-167 167l34 35l167 -167l167 167l35 -35l-167 -167l167 -167l-35 -34l-167 167l-167 -167z"/>
<glyph horiz-adv-x="704" unicode="Ø" glyph-name="Oslash" d="M297 -8l-105 47l-8 8l-65 -102l-41 26l71 111l-23 23l-44 89l-19 86v151l19 88l45 90l65 63l105 47h109l105 -47l9 -9l65 103l41 -26l-71 -111l21 -20l45 -90l20 -88v-151l-20 -86l-44 -89l-66 -66l-105 -47h-109zM172 138l7 -8l311 487l-11 12l-80 36h-94l-81 -36 l-51 -52l-39 -78l-16 -71v-146l16 -68zM307 46h92l79 38l53 54l39 75l16 70v146l-16 70l-40 78l-5 5l-311 -488l11 -10z"/>
<glyph horiz-adv-x="709" unicode="Ù" glyph-name="Ugrave" d="M310 -8l-125 46l-70 91l-21 67v515h55v-503l16 -56l54 -71l100 -35h70l101 35l54 71l15 56v503h56v-515l-22 -68l-69 -90l-125 -46h-89zM230 887l22 41l178 -97l-22 -41z"/>
<glyph horiz-adv-x="709" unicode="Ú" glyph-name="Uacute" d="M310 -8l-125 46l-70 91l-21 67v515h55v-503l16 -56l54 -71l100 -35h70l101 35l54 71l15 56v503h56v-515l-22 -68l-69 -90l-125 -46h-89zM290 790l-22 41l177 97l23 -41z"/>
<glyph horiz-adv-x="709" unicode="Û" glyph-name="Ucircumflex" d="M310 -8l-125 46l-70 91l-21 67v515h55v-503l16 -56l54 -71l100 -35h70l101 35l54 71l15 56v503h56v-515l-22 -68l-69 -90l-125 -46h-89zM376 931l142 -113l-30 -35l-134 109l-133 -109l-30 35l141 113h44z"/>
<glyph horiz-adv-x="709" unicode="Ü" glyph-name="Udieresis" d="M310 -8l-125 46l-70 91l-21 67v515h55v-503l16 -56l54 -71l100 -35h70l101 35l54 71l15 56v503h56v-515l-22 -68l-69 -90l-125 -46h-89zM195 915h81v-83h-81v83zM434 915h80v-83h-80v83z"/>
<glyph horiz-adv-x="566" unicode="Ý" glyph-name="Yacute" d="M474 711h64l-229 -348v-363h-54v363l-228 348h64l191 -294zM225 790l-22 41l177 97l23 -41z"/>
<glyph horiz-adv-x="607" unicode="Þ" glyph-name="Thorn" d="M397 584l92 -24l72 -72l29 -95l-26 -98l-48 -68l-88 -45h-265v-182h-56v711h56v-127h234zM163 236h246l69 33l35 52l19 67l-20 71l-51 52l-66 18h-232v-293z"/>
<glyph horiz-adv-x="600" unicode="ß" glyph-name="germandbls" d="M386 0h-94v55h79l65 33l37 39l22 82l-13 61l-33 46l-80 48h-85v56h34l62 37l30 34l17 54l-15 66l-40 43l-77 22l-61 -9l-49 -45l-27 -59v-615h-56v624l36 83l72 65l93 11l102 -28l57 -64l22 -94l-19 -70l-23 -35l-40 -31l85 -53l46 -60l21 -87l-29 -109l-52 -55z"/>
<glyph horiz-adv-x="565" unicode="à" glyph-name="agrave" d="M182 468l-34 -21l-18 -17l-38 38l25 24l43 26l58 17h94l79 -20l67 -46l26 -66v-322l35 -51l-46 -32l-49 73l-39 -34l-90 -45h-60l-68 20l-48 27l-54 78v57l14 65l72 72l101 25h62l65 -22l49 -34v112l-15 42l-52 34l-53 12h-81zM415 129l13 31v52l-27 29l-42 25l-50 15 h-52l-80 -21l-46 -47l-10 -42v-37l37 -53l30 -17l56 -17h36l80 32zM350 632l-162 114l28 38l160 -115z"/>
<glyph horiz-adv-x="565" unicode="á" glyph-name="aacute" d="M182 468l-34 -21l-18 -17l-38 38l25 24l43 26l58 17h94l79 -20l67 -46l26 -66v-322l35 -51l-46 -32l-49 73l-39 -34l-90 -45h-60l-68 20l-48 27l-54 78v57l14 65l72 72l101 25h62l65 -22l49 -34v112l-15 42l-52 34l-53 12h-81zM415 129l13 31v52l-27 29l-42 25l-50 15 h-52l-80 -21l-46 -47l-10 -42v-37l37 -53l30 -17l56 -17h36l80 32zM228 670l161 114l28 -38l-161 -114z"/>
<glyph horiz-adv-x="565" unicode="â" glyph-name="acircumflex" d="M182 468l-34 -21l-18 -17l-38 38l25 24l43 26l58 17h94l79 -20l67 -46l26 -66v-322l35 -51l-46 -32l-49 73l-39 -34l-90 -45h-60l-68 20l-48 27l-54 78v57l14 65l72 72l101 25h62l65 -22l49 -34v112l-15 42l-52 34l-53 12h-81zM415 129l13 31v52l-27 29l-42 25l-50 15 h-52l-80 -21l-46 -47l-10 -42v-37l37 -53l30 -17l56 -17h36l80 32zM431 644l-125 104l-126 -104l-30 35l134 108h44l133 -107z"/>
<glyph horiz-adv-x="565" unicode="ã" glyph-name="atilde" d="M182 468l-34 -21l-18 -17l-38 38l25 24l43 26l58 17h94l79 -20l67 -46l26 -66v-322l35 -51l-46 -32l-49 73l-39 -34l-90 -45h-60l-68 20l-48 27l-54 78v57l14 65l72 72l101 25h62l65 -22l49 -34v112l-15 42l-52 34l-53 12h-81zM415 129l13 31v52l-27 29l-42 25l-50 15 h-52l-80 -21l-46 -47l-10 -42v-37l37 -53l30 -17l56 -17h36l80 32zM123 668l8 16l36 34l53 21h43l37 -14l40 -24l31 -11h21l25 10l19 15l6 19l45 -13l-5 -18l-12 -21l-28 -25l-37 -15l-42 -2l-40 14l-60 36h-35l-36 -14l-20 -18l-4 -8z"/>
<glyph horiz-adv-x="565" unicode="ä" glyph-name="adieresis" d="M182 468l-34 -21l-18 -17l-38 38l25 24l43 26l58 17h94l79 -20l67 -46l26 -66v-322l35 -51l-46 -32l-49 73l-39 -34l-90 -45h-60l-68 20l-48 27l-54 78v57l14 65l72 72l101 25h62l65 -22l49 -34v112l-15 42l-52 34l-53 12h-81zM415 129l13 31v52l-27 29l-42 25l-50 15 h-52l-80 -21l-46 -47l-10 -42v-37l37 -53l30 -17l56 -17h36l80 32zM146 754h83v-89h-83v89zM381 754h83v-89h-83v89z"/>
<glyph horiz-adv-x="565" unicode="å" glyph-name="aring" d="M182 468l-34 -21l-18 -17l-38 38l25 24l43 26l58 17h94l79 -20l67 -46l26 -66v-322l35 -51l-46 -32l-49 73l-39 -34l-90 -45h-60l-68 20l-48 27l-54 78v57l14 65l72 72l101 25h62l65 -22l49 -34v112l-15 42l-52 34l-53 12h-81zM415 129l13 31v52l-27 29l-42 25l-50 15 h-52l-80 -21l-46 -47l-10 -42v-37l37 -53l30 -17l56 -17h36l80 32zM414 719l-12 -32l-36 -41l-43 -15h-36l-43 15l-36 41l-12 32v44l12 34l35 39l44 16h36l43 -16l36 -39l12 -34v-44zM349 672l25 29l9 24v33l-9 24l-25 28l-27 12h-34l-27 -12l-25 -28l-9 -24v-33l9 -24 l25 -29l27 -11h34z"/>
<glyph horiz-adv-x="886" unicode="æ" glyph-name="ae" d="M185 468l-34 -21l-18 -17l-38 38l25 24l43 26l58 17h94l75 -18l75 -52l18 24l98 46h76l100 -46l68 -95l22 -62v-96h-397v-27l16 -54l54 -72l72 -36h58l75 19l44 26l30 -42l-52 -34l-96 -24h-70l-97 46l-40 54l-57 -55l-89 -45h-60l-68 20l-48 27l-54 78v57l14 65l72 72 l101 25h62l74 -24l24 86l9 16l-8 20l-52 34l-53 12h-81zM791 292v31l-16 46l-54 73l-72 38h-60l-71 -37l-53 -71l-15 -54v-26h341zM394 201v51l-31 14l-51 15h-52l-80 -21l-46 -47l-10 -42v-37l37 -53l30 -17l56 -17h36l77 31l54 52z"/>
<glyph horiz-adv-x="513" unicode="ç" glyph-name="ccedilla" d="M245 -6l-94 44l-71 96l-20 67v122l20 70l71 96l97 46h87l73 -24l56 -56l-39 -36l-43 44l-57 17h-69l-71 -37l-53 -71l-15 -58v-102l16 -57l54 -72l72 -36h68l52 18l45 43l39 -38l-56 -55l-73 -23h-61l-11 -36l70 -13l14 -33l-32 -69l-50 -22h-37l-25 11l13 29l19 -7h27 l34 16l18 48l-88 19z"/>
<glyph horiz-adv-x="574" unicode="è" glyph-name="egrave" d="M126 209l16 -54l54 -72l72 -36h70l75 19l44 26l30 -42l-52 -34l-96 -24h-82l-97 46l-71 96l-19 67v122l19 70l71 96l97 46h88l100 -46l68 -95l22 -62v-96h-409v-27zM479 292v31l-16 46l-54 73l-72 38h-72l-71 -37l-53 -71l-15 -54v-26h353zM344 632l-162 114l28 38 l160 -115z"/>
<glyph horiz-adv-x="574" unicode="é" glyph-name="eacute" d="M126 209l16 -54l54 -72l72 -36h70l75 19l44 26l30 -42l-52 -34l-96 -24h-82l-97 46l-71 96l-19 67v122l19 70l71 96l97 46h88l100 -46l68 -95l22 -62v-96h-409v-27zM479 292v31l-16 46l-54 73l-72 38h-72l-71 -37l-53 -71l-15 -54v-26h353zM222 670l161 114l28 -38 l-161 -114z"/>
<glyph horiz-adv-x="574" unicode="ê" glyph-name="ecircumflex" d="M126 209l16 -54l54 -72l72 -36h70l75 19l44 26l30 -42l-52 -34l-96 -24h-82l-97 46l-71 96l-19 67v122l19 70l71 96l97 46h88l100 -46l68 -95l22 -62v-96h-409v-27zM479 292v31l-16 46l-54 73l-72 38h-72l-71 -37l-53 -71l-15 -54v-26h353zM428 644l-125 104l-126 -104 l-30 35l134 108h44l133 -107z"/>
<glyph horiz-adv-x="574" unicode="ë" glyph-name="edieresis" d="M126 209l16 -54l54 -72l72 -36h70l75 19l44 26l30 -42l-52 -34l-96 -24h-82l-97 46l-71 96l-19 67v122l19 70l71 96l97 46h88l100 -46l68 -95l22 -62v-96h-409v-27zM479 292v31l-16 46l-54 73l-72 38h-72l-71 -37l-53 -71l-15 -54v-26h353zM143 754h83v-89h-83v89z M378 754h83v-89h-83v89z"/>
<glyph horiz-adv-x="263" unicode="ì" glyph-name="igrave" d="M103 527h56v-527h-56v527zM177 632l-162 114l28 38l160 -115z"/>
<glyph horiz-adv-x="263" unicode="í" glyph-name="iacute" d="M103 527h56v-527h-56v527zM55 670l161 114l28 -38l-161 -114z"/>
<glyph horiz-adv-x="263" unicode="î" glyph-name="icircumflex" d="M103 527h56v-527h-56v527zM257 644l-125 104l-126 -104l-30 35l134 108h44l133 -107z"/>
<glyph horiz-adv-x="263" unicode="ï" glyph-name="idieresis" d="M103 527h56v-527h-56v527zM-28 754h83v-89h-83v89zM207 754h83v-89h-83v89z"/>
<glyph horiz-adv-x="571" unicode="ð" glyph-name="eth" d="M457 709l-111 -62l139 -253l24 -110v-114l-26 -64l-48 -68l-92 -46h-117l-91 46l-48 68l-26 64v111l25 63l49 67l90 50h114l83 -49l-120 208l-116 -64l-16 29l115 65l-56 92l48 29l52 -96l111 63zM327 407h-88l-67 -39l-34 -48l-21 -52v-87l22 -53l33 -44l70 -38h85 l71 37l34 48l21 49v98l-20 56l-44 45z"/>
<glyph horiz-adv-x="586" unicode="ñ" glyph-name="ntilde" d="M150 452l51 46l64 37h93l86 -22l59 -78v-435h-56v410l-32 51l-69 19h-78l-62 -42l-56 -61v-377h-56v527h56v-75zM116 668l8 16l36 34l53 21h43l37 -14l40 -24l31 -11h21l25 10l19 15l6 19l45 -13l-5 -18l-12 -21l-28 -25l-37 -15l-42 -2l-40 14l-60 36h-35l-36 -14 l-20 -18l-4 -8z"/>
<glyph horiz-adv-x="558" unicode="ò" glyph-name="ograve" d="M325 46l68 32l38 58l14 72v112l-14 71l-38 53l-69 36h-89l-72 -36l-34 -52l-15 -72v-112l14 -72l38 -58l68 -32h91zM227 -8l-100 46l-48 71l-21 92v123l21 93l48 70l99 48h108l98 -48l48 -70l21 -93v-123l-21 -92l-48 -71l-100 -46h-105zM328 632l-162 114l28 38 l160 -115z"/>
<glyph horiz-adv-x="558" unicode="ó" glyph-name="oacute" d="M325 46l68 32l38 58l14 72v112l-14 71l-38 53l-69 36h-89l-72 -36l-34 -52l-15 -72v-112l14 -72l38 -58l68 -32h91zM227 -8l-100 46l-48 71l-21 92v123l21 93l48 70l99 48h108l98 -48l48 -70l21 -93v-123l-21 -92l-48 -71l-100 -46h-105zM206 670l161 114l28 -38 l-161 -114z"/>
<glyph horiz-adv-x="558" unicode="ô" glyph-name="ocircumflex" d="M325 46l68 32l38 58l14 72v112l-14 71l-38 53l-69 36h-89l-72 -36l-34 -52l-15 -72v-112l14 -72l38 -58l68 -32h91zM227 -8l-100 46l-48 71l-21 92v123l21 93l48 70l99 48h108l98 -48l48 -70l21 -93v-123l-21 -92l-48 -71l-100 -46h-105zM411 644l-125 104l-126 -104 l-30 35l134 108h44l133 -107z"/>
<glyph horiz-adv-x="558" unicode="õ" glyph-name="otilde" d="M325 46l68 32l38 58l14 72v112l-14 71l-38 53l-69 36h-89l-72 -36l-34 -52l-15 -72v-112l14 -72l38 -58l68 -32h91zM227 -8l-100 46l-48 71l-21 92v123l21 93l48 70l99 48h108l98 -48l48 -70l21 -93v-123l-21 -92l-48 -71l-100 -46h-105zM103 668l8 16l36 34l53 21h43 l37 -14l40 -24l31 -11h21l25 10l19 15l6 19l45 -13l-5 -18l-12 -21l-28 -25l-37 -15l-42 -2l-40 14l-60 36h-35l-36 -14l-20 -18l-4 -8z"/>
<glyph horiz-adv-x="558" unicode="ö" glyph-name="odieresis" d="M325 46l68 32l38 58l14 72v112l-14 71l-38 53l-69 36h-89l-72 -36l-34 -52l-15 -72v-112l14 -72l38 -58l68 -32h91zM227 -8l-100 46l-48 71l-21 92v123l21 93l48 70l99 48h108l98 -48l48 -70l21 -93v-123l-21 -92l-48 -71l-100 -46h-105zM126 756h83v-89h-83v89zM361 756 h83v-89h-83v89z"/>
<glyph horiz-adv-x="580" unicode="÷" glyph-name="divide" d="M70 364h440v-50h-440v50zM243 202h93v-91h-93v91zM243 567h93v-91h-93v91z"/>
<glyph horiz-adv-x="558" unicode="ø" glyph-name="oslash" d="M227 -8l-73 33l-49 -80l-35 21l50 82l-41 61l-21 92v123l21 93l48 70l99 48h108l66 -33l48 78l35 -21l-48 -77l45 -65l21 -93v-123l-21 -92l-48 -71l-100 -46h-105zM325 46l68 32l38 58l14 72v112l-14 71l-28 38l-221 -359l52 -24h91zM128 136l24 -37l219 356l-47 25h-89 l-72 -36l-34 -52l-15 -72v-112z"/>
<glyph unicode="ù" glyph-name="ugrave" d="M318 46l64 43l55 61v377h56v-527h-55v75l-52 -46l-65 -37h-80l-88 22l-64 81v432h56v-410l37 -54l66 -17h70zM333 632l-162 114l28 38l160 -115z"/>
<glyph unicode="ú" glyph-name="uacute" d="M318 46l64 43l55 61v377h56v-527h-55v75l-52 -46l-65 -37h-80l-88 22l-64 81v432h56v-410l37 -54l66 -17h70zM211 670l161 114l28 -38l-161 -114z"/>
<glyph unicode="û" glyph-name="ucircumflex" d="M318 46l64 43l55 61v377h56v-527h-55v75l-52 -46l-65 -37h-80l-88 22l-64 81v432h56v-410l37 -54l66 -17h70zM417 644l-125 104l-126 -104l-30 35l134 108h44l133 -107z"/>
<glyph unicode="ü" glyph-name="udieresis" d="M318 46l64 43l55 61v377h56v-527h-55v75l-52 -46l-65 -37h-80l-88 22l-64 81v432h56v-410l37 -54l66 -17h70zM132 754h83v-89h-83v89zM367 754h83v-89h-83v89z"/>
<glyph horiz-adv-x="552" unicode="ý" glyph-name="yacute" d="M276 122l179 405h62l-312 -689h-58l100 220l-212 469h63zM207 670l161 114l28 -38l-161 -114z"/>
<glyph horiz-adv-x="594" unicode="þ" glyph-name="thorn" d="M208 496l63 39h87l104 -47l70 -95l19 -67v-122l-19 -70l-71 -96l-99 -46h-88l-59 22l-52 32v-208h-56v813h56v-200zM190 90l45 -28l49 -16h72l70 38l54 71l15 58v103l-15 56l-55 73l-72 35h-78l-71 -49l-41 -50v-263z"/>
</font>
</defs>
</svg>
