<?xml version="1.0" encoding="UTF-8" standalone="no"?>
<!DOCTYPE svg  PUBLIC '-//W3C//DTD SVG 1.1//EN'  'http://www.w3.org/Graphics/SVG/1.1/DTD/svg11.dtd'>
<svg xmlns="http://www.w3.org/2000/svg" version="1.1">
<defs>
<font id="indrettext-BoldItalic" horiz-adv-x="581">
<font-face underline-position="-150" cap-height="711" font-weight="700" unicode-range="U+0020-00FE" ascent="770" units-per-em="1000" slope="-96" font-family="indrettext" underline-thickness="50" bbox="-142 -202 938 962" font-style="italic" x-height="527" descent="-230" panose-1="0 0 0 0 0 0 0 0 0 0"/>
<missing-glyph/>
<glyph horiz-adv-x="295" unicode=" " glyph-name="space"/>
<glyph d="M70 211l106 500h108l-106 -500h-108zM39 147h142l-31 -147h-142z" horiz-adv-x="279" unicode="!" glyph-name="exclam"/>
<glyph d="M271 711h100l-58 -275h-100zM113 711h100l-58 -275h-100z" horiz-adv-x="345" unicode='&quot;' glyph-name="quotedbl"/>
<glyph d="M659 519h111l-19 -89h-139l-78 -149h126l-19 -89h-153l-107 -206l-79 32l90 174h-136l-107 -206l-79 32l91 174h-111l19 89h139l78 149h-127l19 89h154l106 206l81 -31l-92 -175h136l106 206l81 -31zM303 281h135l78 149h-135z" horiz-adv-x="768" unicode="#" glyph-name="numbersign"/>
<glyph d="M627 642l-77 -94l-55 41l-74 22h-63l-54 -16l-38 -33l-21 -40v-39l5 -16l40 -31l183 -56l69 -55l15 -79l-21 -100l-33 -56l-66 -61l-121 -37l-22 -103h-108l22 103h-5l-83 32l-54 44l-27 40l94 67l21 -30l33 -25l54 -20h83l70 25l22 22l18 25l11 52l-8 31l-33 27l-188 59 l-61 50l-22 54l4 86l40 88l81 69l105 30l23 108h110l-24 -111l84 -27z" horiz-adv-x="640" unicode="$" glyph-name="dollar"/>
<glyph d="M104 31l648 698l55 -47l-650 -700zM200 308l-48 23l-31 39l-11 48l-2 42l13 75l16 41l29 47l45 39l56 23h57l47 -23l30 -39l11 -47l2 -41l-13 -75l-16 -42l-29 -48l-44 -39l-55 -23h-57zM276 397l20 16l12 24l13 30l11 60l-2 29l-4 22l-17 19l-17 10h-21l-22 -10l-24 -20 l-12 -21l-12 -29l-11 -61l3 -29l4 -24l15 -15l21 -11h20zM590 32l-48 23l-31 39l-11 48l-2 42l13 75l16 41l29 47l45 39l56 23h57l47 -23l30 -39l11 -47l2 -41l-13 -75l-16 -42l-29 -48l-44 -39l-55 -23h-57zM666 121l20 16l12 24l13 30l11 60l-2 29l-4 22l-17 19l-17 10 h-21l-22 -10l-24 -20l-12 -21l-12 -29l-11 -61l3 -29l4 -24l15 -15l21 -11h20z" horiz-adv-x="894" unicode="%" glyph-name="percent"/>
<glyph d="M390 147l-107 165l-87 -46l-28 -33l-11 -51l4 -35l30 -38l35 -9h61l46 10l22 11zM298 503l34 -53l58 30l39 32l17 27l5 24l-3 22l-21 19l-22 7h-30l-37 -7l-26 -21l-12 -21l-6 -28zM589 49l-93 -69l-55 85l-37 -32l-57 -26l-68 -15h-92l-67 22l-64 78l-9 79l18 96l71 79 l95 49l-38 57l-12 62l10 67l40 72l81 52l69 14h56l54 -15l57 -53l15 -70l-12 -71l-44 -64l-74 -53l-48 -27l77 -123l29 64l10 47h109l-12 -55l-42 -100l-35 -47z" horiz-adv-x="658" unicode="&amp;" glyph-name="ampersand"/>
<glyph d="M103 711h100l-58 -275h-100z" horiz-adv-x="183" unicode="&apos;" glyph-name="quotesingle"/>
<glyph d="M163 240v-152l21 -115l43 -91l-95 -58l-50 105l-27 127v170l33 156l69 173l79 121l95 103l76 -65l-83 -90l-68 -108l-63 -149z" horiz-adv-x="348" unicode="(" glyph-name="parenleft"/>
<glyph d="M214 360v152l-21 115l-43 91l95 58l50 -105l27 -127v-170l-33 -156l-69 -173l-78 -121l-94 -103l-78 65l83 90l68 108l63 149z" horiz-adv-x="348" unicode=")" glyph-name="parenright"/>
<glyph d="M330 325l-53 100l-94 -100l-67 57l95 101l-108 39l45 87l107 -39l26 125h98l-26 -125l121 38l14 -89l-125 -39l53 -100z" horiz-adv-x="514" unicode="*" glyph-name="asterisk"/>
<glyph d="M212 106l40 186h-174l20 95h174l40 186h100l-40 -186h174l-20 -95h-174l-40 -186h-100z" horiz-adv-x="580" unicode="+" glyph-name="plus"/>
<glyph d="M76 19l26 120h135l-27 -125l-121 -148l-45 30l77 104z" horiz-adv-x="279" unicode="," glyph-name="comma"/>
<glyph d="M85 356h340l-20 -95h-340z" horiz-adv-x="480" unicode="-" glyph-name="hyphen"/>
<glyph d="M87 139h135l-30 -139h-135z" horiz-adv-x="279" unicode="." glyph-name="period"/>
<glyph d="M99 -18l-85 39l372 708l86 -39z" horiz-adv-x="441" unicode="/" glyph-name="slash"/>
<glyph d="M209 -8l-82 47l-54 71l-18 87v87l29 148l35 90l54 87l85 71l106 39h98l83 -49l56 -71l18 -86l-3 -86l-31 -143l-34 -93l-54 -87l-87 -71l-103 -41h-98zM363 125l54 45l32 54l31 72l26 123v67l-9 56l-35 43l-47 26h-50l-60 -26l-52 -43l-33 -56l-28 -67l-25 -123l-3 -72 l11 -53l33 -46l47 -25h51z" horiz-adv-x="643" unicode="0" glyph-name="zero"/>
<glyph d="M60 585l276 126h64l-151 -711h-112l120 565l-169 -78z" horiz-adv-x="395" unicode="1" glyph-name="one"/>
<glyph d="M86 617l68 57l116 45h107l94 -57l47 -106l-18 -98l-63 -91l-295 -260h290l-23 -107h-444l20 94l372 335l39 54l9 45l-21 55l-53 28h-61l-71 -30l-51 -44z" horiz-adv-x="505" unicode="2" glyph-name="two"/>
<glyph d="M204 357l18 82l154 165h-226l23 107h370l-19 -88l-169 -178l73 -34l55 -69l15 -77l-16 -75l-42 -82l-82 -72l-119 -44h-111l-87 43l-51 59l93 76l35 -45l54 -25h64l74 30l41 35l25 41l9 42l-7 39l-28 38l-72 32h-74z" horiz-adv-x="541" unicode="3" glyph-name="three"/>
<glyph d="M529 284l-23 -107h-103l-38 -177h-110l38 177h-308l18 83l415 451h99l-91 -427h103zM364 510l-213 -226h165z" horiz-adv-x="551" unicode="4" glyph-name="four"/>
<glyph d="M158 333l-68 59l112 319h353l-23 -107h-256l-54 -146l13 4h119l85 -39l56 -70l15 -79l-18 -84l-44 -83l-81 -72l-119 -43h-110l-88 43l-50 58l92 77l35 -45l55 -25h64l74 30l41 36l25 41l11 49l-6 37l-33 42l-47 20h-85z" horiz-adv-x="566" unicode="5" glyph-name="five"/>
<glyph d="M176 287l-15 -73l4 -49l19 -37l50 -28h69l62 28l28 31l25 45l13 60l-4 35l-19 38l-48 29h-53l-66 -26l-48 -34zM220 439l91 34h95l93 -57l38 -77l4 -62l-18 -87l-32 -72l-70 -75l-117 -51h-118l-90 55l-40 77l-6 76l61 288l42 93l89 90l117 48h100l91 -50l45 -51l-92 -76 l-31 39l-59 30h-52l-65 -28l-52 -52l-28 -60l-9 -42z" horiz-adv-x="580" unicode="6" glyph-name="six"/>
<glyph d="M-5 0l403 604h-301l23 107h430l-18 -85l-411 -626h-126z" horiz-adv-x="467" unicode="7" glyph-name="seven"/>
<glyph d="M401 448l34 28l15 28l9 42l-4 31l-20 20l-50 14h-49l-56 -14l-28 -20l-18 -31l-9 -42l4 -29l21 -28l33 -10h83zM255 331l-40 -14l-42 -35l-17 -34l-13 -61v-38l28 -33l47 -16h67l56 16l40 33l17 35l14 63l-4 34l-27 36l-35 14h-91zM503 167l-38 -79l-84 -68l-106 -28h-92 l-88 32l-57 68l-8 77l20 92l41 77l64 51l-26 29l-15 69l14 73l41 80l75 53l102 26h76l86 -30l52 -53l11 -76l-15 -73l-45 -73l-41 -31l41 -48l12 -74z" horiz-adv-x="583" unicode="8" glyph-name="eight"/>
<glyph d="M439 424l15 73l-4 49l-19 37l-50 28h-69l-62 -28l-28 -31l-25 -45l-13 -60l4 -35l19 -38l48 -29h53l66 26l48 34zM395 272l-91 -34h-95l-93 57l-38 77l-4 62l18 87l32 72l70 75l117 51h118l90 -55l40 -77l6 -76l-61 -288l-42 -93l-89 -90l-117 -48h-100l-91 50l-45 51 l92 76l31 -39l59 -30h52l65 28l52 52l28 60l9 42z" horiz-adv-x="580" unicode="9" glyph-name="nine"/>
<glyph d="M77 139h135l-30 -139h-135zM157 519h135l-29 -139h-135z" horiz-adv-x="309" unicode=":" glyph-name="colon"/>
<glyph d="M158 519h135l-30 -139h-135zM51 19l26 120h135l-27 -125l-121 -148l-45 30l77 104z" horiz-adv-x="309" unicode=";" glyph-name="semicolon"/>
<glyph d="M161 266l252 -170l-59 -75l-307 208l18 87l384 202l35 -81z" horiz-adv-x="500" unicode="&lt;" glyph-name="less"/>
<glyph d="M115 467h448l-20 -95h-448zM81 306h448l-20 -95h-448z" horiz-adv-x="580" unicode="=" glyph-name="equal"/>
<glyph d="M357 274l-252 170l59 75l307 -208l-18 -87l-384 -202l-35 81z" horiz-adv-x="500" unicode="&gt;" glyph-name="greater"/>
<glyph d="M396 471l19 29l16 37l-2 39l-12 19l-41 16h-44l-50 -13l-26 -19l-10 -14l-22 -60l-103 17l29 77l34 50l71 49l84 21h76l78 -36l48 -59v-83l-28 -74l-42 -59l-91 -64l-52 -60l-15 -73h-108l23 111l77 90zM174 147h142l-31 -147h-142z" horiz-adv-x="562" unicode="?" glyph-name="question"/>
<glyph d="M512 200l-6 8l-21 13l-31 9h-27l-46 -11l-32 -28l-7 -14l-3 -18l12 -25l14 -7l28 -10h25l40 16l40 30l9 10zM625 102l38 28l49 73l20 93l-4 95l-35 70q-10 7 -28 23q-13 12 -30 24l-81 19h-98l-88 -28l-89 -55l-74 -78l-46 -83l-17 -83l10 -83l21 -39l21 -39 q22 -18 32 -27q15 -14 33 -27l76 -28h80l95 32l23 -76l-124 -42h-105l-102 41l-80 67l-53 101l-15 109l23 113l62 113l95 99l110 66l118 34h123l98 -27l79 -63l53 -100l7 -110l-27 -128l-73 -113l-93 -57h-63l-45 34l-14 28l-25 -19l-67 -28h-55l-47 18l-36 25l-29 60l10 56 l25 50l70 54l79 21h49l44 -16l8 -5l6 33l-3 18l-20 17l-30 7h-51l-24 -7l-32 -17l-20 -17l-47 61l29 23l50 28l48 14h73l53 -14l50 -41l13 -54l-46 -216l19 -27h24z" horiz-adv-x="840" unicode="@" glyph-name="at"/>
<glyph d="M73 0h-119l410 711h83l108 -711h-111l-24 178h-247zM233 285h172l-33 247z" horiz-adv-x="624" unicode="A" glyph-name="A"/>
<glyph d="M399 126l30 27l24 52v59l-14 32l-38 27h-201l-46 -216h201zM170 711h299l90 -28l55 -74v-99l-37 -81l-46 -47l-22 -10l17 -11l36 -58v-100l-44 -101l-71 -69l-91 -33h-337zM259 604l-36 -173h204l48 28l11 12l21 43v43l-24 33l-41 14h-183z" horiz-adv-x="639" unicode="B" glyph-name="B"/>
<glyph d="M224 -8l-93 49l-56 69l-26 87v85l27 144l37 90l60 87l87 70l115 46h111l97 -42l38 -35l40 -56l-94 -74l-32 48l-22 21l-62 30h-74l-69 -29l-55 -44l-39 -56l-29 -65l-25 -122v-65l17 -58l34 -42l57 -30h74l77 30l30 21l51 48l65 -74l-60 -57l-53 -36l-117 -40h-111z" horiz-adv-x="640" unicode="C" glyph-name="C"/>
<glyph d="M292 107l79 31l52 43l39 56l34 69l21 99l-3 69l-17 58l-34 42l-66 30h-138l-105 -497h138zM170 711h263l106 -49l58 -70l25 -87l3 -83l-27 -136l-38 -88l-64 -86l-83 -68l-125 -44h-269z" horiz-adv-x="663" unicode="D" glyph-name="D"/>
<glyph d="M260 604l-36 -173h240l-23 -108h-240l-46 -216h344l-23 -107h-457l151 711h457l-23 -107h-344z" unicode="E" glyph-name="E"/>
<glyph d="M259 604l-36 -173h228l-23 -108h-228l-69 -323h-112l151 711h434l-23 -107h-322z" horiz-adv-x="537" unicode="F" glyph-name="F"/>
<glyph d="M539 564l-27 24l-63 23h-72l-69 -29l-54 -44l-40 -56l-28 -65l-26 -122v-65l18 -58l33 -42l57 -30h74l56 23l49 35l37 46l14 30l7 33h-167l23 107h275l-31 -150l-24 -60l-60 -76l-84 -58l-97 -38h-116l-93 49l-56 71l-26 85v85l26 147l38 87l60 87l87 70l115 46h111 l96 -39l43 -38l38 -56l-96 -70z" horiz-adv-x="677" unicode="G" glyph-name="G"/>
<glyph d="M500 431l59 280h113l-151 -711h-113l69 323h-277l-69 -323h-112l151 711h112l-59 -280h277z" horiz-adv-x="679" unicode="H" glyph-name="H"/>
<glyph d="M121 0h-112l151 711h112z" horiz-adv-x="273" unicode="I" glyph-name="I"/>
<glyph d="M44 20l-62 77v99l108 29v-75l30 -41l26 -9h34l27 10l49 41l25 54l107 506h112l-111 -525l-44 -95l-85 -71l-76 -28h-76z" horiz-adv-x="503" unicode="J" glyph-name="J"/>
<glyph d="M593 0h-128l-154 338l-131 -114l-48 -224h-113l151 711h113l-69 -328l373 328h158l-345 -299z" horiz-adv-x="665" unicode="K" glyph-name="K"/>
<glyph d="M164 107h307l-23 -107h-419l151 711h112z" horiz-adv-x="522" unicode="L" glyph-name="L"/>
<glyph d="M711 711h116l-151 -711h-113l96 446l-244 -370h-99l-89 371l-95 -447h-113l151 711h101l119 -493z" horiz-adv-x="840" unicode="M" glyph-name="M"/>
<glyph d="M170 711h89l246 -523l111 523h113l-151 -711h-109l-231 498l-106 -498h-113z" horiz-adv-x="738" unicode="N" glyph-name="N"/>
<glyph d="M224 -8l-95 53l-53 69l-27 85v83l30 147l35 87l60 87l86 70l117 46h112l93 -50l59 -70l27 -85v-85l-31 -147l-33 -87l-62 -89l-85 -69l-118 -45h-115zM270 100h69l72 30l51 42l42 58l28 65l26 122v65l-18 56l-34 44l-58 29h-71l-69 -29l-54 -44l-40 -56l-29 -66l-25 -122 v-61l18 -60l33 -43z" horiz-adv-x="704" unicode="O" glyph-name="O"/>
<glyph d="M191 284l-60 -284h-112l151 711h300l88 -26l62 -76l6 -105l-43 -100l-67 -73l-105 -47h-220zM214 391h190l56 25l32 35l26 52l-3 50l-29 35l-49 16h-178z" horiz-adv-x="612" unicode="P" glyph-name="P"/>
<glyph d="M224 -8l-95 53l-53 69l-27 85v83l30 147l35 87l60 87l86 70l117 46h112l93 -50l59 -70l27 -85v-85l-31 -147l-33 -87l-62 -89l-45 -37l30 -46l-95 -71l-39 60l-54 -20h-115zM270 100h67l-47 73l96 69l56 -87l20 17l42 58l28 65l26 122v65l-18 56l-34 44l-58 29h-71 l-69 -29l-54 -44l-40 -56l-29 -66l-25 -122v-61l18 -60l33 -43z" horiz-adv-x="704" unicode="Q" glyph-name="Q"/>
<glyph d="M472 711l86 -26l62 -76l6 -105l-43 -100l-67 -73l-54 -25l72 -306h-120l-64 284h-159l-60 -284h-112l151 711h302zM214 391h190l56 25l32 35l26 52l-3 50l-29 35l-49 16h-178z" horiz-adv-x="635" unicode="R" glyph-name="R"/>
<glyph d="M25 68l-27 40l94 73l20 -34l32 -25l75 -22h77l71 26l23 22l17 24l10 50l-10 38l-35 23l-181 56l-68 52l-22 54l4 86l42 88l80 69l105 31h103l105 -30l72 -48l-77 -90l-58 39l-77 21h-74l-52 -16l-39 -33l-20 -40v-38l5 -15l38 -32l190 -56l69 -56l16 -79l-21 -100 l-33 -55l-65 -60l-122 -39h-116l-100 33z" horiz-adv-x="602" unicode="S" glyph-name="S"/>
<glyph d="M250 0h-113l128 604h-181l23 107h475l-23 -107h-181z" horiz-adv-x="515" unicode="T" glyph-name="T"/>
<glyph d="M231 -8l-120 50l-53 93l-9 75l107 501h113l-104 -491l2 -38l30 -53l72 -29h58l79 29l54 53l20 38l104 491h112l-107 -505l-39 -79l-89 -89l-139 -46h-91z" horiz-adv-x="709" unicode="U" glyph-name="U"/>
<glyph d="M197 0l-119 711h115l87 -533l314 533h121l-420 -711h-98z" horiz-adv-x="636" unicode="V" glyph-name="V"/>
<glyph d="M591 212l230 499h117l-333 -711h-98l-44 460l-240 -460h-102l-31 711h112l19 -499l245 470h80z" horiz-adv-x="870" unicode="W" glyph-name="W"/>
<glyph d="M363 440l252 271h138l-343 -359l185 -352h-126l-135 269l-249 -269h-139l336 357l-187 354h130z" horiz-adv-x="656" unicode="X" glyph-name="X"/>
<glyph d="M521 711h137l-310 -357l-74 -354h-112l76 356l-158 355h123l108 -250z" horiz-adv-x="566" unicode="Y" glyph-name="Y"/>
<glyph d="M606 711l-20 -92l-450 -512h359l-23 -107h-501l19 89l456 515h-334l23 107h471z" horiz-adv-x="558" unicode="Z" glyph-name="Z"/>
<glyph d="M254 -96l-23 -106h-240l209 982h240l-23 -105h-129l-163 -771h129z" horiz-adv-x="346" unicode="[" glyph-name="bracketleft"/>
<glyph d="M157 696l100 25l70 -705l-98 -27z" horiz-adv-x="441" unicode="\" glyph-name="backslash"/>
<glyph d="M87 -96l163 771h-129l23 105h240l-209 -982h-240l23 106h129z" horiz-adv-x="346" unicode="]" glyph-name="bracketright"/>
<glyph d="M346 638l-227 -338l-86 44l284 409h95l111 -414l-93 -39z" horiz-adv-x="540" unicode="^" glyph-name="asciicircum"/>
<glyph d="M497 -27l-19 -90h-486l19 90h486z" horiz-adv-x="580" unicode="_" glyph-name="underscore"/>
<glyph d="M214 581l-161 135l61 68l161 -135z" horiz-adv-x="302" unicode="`" glyph-name="grave"/>
<glyph d="M332 159l13 22l6 28l-13 17l-20 11l-43 14h-39l-58 -15l-37 -29l-13 -26l-5 -24l17 -36l16 -10l36 -13h28l70 25zM88 449l46 37l50 29l76 20h93l61 -17l68 -57l17 -66l-61 -285l29 -63l-101 -60l-30 65l-14 -15l-98 -45h-66l-60 21l-45 33l-40 82l7 61l34 75l81 66 l105 27h70l57 -22l9 -7l10 47l-4 20l-29 23l-42 11h-64l-35 -12l-31 -18l-34 -27z" horiz-adv-x="565" unicode="a" glyph-name="a"/>
<glyph d="M235 498l68 37h92l93 -51l48 -89l8 -73l-24 -115l-34 -75l-82 -90l-117 -50h-91l-52 22l-10 10l-5 -24h-111l160 754h111zM172 129l28 -21l31 -12h57l56 28q9 9 27 29t27 29q3 7 9 19t9 19l19 89l-3 36l-28 58l-50 26h-54l-63 -38l-33 -36l-43 -206z" horiz-adv-x="594" unicode="b" glyph-name="b"/>
<glyph d="M378 417l-31 12h-57l-54 -26l-55 -58l-17 -38l-19 -89l2 -36l31 -59l45 -25h50l38 12l70 55l61 -76l-88 -71l-90 -26h-84l-89 53l-48 87l-8 73l24 119l38 77l85 88l111 46h86l73 -29l61 -73l-92 -71z" horiz-adv-x="513" unicode="c" glyph-name="c"/>
<glyph d="M342 0l7 29l-69 -37h-92l-90 53l-50 89l-10 71l24 119l38 79l81 83l112 49h92l52 -22l11 -9l54 250h111l-161 -754h-110zM410 398l-24 20l-30 12h-61l-56 -28l-54 -57l-18 -38l-19 -90l2 -35l29 -58l49 -26h58l59 38l33 36l44 206z" horiz-adv-x="594" unicode="d" glyph-name="d"/>
<glyph d="M149 206l2 -26l29 -57l48 -25h51l60 16l67 37l45 -86l-88 -51l-94 -22h-84l-88 54l-48 88l-9 71l20 115l37 77l83 88l116 50h94l88 -52l46 -88l14 -69l-26 -120h-363zM171 312h256l-4 32l-29 57l-45 28h-54l-55 -26l-55 -58z" horiz-adv-x="574" unicode="e" glyph-name="e"/>
<glyph d="M134 408h-90l23 106h90l28 136l75 87l92 25h47l94 -21l-49 -106l-79 21h-21l-30 -10l-24 -26l-22 -106h127l-23 -106h-127l-87 -408h-111z" horiz-adv-x="403" unicode="f" glyph-name="f"/>
<glyph d="M399 398l-24 20l-31 12h-57l-55 -28l-54 -57l-18 -38l-14 -66l2 -37l29 -54l49 -21h56l60 38l33 39l36 172zM139 -167l-62 19l-47 33l-29 35l87 77l26 -33l19 -14l44 -12h61l40 14l39 26l14 22l13 59l-68 -36h-88l-91 42l-53 88l-8 75l16 92l37 81l87 88l110 46h95 l48 -22l10 -7l4 21h110l-115 -542l-40 -75l-87 -53l-83 -24h-89z" horiz-adv-x="583" unicode="g" glyph-name="g"/>
<glyph d="M173 754h111l-55 -258l74 39h95l78 -30l47 -84l-89 -421h-111l82 386l-14 29l-33 14h-57l-71 -41l-31 -36l-75 -352h-111z" unicode="h" glyph-name="h"/>
<glyph d="M131 527h111l-112 -527h-111zM162 754h145l-31 -145h-145z" horiz-adv-x="263" unicode="i" glyph-name="i"/>
<glyph d="M65 -130l-95 -32h-50l-62 16l47 103l44 -12h22l30 9l24 29l116 544h111l-123 -581zM172 754h145l-31 -145h-145z" horiz-adv-x="273" unicode="j" glyph-name="j"/>
<glyph d="M422 527h156l-270 -219l156 -308h-127l-116 237l-56 -45l-41 -192h-111l160 754h111l-88 -415z" horiz-adv-x="552" unicode="k" glyph-name="k"/>
<glyph d="M13 0l160 754h111l-160 -754h-111z" horiz-adv-x="263" unicode="l" glyph-name="l"/>
<glyph d="M249 495l78 40h90l82 -28l23 -41l39 31l80 38h91l82 -29l49 -85l-89 -421h-111l82 386l-13 27l-43 16h-53l-71 -41l-31 -34l-75 -354h-111l82 386l-13 27l-43 16h-53l-71 -41l-31 -34l-75 -354h-111l112 527h111z" horiz-adv-x="903" unicode="m" glyph-name="m"/>
<glyph d="M234 495l78 40h88l84 -29l49 -85l-89 -421h-111l82 386l-13 27l-43 16h-53l-71 -41l-31 -34l-75 -354h-111l112 527h111z" horiz-adv-x="586" unicode="n" glyph-name="n"/>
<glyph d="M275 97l58 26l29 34l26 61l19 92v58l-16 36l-44 25h-69l-52 -25l-33 -35l-25 -59l-19 -90l-3 -64l18 -33l45 -26h66zM167 -8l-86 49l-41 81v84l21 116l37 88l70 75l110 50h106l90 -50l42 -81v-82l-25 -118l-33 -86l-70 -79l-113 -47h-108z" horiz-adv-x="558" unicode="o" glyph-name="o"/>
<glyph d="M233 498l69 37h94l92 -51l50 -89l6 -73l-24 -115l-36 -75l-84 -90l-113 -50h-92l-53 22l-9 7l-39 -183h-111l147 689h110zM172 129l28 -20l30 -12h57l53 28l53 57l18 38l19 89l-2 36l-25 57l-49 27h-54l-63 -38l-33 -36l-44 -206z" horiz-adv-x="594" unicode="p" glyph-name="p"/>
<glyph d="M303 -162l41 191l-68 -37h-94l-88 51l-48 89l-8 73l20 115l37 81l87 88l111 46h90l52 -22l10 -7l4 21h111l-146 -689h-111zM406 398l-24 20l-30 12h-57l-56 -28l-54 -57l-18 -38l-19 -90l2 -35l29 -58l49 -26h52l61 38l33 36l44 206z" horiz-adv-x="594" unicode="q" glyph-name="q"/>
<glyph d="M337 429h-34l-50 -22l-44 -39l-29 -43l-69 -325h-111l112 527h111l-8 -38l14 12l72 34h71l61 -17l-48 -103z" horiz-adv-x="404" unicode="r" glyph-name="r"/>
<glyph d="M202 343l19 -11l140 -31l50 -37l27 -66l-19 -90l-45 -60l-59 -36l-80 -20h-88l-70 23l-45 37l-27 34l87 72l20 -28l20 -17l55 -16h58l35 10l23 14l17 18l6 29l-9 21l-18 15l-129 30l-60 34l-31 60l16 94l45 62l58 35l64 16h88l74 -23l61 -46l-73 -88l-46 37l-45 15h-59 l-38 -10l-12 -9l-13 -16l-7 -34z" horiz-adv-x="498" unicode="s" glyph-name="s"/>
<glyph d="M268 514h131l-23 -106h-131l-58 -274l13 -24l24 -12h21l82 21l8 -104l-104 -23h-50l-67 30l-45 79l65 307h-90l23 106h90l39 184h111z" horiz-adv-x="414" unicode="t" glyph-name="t"/>
<glyph d="M261 97l69 42l32 33l76 355h111l-112 -527h-110l7 32l-81 -40h-74l-88 27l-54 85l90 423h111l-82 -386l16 -31l46 -13h43z" unicode="u" glyph-name="u"/>
<glyph d="M58 527h114l63 -361l216 361h120l-319 -527h-95z" horiz-adv-x="534" unicode="v" glyph-name="v"/>
<glyph d="M389 508h85l45 -317l163 336h118l-263 -527h-95l-45 319l-176 -319h-99l-43 527h111l21 -337z" horiz-adv-x="768" unicode="w" glyph-name="w"/>
<glyph d="M94 0h-139l255 265l-141 262h127l96 -180l168 180h136l-258 -268l141 -259h-124l-93 178z" horiz-adv-x="552" unicode="x" glyph-name="x"/>
<glyph d="M260 209l206 318h125l-457 -689h-121l165 247l-107 442h117z" horiz-adv-x="552" unicode="y" glyph-name="y"/>
<glyph d="M-17 0l18 86l324 336h-245l22 105h390l-18 -86l-322 -335h262l-23 -106h-408z" horiz-adv-x="503" unicode="z" glyph-name="z"/>
<glyph d="M465 676h-105l-18 -10l-12 -17l-56 -263l-95 -79l62 -80l-63 -296l4 -18l14 -9h105l-23 -106h-137l-58 35l-23 66l63 295l-73 95l9 42l113 95l54 255l49 67l71 33h141z" horiz-adv-x="413" unicode="{" glyph-name="braceleft"/>
<glyph d="M109 -181h-91l203 954h91z" horiz-adv-x="313" unicode="|" glyph-name="bar"/>
<glyph d="M168 781h137l60 -36l21 -65l-56 -260l73 -95l-9 -46l-114 -95l-60 -285l-48 -66l-75 -35h-138l23 106h105l17 9l12 18l65 303l91 76l-59 76l56 263l-5 17l-13 10h-105z" horiz-adv-x="413" unicode="}" glyph-name="braceright"/>
<glyph d="M607 332l-89 -44l-72 -17h-57l-46 12l-61 21l-46 8h-21l-50 -12l-65 -32l-38 101l89 43l70 16h47l60 -11l58 -21l35 -9h36l40 10l70 33z" horiz-adv-x="665" unicode="~" glyph-name="asciitilde"/>
<glyph d="M222 316l-106 -500h-108l106 500h108zM253 380h-142l31 147h142z" horiz-adv-x="279" unicode="¡" glyph-name="exclamdown"/>
<glyph d="M490 366l-45 57l-32 12h-75l-53 -25l-24 -22l-30 -35l-21 -42l-19 -89l5 -43l27 -54l51 -25h69l35 11l69 57l63 -76l-87 -72l-89 -27l-21 -100h-108l21 99l-90 51l-47 89l-9 76l23 117l41 84l84 87l115 46l20 96h108l-20 -97l74 -28l59 -74z" horiz-adv-x="640" unicode="¢" glyph-name="cent"/>
<glyph d="M66 -9l-7 103l57 13l55 35l42 56l11 51l-8 58h-114l21 98h76l-6 35l4 88l39 98l78 65l100 28h93l70 -50l44 -79l-102 -59l-30 59l-29 21h-57l-48 -16l-30 -26l-18 -47l-3 -62l9 -55h185l-21 -98h-148l7 -43l-20 -92l-40 -53l31 -19h70l66 13l66 28l31 -96l-86 -37 l-89 -16h-101l-72 48l-53 -32z" horiz-adv-x="640" unicode="£" glyph-name="sterling"/>
<glyph d="M539 258l-33 -34l57 -72l-82 -67l-57 72l-38 -23l-73 -21h-63l-63 23l-24 22l-89 -73l-57 72l87 73l-18 33l-7 64l13 69l34 63l33 33l-57 72l82 67l57 -72l38 23l73 21h63l63 -23l24 -22l89 73l57 -72l-87 -73l18 -33l7 -64l-15 -71zM185 297l24 -43l35 -28l44 -14h25 l50 14l46 27l43 44l23 45l6 31l-3 46l-24 43l-35 27l-44 15h-25l-50 -15l-46 -26l-43 -44l-23 -46l-6 -31z" horiz-adv-x="640" unicode="¤" glyph-name="currency"/>
<glyph d="M388 364l-8 -10l-7 -32h155l-20 -94h-155l-47 -228h-112l48 228h-165l20 94h165l8 34l-4 8h-160l20 94h98l-112 253h123l108 -250l210 250h137l-220 -253h87l-20 -94h-149z" horiz-adv-x="640" unicode="¥" glyph-name="yen"/>
<glyph d="M221 374h-91l85 399h91zM103 -182h-91l85 399h91z" horiz-adv-x="313" unicode="¦" glyph-name="brokenbar"/>
<glyph d="M148 537l43 87l77 66l92 29h59l81 -30l62 -60l-83 -80l-51 53l-47 14h-25l-46 -14l-38 -36l-18 -33l2 -26l184 -157l46 -59l12 -68l-20 -92l-38 -52l-25 -21v-64l-39 -72l-77 -69l-94 -29h-69l-75 28l-64 64l79 78l53 -53l46 -14h34l45 14l39 32l17 30v30l-190 167 l-44 62l-7 60l14 69l43 54l27 18zM215 392l-23 -15l-11 -11l-6 -31l4 -23l25 -37l159 -139l5 3l11 16l11 52l-3 25l-29 38z" horiz-adv-x="549" unicode="§" glyph-name="section"/>
<glyph d="M55 754h126l-28 -131h-126zM274 754h126l-28 -131h-126z" horiz-adv-x="415" unicode="¨" glyph-name="dieresis"/>
<glyph d="M518 189l-33 -22l-66 -23h-64l-56 31l-29 40l-17 55v46l17 82l22 51l37 53l49 40l66 25h65l52 -24l25 -22l21 -33l-79 -63l-17 31l-8 9l-30 14h-30l-28 -13l-24 -21l-17 -25l-16 -33l-13 -63v-32l8 -26l15 -21l22 -12l30 -1l36 13l12 10l29 30l53 -62zM720 397l-10 83 l-40 78l-66 55l-77 28h-80l-88 -28l-89 -55l-74 -78l-46 -83l-17 -83l10 -83l41 -78l66 -55l76 -28h80l89 28l89 55l73 78l46 83zM788 299l-59 -114l-96 -99l-111 -67l-120 -35h-107l-102 40l-80 69l-54 101l-14 108l23 112l62 114l95 98l110 66l118 35h103l102 -40l84 -72 l53 -97l14 -109z" horiz-adv-x="842" unicode="©" glyph-name="copyright"/>
<glyph d="M266 462l-14 10l-27 8h-17l-32 -7l-24 -19l-7 -13l-2 -9l6 -13l5 -4l28 -8h15l42 18l24 21zM264 356l-65 -29h-48l-35 12l-33 23l-24 49l9 43l22 45l59 46l63 15h39l33 -13l6 23l-3 6l-10 8l-22 6h-32l-31 -6l-9 -5l-25 -18l-45 53l33 28l32 16l56 12h47l37 -10l45 -37 l10 -44l-37 -174l19 -42l-74 -45z" horiz-adv-x="390" unicode="ª" glyph-name="ordfeminine"/>
<glyph d="M143 310l91 -169l-85 -60l-110 209l11 54l189 200l70 -63zM351 310l91 -169l-85 -60l-110 209l11 54l191 199l70 -63z" horiz-adv-x="538" unicode="«" glyph-name="guillemotleft"/>
<glyph d="M538 387l-66 -311h-100l46 216h-348l20 95h448z" horiz-adv-x="600" unicode="¬" glyph-name="logicalnot"/>
<glyph d="M76 358h350l-20 -95h-350z" horiz-adv-x="480" unicode="­" glyph-name="softhyphen"/>
<glyph d="M250 146l89 419h178l50 -15l36 -46l9 -63l-27 -61l-41 -45l-36 -17q11 -45 24 -86q12 -37 22 -86h-99l-37 160h-42l-34 -160h-92zM395 396h81l22 12l6 9l12 23l-3 18l-6 11l-19 7h-76zM720 397l-10 83l-40 78l-66 55l-77 28h-80l-88 -28l-89 -55l-74 -78l-46 -83l-17 -83 l10 -83l41 -78l66 -55l76 -28h80l89 28l89 55l73 78l46 83zM788 299l-59 -114l-96 -99l-111 -67l-120 -35h-107l-102 40l-80 69l-54 101l-14 108l23 112l62 114l95 98l110 66l118 35h103l102 -40l84 -72l53 -97l14 -109z" horiz-adv-x="842" unicode="®" glyph-name="registered"/>
<glyph d="M416 722l-20 -95h-358l20 95h358z" horiz-adv-x="428" unicode="¯" glyph-name="macron"/>
<glyph d="M431 514l-26 -47l-25 -29l-48 -33l-52 -19l-21 -4h-40l-15 5l-42 20l-34 33l-14 29l-10 45l-1 16l9 41l7 18l28 45l27 30l48 32l52 19l16 4h40l16 -4l42 -22l34 -33l15 -30l9 -43l1 -16l-9 -41zM343 570l-5 15l-7 12l-13 12l-14 6l-9 2h-12l-11 -2l-14 -5l-22 -15 l-10 -10l-7 -10l-7 -15l-4 -19l1 -14l3 -12l6 -11l16 -14l18 -6h17l20 6l25 16l10 10l9 13l5 12l4 17z" horiz-adv-x="454" unicode="°" glyph-name="degree"/>
<glyph d="M219 135l33 157h-174l20 95h174l38 176h100l-38 -176h174l-20 -95h-174l-33 -157h-100zM36 95h448l-20 -95h-448z" horiz-adv-x="580" unicode="±" glyph-name="plusminus"/>
<glyph d="M93 692l46 41l65 25h62l56 -29l29 -59l-10 -57l-35 -50l-113 -96h127l-14 -81h-257l11 65l186 155l15 24l3 15l-11 23l-20 10h-28l-25 -10l-38 -33z" horiz-adv-x="335" unicode="²" glyph-name="twosuperior"/>
<glyph d="M174 556l10 58l59 61h-101l13 78h214l-9 -56l-72 -78l23 -9l32 -37l10 -43l-7 -41l-26 -47l-39 -34l-66 -27h-61l-50 21l-35 42l70 59l26 -33l20 -10h28l28 11l17 15l8 16l3 14l-1 11l-15 16l-32 13h-47z" horiz-adv-x="337" unicode="³" glyph-name="threesuperior"/>
<glyph d="M24 652l219 135l42 -71l-219 -135z" horiz-adv-x="302" unicode="´" glyph-name="acute"/>
<glyph d="M89 -162h-111l146 689h111l-82 -386l16 -31l46 -13h46l71 42l31 33l75 355h111l-112 -527h-110l7 32l-6 -4l-72 -36h-76l-54 19z" horiz-adv-x="585" unicode="µ" glyph-name="uni00B5"/>
<glyph d="M110 -163l100 471h-17l-72 32l-48 72l-11 64l14 69l38 69l78 69l85 28h372l-21 -98h-81l-165 -776h-101l165 776h-70l-165 -776h-101zM275 613h-4l-35 -10l-45 -43l-20 -33l-8 -39l6 -33l27 -38l31 -11h4z" horiz-adv-x="580" unicode="¶" glyph-name="paragraph"/>
<glyph d="M91 417h135l-30 -139h-135z" horiz-adv-x="279" unicode="·" glyph-name="periodcentered"/>
<glyph d="M117 34l58 -17l-20 -42l48 -9l14 -60l-42 -60l-70 -25h-43l-43 21l40 64l26 -10h27l10 6l12 22l-71 17z" horiz-adv-x="249" unicode="¸" glyph-name="cedilla"/>
<glyph d="M52 682l163 71h43l-65 -367h-83l46 262l-81 -34z" horiz-adv-x="241" unicode="¹" glyph-name="onesuperior"/>
<glyph d="M147 327l-53 31l-26 53l-3 50l17 75l23 55l46 51l68 28h69l57 -32l25 -51v-51l-16 -75l-22 -54l-46 -53l-69 -27h-70zM219 407l25 11l17 18l14 32l12 56l1 30l-11 24l-23 12h-34l-26 -12l-20 -22l-13 -30l-13 -56l2 -34l9 -18l22 -11h38z" horiz-adv-x="376" unicode="º" glyph-name="ordmasculine"/>
<glyph d="M194 315l-91 169l85 60l110 -209l-11 -54l-191 -199l-70 63zM401 315l-91 169l85 60l110 -209l-11 -54l-189 -200l-70 63z" horiz-adv-x="538" unicode="»" glyph-name="guillemotright"/>
<glyph d="M67 31l648 698l55 -47l-650 -700zM699 163l-14 -77h-50l-15 -86h-82l15 86h-151l10 56l204 225h69l-36 -204h50zM585 241l-70 -78h52zM137 644l163 71h43l-65 -367h-83l46 262l-81 -34z" horiz-adv-x="801" unicode="¼" glyph-name="onequarter"/>
<glyph d="M67 31l648 698l55 -47l-650 -700zM137 644l163 71h43l-65 -367h-83l46 262l-81 -34zM491 306l46 41l65 25h62l56 -29l29 -59l-10 -57l-35 -50l-113 -96h127l-14 -81h-257l11 65l186 155l15 24l3 15l-11 23l-20 10h-28l-25 -10l-38 -33z" horiz-adv-x="798" unicode="½" glyph-name="onehalf"/>
<glyph d="M67 31l648 698l55 -47l-650 -700zM699 163l-14 -77h-50l-15 -86h-82l15 86h-151l10 56l204 225h69l-36 -204h50zM585 241l-70 -78h52zM174 513l10 58l59 61h-101l13 78h214l-9 -56l-72 -78l23 -9l32 -37l10 -43l-7 -41l-26 -47l-39 -34l-66 -27h-61l-50 21l-35 42l70 59 l26 -33l20 -10h28l28 11l17 15l8 16l3 14l-1 11l-15 16l-32 13h-47z" horiz-adv-x="813" unicode="¾" glyph-name="threequarters"/>
<glyph d="M176 56l-19 -29l-16 -37l2 -39l12 -19l41 -16h44l50 13l26 19l10 14l22 60l103 -17l-29 -77l-34 -50l-71 -49l-84 -21h-76l-78 36l-48 59v83l28 74l42 59l91 64l52 60l15 73h108l-23 -111l-77 -90zM398 380h-142l31 147h142z" horiz-adv-x="562" unicode="¿" glyph-name="questiondown"/>
<glyph d="M73 0h-119l410 711h83l108 -711h-111l-24 178h-247zM233 285h172l-33 247zM294 851l51 74l180 -113l-51 -73z" horiz-adv-x="624" unicode="À" glyph-name="Agrave"/>
<glyph d="M73 0h-119l410 711h83l108 -711h-111l-24 178h-247zM233 285h172l-33 247zM348 738l-31 75l228 113l31 -76z" horiz-adv-x="624" unicode="Á" glyph-name="Aacute"/>
<glyph d="M73 0h-119l410 711h83l108 -711h-111l-24 178h-247zM233 285h172l-33 247zM468 931l134 -130l-66 -63l-104 104l-148 -104l-47 70l179 123h52z" horiz-adv-x="624" unicode="Â" glyph-name="Acircumflex"/>
<glyph d="M73 0h-119l410 711h83l108 -711h-111l-24 178h-247zM233 285h172l-33 247zM374 794h-15l-20 -5l-18 -17l-14 -25l-75 29l20 39l28 34l31 20l50 16h42l44 -20l30 -21l24 -3l22 8l19 14l12 24l73 -29l-18 -36l-26 -34l-28 -20l-53 -19h-41l-36 15l-36 26z" horiz-adv-x="624" unicode="Ã" glyph-name="Atilde"/>
<glyph d="M73 0h-119l410 711h83l108 -711h-111l-24 178h-247zM233 285h172l-33 247zM274 898h121l-26 -124h-121zM490 898h122l-26 -124h-122z" horiz-adv-x="624" unicode="Ä" glyph-name="Adieresis"/>
<glyph d="M73 0h-119l410 711h83l108 -711h-111l-24 178h-247zM233 285h172l-33 247zM476 855l-3 19l-11 13l-16 7h-14l-22 -7l-13 -12l-11 -20l-4 -15l3 -20l10 -12l17 -7h14l21 7l14 12l11 20zM538 829l-20 -40l-45 -41l-48 -15h-39l-38 18l-29 41l-7 37l8 40l22 40l46 40l46 13 h36l41 -19l27 -41l6 -39z" horiz-adv-x="624" unicode="Å" glyph-name="Aring"/>
<glyph d="M62 0h-123l497 711h445l-23 -107h-295l-36 -173h188l-23 -108h-188l-46 -216h295l-23 -107h-409l38 178h-175zM442 557l-185 -272h126z" horiz-adv-x="835" unicode="Æ" glyph-name="AE"/>
<glyph d="M219 -5l-88 46l-56 69l-26 87v85l27 144l37 90l60 87l87 70l115 46h111l97 -42l38 -35l40 -56l-94 -74l-32 48l-22 21l-62 30h-74l-69 -29l-55 -44l-39 -56l-29 -65l-25 -122v-65l17 -58l34 -42l57 -30h74l77 30l30 21l51 48l65 -74l-60 -57l-53 -36l-117 -40h-47l-8 -17 l48 -9l14 -60l-42 -60l-70 -25h-43l-43 21l40 64l26 -10h27l10 6l12 22l-71 17z" horiz-adv-x="640" unicode="Ç" glyph-name="Ccedilla"/>
<glyph d="M260 604l-36 -173h240l-23 -108h-240l-46 -216h344l-23 -107h-457l151 711h457l-23 -107h-344zM297 851l51 74l180 -113l-51 -73z" unicode="È" glyph-name="Egrave"/>
<glyph d="M260 604l-36 -173h240l-23 -108h-240l-46 -216h344l-23 -107h-457l151 711h457l-23 -107h-344zM351 738l-31 75l228 113l31 -76z" unicode="É" glyph-name="Eacute"/>
<glyph d="M260 604l-36 -173h240l-23 -108h-240l-46 -216h344l-23 -107h-457l151 711h457l-23 -107h-344zM471 931l134 -130l-66 -63l-104 104l-148 -104l-47 70l179 123h52z" unicode="Ê" glyph-name="Ecircumflex"/>
<glyph d="M260 604l-36 -173h240l-23 -108h-240l-46 -216h344l-23 -107h-457l151 711h457l-23 -107h-344zM277 898h121l-26 -124h-121zM493 898h122l-26 -124h-122z" unicode="Ë" glyph-name="Edieresis"/>
<glyph d="M121 0h-112l151 711h112zM113 851l51 74l180 -113l-51 -73z" horiz-adv-x="273" unicode="Ì" glyph-name="Igrave"/>
<glyph d="M121 0h-112l151 711h112zM162 738l-31 75l228 113l31 -76z" horiz-adv-x="273" unicode="Í" glyph-name="Iacute"/>
<glyph d="M121 0h-112l151 711h112zM281 931l134 -130l-66 -63l-104 104l-148 -104l-47 70l179 123h52z" horiz-adv-x="273" unicode="Î" glyph-name="Icircumflex"/>
<glyph d="M121 0h-112l151 711h112zM85 898h121l-26 -124h-121zM301 898h122l-26 -124h-122z" horiz-adv-x="273" unicode="Ï" glyph-name="Idieresis"/>
<glyph d="M86 319h-62l18 83h62l66 309h263l106 -49l58 -70l25 -87l3 -83l-27 -136l-38 -88l-64 -86l-83 -68l-125 -44h-269zM292 107l79 31l52 43l39 56l34 69l21 99l-3 69l-17 58l-34 42l-66 30h-138l-43 -202h149l-18 -83h-148l-45 -212h138z" horiz-adv-x="683" unicode="Ð" glyph-name="Eth"/>
<glyph d="M170 711h89l246 -523l111 523h113l-151 -711h-109l-231 498l-106 -498h-113zM411 794h-15l-20 -5l-18 -17l-14 -25l-75 29l20 39l28 34l31 20l50 16h42l44 -20l30 -21l24 -3l22 8l19 14l12 24l73 -29l-18 -36l-26 -34l-28 -20l-53 -19h-41l-36 15l-36 26z" horiz-adv-x="738" unicode="Ñ" glyph-name="Ntilde"/>
<glyph d="M224 -8l-95 53l-53 69l-27 85v83l30 147l35 87l60 87l86 70l117 46h112l93 -50l59 -70l27 -85v-85l-31 -147l-33 -87l-62 -89l-85 -69l-118 -45h-115zM270 100h69l72 30l51 42l42 58l28 65l26 122v65l-18 56l-34 44l-58 29h-71l-69 -29l-54 -44l-40 -56l-29 -66l-25 -122 v-61l18 -60l33 -43zM328 851l51 74l180 -113l-51 -73z" horiz-adv-x="704" unicode="Ò" glyph-name="Ograve"/>
<glyph d="M224 -8l-95 53l-53 69l-27 85v83l30 147l35 87l60 87l86 70l117 46h112l93 -50l59 -70l27 -85v-85l-31 -147l-33 -87l-62 -89l-85 -69l-118 -45h-115zM270 100h69l72 30l51 42l42 58l28 65l26 122v65l-18 56l-34 44l-58 29h-71l-69 -29l-54 -44l-40 -56l-29 -66l-25 -122 v-61l18 -60l33 -43zM372 738l-31 75l228 113l31 -76z" horiz-adv-x="704" unicode="Ó" glyph-name="Oacute"/>
<glyph d="M224 -8l-95 53l-53 69l-27 85v83l30 147l35 87l60 87l86 70l117 46h112l93 -50l59 -70l27 -85v-85l-31 -147l-33 -87l-62 -89l-85 -69l-118 -45h-115zM270 100h69l72 30l51 42l42 58l28 65l26 122v65l-18 56l-34 44l-58 29h-71l-69 -29l-54 -44l-40 -56l-29 -66l-25 -122 v-61l18 -60l33 -43zM500 931l134 -130l-66 -63l-104 104l-148 -104l-47 70l179 123h52z" horiz-adv-x="704" unicode="Ô" glyph-name="Ocircumflex"/>
<glyph d="M224 -8l-95 53l-53 69l-27 85v83l30 147l35 87l60 87l86 70l117 46h112l93 -50l59 -70l27 -85v-85l-31 -147l-33 -87l-62 -89l-85 -69l-118 -45h-115zM270 100h69l72 30l51 42l42 58l28 65l26 122v65l-18 56l-34 44l-58 29h-71l-69 -29l-54 -44l-40 -56l-29 -66l-25 -122 v-61l18 -60l33 -43zM403 794h-15l-20 -5l-18 -17l-14 -25l-75 29l20 39l28 34l31 20l50 16h42l44 -20l30 -21l24 -3l22 8l19 14l12 24l73 -29l-18 -36l-26 -34l-28 -20l-53 -19h-41l-36 15l-36 26z" horiz-adv-x="704" unicode="Õ" glyph-name="Otilde"/>
<glyph d="M224 -8l-95 53l-53 69l-27 85v83l30 147l35 87l60 87l86 70l117 46h112l93 -50l59 -70l27 -85v-85l-31 -147l-33 -87l-62 -89l-85 -69l-118 -45h-115zM270 100h69l72 30l51 42l42 58l28 65l26 122v65l-18 56l-34 44l-58 29h-71l-69 -29l-54 -44l-40 -56l-29 -66l-25 -122 v-61l18 -60l33 -43zM303 898h121l-26 -124h-121zM519 898h122l-26 -124h-122z" horiz-adv-x="704" unicode="Ö" glyph-name="Odieresis"/>
<glyph d="M62 189l184 150l-124 156l81 67l124 -156l187 156l59 -71l-190 -157l120 -151l-80 -66l-120 151l-184 -151z" horiz-adv-x="580" unicode="×" glyph-name="multiply"/>
<glyph d="M224 -8l-89 49l-88 -103l-53 44l96 113l-14 19l-27 85v83l30 147l35 87l60 87l86 70l117 46h112l91 -49l88 103l53 -44l-96 -112l16 -18l27 -85v-85l-31 -147l-33 -87l-62 -89l-85 -69l-118 -45h-115zM270 100h69l72 30l51 42l42 58l28 65l26 122v65l-13 40l-335 -392h1z M160 233l12 -42l333 391l-57 29h-71l-69 -29l-54 -44l-40 -56l-29 -66l-25 -122v-61z" horiz-adv-x="704" unicode="Ø" glyph-name="Oslash"/>
<glyph d="M231 -8l-120 50l-53 93l-9 75l107 501h113l-104 -491l2 -38l30 -53l72 -29h58l79 29l54 53l20 38l104 491h112l-107 -505l-39 -79l-89 -89l-139 -46h-91zM311 851l51 74l180 -113l-51 -73z" horiz-adv-x="709" unicode="Ù" glyph-name="Ugrave"/>
<glyph d="M231 -8l-120 50l-53 93l-9 75l107 501h113l-104 -491l2 -38l30 -53l72 -29h58l79 29l54 53l20 38l104 491h112l-107 -505l-39 -79l-89 -89l-139 -46h-91zM375 738l-31 75l228 113l31 -76z" horiz-adv-x="709" unicode="Ú" glyph-name="Uacute"/>
<glyph d="M231 -8l-120 50l-53 93l-9 75l107 501h113l-104 -491l2 -38l30 -53l72 -29h58l79 29l54 53l20 38l104 491h112l-107 -505l-39 -79l-89 -89l-139 -46h-91zM491 931l134 -130l-66 -63l-104 104l-148 -104l-47 70l179 123h52z" horiz-adv-x="709" unicode="Û" glyph-name="Ucircumflex"/>
<glyph d="M231 -8l-120 50l-53 93l-9 75l107 501h113l-104 -491l2 -38l30 -53l72 -29h58l79 29l54 53l20 38l104 491h112l-107 -505l-39 -79l-89 -89l-139 -46h-91zM295 898h121l-26 -124h-121zM511 898h122l-26 -124h-122z" horiz-adv-x="709" unicode="Ü" glyph-name="Udieresis"/>
<glyph d="M521 711h137l-310 -357l-74 -354h-112l76 356l-158 355h123l108 -250zM317 738l-31 75l228 113l31 -76z" horiz-adv-x="566" unicode="Ý" glyph-name="Yacute"/>
<glyph d="M533 568l62 -76l6 -105l-43 -100l-67 -73l-105 -47h-220l-35 -167h-112l151 711h112l-25 -117h188zM234 486l-45 -212h190l56 25l32 35l26 52l-3 50l-29 35l-49 15h-178z" horiz-adv-x="607" unicode="Þ" glyph-name="Thorn"/>
<glyph d="M334 0h-120l22 106h92l56 26l25 21l36 74l-3 43l-15 29l-52 37h-90l23 106h43l55 30l21 18l19 34v50l-17 22l-59 17l-39 -7l-37 -27l-29 -44l-125 -586h-111l129 608l55 88l95 63l98 12l97 -33l50 -70l4 -97l-40 -77l-27 -25l-19 -12l45 -33l36 -63l5 -82l-59 -129 l-67 -58z" horiz-adv-x="600" unicode="ß" glyph-name="germandbls"/>
<glyph d="M332 159l13 22l6 28l-13 17l-20 11l-43 14h-39l-58 -15l-37 -29l-13 -26l-5 -24l17 -36l16 -10l36 -13h28l70 25zM88 449l46 37l50 29l76 20h93l61 -17l68 -57l17 -66l-61 -285l29 -63l-101 -60l-30 65l-14 -15l-98 -45h-66l-60 21l-45 33l-40 82l7 61l34 75l81 66 l105 27h70l57 -22l9 -7l10 47l-4 20l-29 23l-42 11h-64l-35 -12l-31 -18l-34 -27zM390 581l-161 135l61 68l161 -135z" horiz-adv-x="565" unicode="à" glyph-name="agrave"/>
<glyph d="M332 159l13 22l6 28l-13 17l-20 11l-43 14h-39l-58 -15l-37 -29l-13 -26l-5 -24l17 -36l16 -10l36 -13h28l70 25zM88 449l46 37l50 29l76 20h93l61 -17l68 -57l17 -66l-61 -285l29 -63l-101 -60l-30 65l-14 -15l-98 -45h-66l-60 21l-45 33l-40 82l7 61l34 75l81 66 l105 27h70l57 -22l9 -7l10 47l-4 20l-29 23l-42 11h-64l-35 -12l-31 -18l-34 -27zM246 652l219 135l42 -71l-219 -135z" horiz-adv-x="565" unicode="á" glyph-name="aacute"/>
<glyph d="M332 159l13 22l6 28l-13 17l-20 11l-43 14h-39l-58 -15l-37 -29l-13 -26l-5 -24l17 -36l16 -10l36 -13h28l70 25zM88 449l46 37l50 29l76 20h93l61 -17l68 -57l17 -66l-61 -285l29 -63l-101 -60l-30 65l-14 -15l-98 -45h-66l-60 21l-45 33l-40 82l7 61l34 75l81 66 l105 27h70l57 -22l9 -7l10 47l-4 20l-29 23l-42 11h-64l-35 -12l-31 -18l-34 -27zM458 593l-101 102l-144 -102l-47 71l177 121h49l131 -127z" horiz-adv-x="565" unicode="â" glyph-name="acircumflex"/>
<glyph d="M332 159l13 22l6 28l-13 17l-20 11l-43 14h-39l-58 -15l-37 -29l-13 -26l-5 -24l17 -36l16 -10l36 -13h28l70 25zM88 449l46 37l50 29l76 20h93l61 -17l68 -57l17 -66l-61 -285l29 -63l-101 -60l-30 65l-14 -15l-98 -45h-66l-60 21l-45 33l-40 82l7 61l34 75l81 66 l105 27h70l57 -22l9 -7l10 47l-4 20l-29 23l-42 11h-64l-35 -12l-31 -18l-34 -27zM149 636l29 47l49 38l60 18h45l40 -17l32 -21l21 -7h18l12 4l13 10l18 31l81 -23l-19 -42l-21 -31l-39 -27l-46 -16l-42 -2l-43 17l-46 30h-28l-24 -10l-17 -13l-11 -21z" horiz-adv-x="565" unicode="ã" glyph-name="atilde"/>
<glyph d="M332 159l13 22l6 28l-13 17l-20 11l-43 14h-39l-58 -15l-37 -29l-13 -26l-5 -24l17 -36l16 -10l36 -13h28l70 25zM88 449l46 37l50 29l76 20h93l61 -17l68 -57l17 -66l-61 -285l29 -63l-101 -60l-30 65l-14 -15l-98 -45h-66l-60 21l-45 33l-40 82l7 61l34 75l81 66 l105 27h70l57 -22l9 -7l10 47l-4 20l-29 23l-42 11h-64l-35 -12l-31 -18l-34 -27zM203 754h126l-28 -131h-126zM422 754h126l-28 -131h-126z" horiz-adv-x="565" unicode="ä" glyph-name="adieresis"/>
<glyph d="M332 159l13 22l6 28l-13 17l-20 11l-43 14h-39l-58 -15l-37 -29l-13 -26l-5 -24l17 -36l16 -10l36 -13h28l70 25zM88 449l46 37l50 29l76 20h93l61 -17l68 -57l17 -66l-61 -285l29 -63l-101 -60l-30 65l-14 -15l-98 -45h-66l-60 21l-45 33l-40 82l7 61l34 75l81 66 l105 27h70l57 -22l9 -7l10 47l-4 20l-29 23l-42 11h-64l-35 -12l-31 -18l-34 -27zM487 696l-22 -42l-47 -44l-57 -19h-43l-48 24l-29 42l-6 39l10 48l23 42l48 42l56 18h42l49 -24l28 -41l6 -39zM382 674l24 21l5 11l6 26l-1 11l-15 21l-13 5h-21l-17 -5l-23 -21l-6 -11 l-6 -27l2 -10l14 -21l14 -6h21z" horiz-adv-x="565" unicode="å" glyph-name="aring"/>
<glyph d="M317 238l-42 13h-39l-58 -15l-37 -29l-13 -26l-5 -24l17 -36l16 -10l36 -13h28l70 25l32 27l-5 55l6 29zM448 312h253l-4 32l-29 57l-45 28h-51l-55 -26l-55 -58zM462 487l111 48h91l88 -52l46 -88l14 -69l-26 -120h-360l2 -26l29 -57l48 -25h48l60 16l67 37l45 -86 l-88 -51l-94 -22h-81l-88 54l-15 26l-37 -35l-98 -45h-66l-60 21l-45 33l-40 82l7 61l34 75l81 66l105 27h70l42 -16l25 52l5 4l-29 21l-42 11h-64l-35 -12l-31 -18l-34 -27l-59 77l46 37l50 29l76 20h93l61 -17l43 -36z" horiz-adv-x="886" unicode="æ" glyph-name="ae"/>
<glyph d="M168 0l-77 45l-48 87l-8 73l24 119l38 77l85 88l111 46h86l73 -29l61 -73l-92 -71l-43 55l-31 12h-57l-54 -26l-55 -58l-17 -38l-19 -89l2 -36l31 -59l45 -25h50l38 12l70 55l61 -76l-88 -71l-90 -26h-30l-8 -17l48 -9l14 -60l-42 -60l-70 -25h-43l-43 21l40 64l26 -10 h27l10 6l12 22l-71 17z" horiz-adv-x="513" unicode="ç" glyph-name="ccedilla"/>
<glyph d="M149 206l2 -26l29 -57l48 -25h51l60 16l67 37l45 -86l-88 -51l-94 -22h-84l-88 54l-48 88l-9 71l20 115l37 77l83 88l116 50h94l88 -52l46 -88l14 -69l-26 -120h-363zM171 312h256l-4 32l-29 57l-45 28h-54l-55 -26l-55 -58zM409 581l-161 135l61 68l161 -135z" horiz-adv-x="574" unicode="è" glyph-name="egrave"/>
<glyph d="M149 206l2 -26l29 -57l48 -25h51l60 16l67 37l45 -86l-88 -51l-94 -22h-84l-88 54l-48 88l-9 71l20 115l37 77l83 88l116 50h94l88 -52l46 -88l14 -69l-26 -120h-363zM171 312h256l-4 32l-29 57l-45 28h-54l-55 -26l-55 -58zM265 652l219 135l42 -71l-219 -135z" horiz-adv-x="574" unicode="é" glyph-name="eacute"/>
<glyph d="M149 206l2 -26l29 -57l48 -25h51l60 16l67 37l45 -86l-88 -51l-94 -22h-84l-88 54l-48 88l-9 71l20 115l37 77l83 88l116 50h94l88 -52l46 -88l14 -69l-26 -120h-363zM171 312h256l-4 32l-29 57l-45 28h-54l-55 -26l-55 -58zM480 593l-101 102l-144 -102l-47 71l177 121 h49l131 -127z" horiz-adv-x="574" unicode="ê" glyph-name="ecircumflex"/>
<glyph d="M149 206l2 -26l29 -57l48 -25h51l60 16l67 37l45 -86l-88 -51l-94 -22h-84l-88 54l-48 88l-9 71l20 115l37 77l83 88l116 50h94l88 -52l46 -88l14 -69l-26 -120h-363zM171 312h256l-4 32l-29 57l-45 28h-54l-55 -26l-55 -58zM220 754h126l-28 -131h-126zM439 754h126 l-28 -131h-126z" horiz-adv-x="574" unicode="ë" glyph-name="edieresis"/>
<glyph d="M131 527h111l-112 -527h-111zM253 581l-161 135l61 68l161 -135z" horiz-adv-x="263" unicode="ì" glyph-name="igrave"/>
<glyph d="M131 527h111l-112 -527h-111zM109 652l219 135l42 -71l-219 -135z" horiz-adv-x="263" unicode="í" glyph-name="iacute"/>
<glyph d="M131 527h111l-112 -527h-111zM325 593l-101 102l-144 -102l-47 71l177 121h49l131 -127z" horiz-adv-x="263" unicode="î" glyph-name="icircumflex"/>
<glyph d="M131 527h111l-112 -527h-111zM64 754h126l-28 -131h-126zM283 754h126l-28 -131h-126z" horiz-adv-x="263" unicode="ï" glyph-name="idieresis"/>
<glyph d="M431 607l79 -230v-89l-24 -112l-39 -68l-62 -70l-108 -46h-115l-81 51l-37 68l-15 66l23 109l41 69l62 64l107 49h109l-35 91l-117 -58l-27 67l118 59l-33 85l101 51l30 -87l112 56l26 -67zM331 362h-65l-55 -27l-31 -32l-26 -41l-14 -65l10 -41l15 -32l43 -26h64l57 25 l29 35l25 38l16 76l-8 46l-21 28z" horiz-adv-x="563" unicode="ð" glyph-name="eth"/>
<glyph d="M234 495l78 40h88l84 -29l49 -85l-89 -421h-111l82 386l-13 27l-43 16h-53l-71 -41l-31 -34l-75 -354h-111l112 527h111zM168 636l29 47l49 38l60 18h45l40 -17l32 -21l21 -7h18l12 4l13 10l18 31l81 -23l-19 -42l-21 -31l-39 -27l-46 -16l-42 -2l-43 17l-46 30h-28 l-24 -10l-17 -13l-11 -21z" horiz-adv-x="586" unicode="ñ" glyph-name="ntilde"/>
<glyph d="M275 97l58 26l29 34l26 61l19 92v58l-16 36l-44 25h-69l-52 -25l-33 -35l-25 -59l-19 -90l-3 -64l18 -33l45 -26h66zM167 -8l-86 49l-41 81v84l21 116l37 88l70 75l110 50h106l90 -50l42 -81v-82l-25 -118l-33 -86l-70 -79l-113 -47h-108zM390 581l-161 135l61 68 l161 -135z" horiz-adv-x="558" unicode="ò" glyph-name="ograve"/>
<glyph d="M275 97l58 26l29 34l26 61l19 92v58l-16 36l-44 25h-69l-52 -25l-33 -35l-25 -59l-19 -90l-3 -64l18 -33l45 -26h66zM167 -8l-86 49l-41 81v84l21 116l37 88l70 75l110 50h106l90 -50l42 -81v-82l-25 -118l-33 -86l-70 -79l-113 -47h-108zM243 652l219 135l42 -71 l-219 -135z" horiz-adv-x="558" unicode="ó" glyph-name="oacute"/>
<glyph d="M275 97l58 26l29 34l26 61l19 92v58l-16 36l-44 25h-69l-52 -25l-33 -35l-25 -59l-19 -90l-3 -64l18 -33l45 -26h66zM167 -8l-86 49l-41 81v84l21 116l37 88l70 75l110 50h106l90 -50l42 -81v-82l-25 -118l-33 -86l-70 -79l-113 -47h-108zM459 593l-101 102l-144 -102 l-47 71l177 121h49l131 -127z" horiz-adv-x="558" unicode="ô" glyph-name="ocircumflex"/>
<glyph d="M275 97l58 26l29 34l26 61l19 92v58l-16 36l-44 25h-69l-52 -25l-33 -35l-25 -59l-19 -90l-3 -64l18 -33l45 -26h66zM167 -8l-86 49l-41 81v84l21 116l37 88l70 75l110 50h106l90 -50l42 -81v-82l-25 -118l-33 -86l-70 -79l-113 -47h-108zM144 636l29 47l49 38l60 18h45 l40 -17l32 -21l21 -7h18l12 4l13 10l18 31l81 -23l-19 -42l-21 -31l-39 -27l-46 -16l-42 -2l-43 17l-46 30h-28l-24 -10l-17 -13l-11 -21z" horiz-adv-x="558" unicode="õ" glyph-name="otilde"/>
<glyph d="M275 97l58 26l29 34l26 61l19 92v58l-16 36l-44 25h-69l-52 -25l-33 -35l-25 -59l-19 -90l-3 -64l18 -33l45 -26h66zM167 -8l-86 49l-41 81v84l21 116l37 88l70 75l110 50h106l90 -50l42 -81v-82l-25 -118l-33 -86l-70 -79l-113 -47h-108zM198 754h126l-28 -131h-126z M417 754h126l-28 -131h-126z" horiz-adv-x="558" unicode="ö" glyph-name="odieresis"/>
<glyph d="M223 239h135l-29 -133h-135zM294 572h135l-29 -133h-135zM98 387h448l-20 -95h-448z" horiz-adv-x="580" unicode="÷" glyph-name="divide"/>
<glyph d="M167 -8l-57 32l-73 -89l-48 40l78 94l-27 53v84l21 116l37 88l70 75l110 50h106l48 -27l67 81l47 -39l-65 -79l35 -67v-82l-25 -118l-33 -86l-70 -79l-113 -47h-108zM275 97l58 26l29 34l26 61l19 92v58l-4 9l-220 -265l26 -15h66zM146 164l214 257l-13 8h-69l-52 -25 l-33 -35l-25 -59l-19 -90z" horiz-adv-x="558" unicode="ø" glyph-name="oslash"/>
<glyph d="M261 97l69 42l32 33l76 355h111l-112 -527h-110l7 32l-81 -40h-74l-88 27l-54 85l90 423h111l-82 -386l16 -31l46 -13h43zM401 581l-161 135l61 68l161 -135z" unicode="ù" glyph-name="ugrave"/>
<glyph d="M261 97l69 42l32 33l76 355h111l-112 -527h-110l7 32l-81 -40h-74l-88 27l-54 85l90 423h111l-82 -386l16 -31l46 -13h43zM261 652l219 135l42 -71l-219 -135z" unicode="ú" glyph-name="uacute"/>
<glyph d="M261 97l69 42l32 33l76 355h111l-112 -527h-110l7 32l-81 -40h-74l-88 27l-54 85l90 423h111l-82 -386l16 -31l46 -13h43zM477 593l-101 102l-144 -102l-47 71l177 121h49l131 -127z" unicode="û" glyph-name="ucircumflex"/>
<glyph d="M261 97l69 42l32 33l76 355h111l-112 -527h-110l7 32l-81 -40h-74l-88 27l-54 85l90 423h111l-82 -386l16 -31l46 -13h43zM216 754h126l-28 -131h-126zM435 754h126l-28 -131h-126z" unicode="ü" glyph-name="udieresis"/>
<glyph d="M260 209l206 318h125l-457 -689h-121l165 247l-107 442h117zM253 652l219 135l42 -71l-219 -135z" horiz-adv-x="552" unicode="ý" glyph-name="yacute"/>
<glyph d="M302 535h94l92 -51l50 -89l6 -73l-24 -115l-36 -75l-84 -90l-113 -50h-92l-53 22l-9 7l-39 -183h-111l173 813h111l-33 -153zM172 129l28 -20l30 -12h57l53 28l53 57l18 38l19 89l-2 36l-25 57l-49 27h-54l-63 -38l-33 -36l-44 -206z" horiz-adv-x="594" unicode="þ" glyph-name="thorn"/>
</font>
</defs>
</svg>
